<?xml version="1.0" encoding="UTF-8" standalone="no"?>
<!-- Created with Inkscape (http://www.inkscape.org/) -->

<svg
   xmlns:dc="http://purl.org/dc/elements/1.1/"
   xmlns:cc="http://creativecommons.org/ns#"
   xmlns:rdf="http://www.w3.org/1999/02/22-rdf-syntax-ns#"
   xmlns:svg="http://www.w3.org/2000/svg"
   xmlns="http://www.w3.org/2000/svg"
   xmlns:sodipodi="http://sodipodi.sourceforge.net/DTD/sodipodi-0.dtd"
   xmlns:inkscape="http://www.inkscape.org/namespaces/inkscape"
   id="svg4190"
   version="1.1"
   inkscape:version="0.91 r13725"
   width="5280"
   height="3846"
   viewBox="0 0 5280 3846"
   sodipodi:docname="map_0.svg"
   inkscape:export-filename="/media/Data/git/need-not-to-speed/lib/images/map/map_0.png"
   inkscape:export-xdpi="90"
   inkscape:export-ydpi="90">
  <metadata
     id="metadata4196">
    <rdf:RDF>
      <cc:Work
         rdf:about="">
        <dc:format>image/svg+xml</dc:format>
        <dc:type
           rdf:resource="http://purl.org/dc/dcmitype/StillImage" />
        <dc:title></dc:title>
      </cc:Work>
    </rdf:RDF>
  </metadata>
  <defs
     id="defs4194">
    <inkscape:path-effect
       effect="envelope"
       id="path-effect7915"
       is_visible="true"
       yy="true"
       xx="true"
       bendpath1="m 710.75581,1738.0634 5224.88299,0"
       bendpath2="m 5935.6388,1738.0634 0,3429.4678"
       bendpath3="m 710.75581,5167.5312 5224.88299,0"
       bendpath4="m 710.75581,1738.0634 0,3429.4678" />
    <inkscape:path-effect
       effect="bend_path"
       id="path-effect7913"
       is_visible="true"
       bendpath="m 710.75581,3452.7973 5224.88299,0"
       prop_scale="0.95"
       scale_y_rel="false"
       vertical="false" />
    <filter
       inkscape:collect="always"
       style="color-interpolation-filters:sRGB"
       id="filter7206"
       x="-0.17427164"
       width="1.3485433"
       y="-0.32076438"
       height="1.6415288">
      <feGaussianBlur
         inkscape:collect="always"
         stdDeviation="361.23883"
         id="feGaussianBlur7208" />
    </filter>
    <filter
       inkscape:collect="always"
       style="color-interpolation-filters:sRGB"
       id="filter7392"
       x="-0.12312848"
       width="1.246257"
       y="-0.264329"
       height="1.528658">
      <feGaussianBlur
         inkscape:collect="always"
         stdDeviation="229.91719"
         id="feGaussianBlur7394" />
    </filter>
    <filter
       inkscape:collect="always"
       style="color-interpolation-filters:sRGB"
       id="filter7907"
       x="-0.84259442"
       width="2.6851888"
       y="-0.54732945"
       height="2.0946589">
      <feGaussianBlur
         inkscape:collect="always"
         stdDeviation="61.585878"
         id="feGaussianBlur7909" />
    </filter>
    <filter
       inkscape:collect="always"
       style="color-interpolation-filters:sRGB"
       id="filter8025"
       x="-0.023831609"
       width="1.0476632"
       y="-0.036385644"
       height="1.0727713">
      <feGaussianBlur
         inkscape:collect="always"
         stdDeviation="51.881142"
         id="feGaussianBlur8027" />
    </filter>
    <filter
       inkscape:collect="always"
       style="color-interpolation-filters:sRGB"
       id="filter8626"
       x="-0.15665214"
       width="1.3133043"
       y="-0.1483726"
       height="1.2967452">
      <feGaussianBlur
         inkscape:collect="always"
         stdDeviation="199.26945"
         id="feGaussianBlur8628" />
    </filter>
    <filter
       inkscape:collect="always"
       style="color-interpolation-filters:sRGB"
       id="filter8670"
       x="-0.11166787"
       width="1.2233357"
       y="-0.095925861"
       height="1.1918517">
      <feGaussianBlur
         inkscape:collect="always"
         stdDeviation="136.43515"
         id="feGaussianBlur8672" />
    </filter>
    <filter
       inkscape:collect="always"
       style="color-interpolation-filters:sRGB"
       id="filter9010"
       x="-0.620218"
       width="2.240436"
       y="-0.42787873"
       height="1.8557575">
      <feGaussianBlur
         inkscape:collect="always"
         stdDeviation="56.431909"
         id="feGaussianBlur9012" />
    </filter>
    <filter
       inkscape:collect="always"
       style="color-interpolation-filters:sRGB;"
       id="filter9222"
       x="-0.2"
       width="1.4"
       y="-0.2"
       height="1.4"
       inkscape:label="Burst"
       inkscape:menu="Textures"
       inkscape:menu-tooltip="Burst balloon texture crumpled and with holes">
      <feGaussianBlur
         inkscape:collect="always"
         stdDeviation="20.960417"
         id="feGaussianBlur9224"
         result="fbSourceGraphic" />
      <feColorMatrix
         result="fbSourceGraphicAlpha"
         in="fbSourceGraphic"
         values="0 0 0 -1 0 0 0 0 -1 0 0 0 0 -1 0 0 0 0 1 0"
         id="feColorMatrix9562" />
      <feTurbulence
         id="feTurbulence9564"
         seed="8"
         type="fractalNoise"
         baseFrequency="0.03"
         numOctaves="5"
         result="result8"
         in="fbSourceGraphic" />
      <feColorMatrix
         id="feColorMatrix9566"
         values="1 0 0 0 0 0 1 0 0 0 0 0 1 0 0 0 0 0 4 -0.7 "
         result="result5" />
      <feComposite
         id="feComposite9568"
         in2="result5"
         result="result11"
         operator="in"
         in="fbSourceGraphic" />
      <feDisplacementMap
         id="feDisplacementMap9570"
         in2="result8"
         result="result4"
         scale="50"
         yChannelSelector="G"
         xChannelSelector="R"
         in="result11" />
      <feComposite
         id="feComposite9572"
         in2="fbSourceGraphicAlpha"
         result="result7"
         operator="arithmetic"
         in="result4"
         k2="1.3" />
      <feColorMatrix
         id="feColorMatrix9574"
         result="fbSourceGraphicAlpha"
         in="result7"
         values="1 0 0 -1 0 1 0 1 -1 0 1 0 0 -1 0 -0.8 -1 0 4 -2.5 " />
      <feGaussianBlur
         id="feGaussianBlur9576"
         stdDeviation="0.5"
         result="result10" />
      <feDiffuseLighting
         id="feDiffuseLighting9578"
         surfaceScale="15"
         diffuseConstant="0.4"
         result="result6"
         lighting-color="rgb(255,255,255)"
         in="result10">
        <feDistantLight
           id="feDistantLight9580"
           azimuth="235"
           elevation="25" />
      </feDiffuseLighting>
      <feComposite
         id="feComposite9582"
         in2="result7"
         operator="in"
         result="result2"
         in="result6" />
      <feComposite
         id="feComposite9584"
         in2="result7"
         operator="arithmetic"
         k2="0.8"
         k3="0.8"
         result="result12" />
      <feBlend
         id="feBlend9586"
         in2="result12"
         mode="lighten" />
    </filter>
    <filter
       inkscape:label="Lizard Skin"
       inkscape:menu="Materials"
       inkscape:menu-tooltip="Stylized reptile skin texture"
       style="color-interpolation-filters:sRGB;"
       id="filter9346">
      <feGaussianBlur
         stdDeviation="0.5"
         in="SourceGraphic"
         result="result0"
         id="feGaussianBlur9348" />
      <feTurbulence
         result="result1"
         numOctaves="1"
         seed="488"
         baseFrequency="0.095"
         type="turbulence"
         id="feTurbulence9350" />
      <feComposite
         in="result0"
         in2="result1"
         operator="in"
         result="result2"
         id="feComposite9352" />
      <feComposite
         operator="arithmetic"
         in="result4"
         in2="result2"
         k3="1"
         k1="3"
         result="result91"
         id="feComposite9354" />
      <feBlend
         mode="multiply"
         result="fbSourceGraphic"
         in2="result91"
         id="feBlend9356" />
      <feColorMatrix
         result="fbSourceGraphicAlpha"
         in="fbSourceGraphic"
         values="0 0 0 0 0 0 0 1 0 0 0 0 1 0 0 0 0 0 5 0"
         id="feColorMatrix9358" />
      <feGaussianBlur
         result="result0"
         in="fbSourceGraphicAlpha"
         stdDeviation="3"
         id="feGaussianBlur9360" />
      <feOffset
         result="result3"
         in="result0"
         dy="2"
         dx="2"
         id="feOffset9362" />
      <feSpecularLighting
         specularExponent="30"
         specularConstant="1.1"
         surfaceScale="2"
         lighting-color="rgb(111,236,253)"
         result="result1"
         in="result0"
         id="feSpecularLighting9364">
        <fePointLight
           z="20000"
           y="-10000"
           x="-5000"
           id="fePointLight9366" />
      </feSpecularLighting>
      <feComposite
         k2="-1"
         operator="in"
         result="result2"
         in="result1"
         in2="fbSourceGraphicAlpha"
         id="feComposite9368" />
      <feComposite
         k3="1"
         k2="3"
         operator="arithmetic"
         result="result4"
         in="fbSourceGraphic"
         in2="result2"
         id="feComposite9370" />
      <feBlend
         mode="multiply"
         in2="result4"
         id="feBlend9372" />
    </filter>
    <filter
       inkscape:label="Air Spray"
       inkscape:menu="Scatter"
       inkscape:menu-tooltip="Convert to small scattered particles with some thickness"
       width="2"
       height="2"
       y="-0.5"
       x="-0.5"
       style="color-interpolation-filters:sRGB;"
       id="filter9400">
      <feGaussianBlur
         stdDeviation="0.01"
         result="result1"
         id="feGaussianBlur9402" />
      <feBlend
         in2="result1"
         result="fbSourceGraphic"
         mode="multiply"
         id="feBlend9404" />
      <feTurbulence
         baseFrequency="0.8"
         type="fractalNoise"
         seed="0"
         numOctaves="3"
         result="result3"
         id="feTurbulence9406" />
      <feDisplacementMap
         in="fbSourceGraphic"
         xChannelSelector="R"
         yChannelSelector="G"
         scale="50"
         result="result2"
         in2="result3"
         id="feDisplacementMap9408" />
      <feMorphology
         radius="1"
         operator="dilate"
         result="result4"
         id="feMorphology9410" />
      <feBlend
         mode="screen"
         in2="result2"
         id="feBlend9412" />
    </filter>
    <filter
       inkscape:label="Air Spray"
       inkscape:menu="Scatter"
       inkscape:menu-tooltip="Convert to small scattered particles with some thickness"
       width="2"
       height="2"
       y="-0.5"
       x="-0.5"
       style="color-interpolation-filters:sRGB;"
       id="filter9414">
      <feGaussianBlur
         stdDeviation="0.01"
         result="result1"
         id="feGaussianBlur9416" />
      <feBlend
         in2="result1"
         result="fbSourceGraphic"
         mode="multiply"
         id="feBlend9418" />
      <feTurbulence
         baseFrequency="0.8"
         type="fractalNoise"
         seed="0"
         numOctaves="3"
         result="result3"
         id="feTurbulence9420" />
      <feDisplacementMap
         in="fbSourceGraphic"
         xChannelSelector="R"
         yChannelSelector="G"
         scale="50"
         result="result2"
         in2="result3"
         id="feDisplacementMap9422" />
      <feMorphology
         radius="1"
         operator="dilate"
         result="result4"
         id="feMorphology9424" />
      <feBlend
         mode="screen"
         in2="result2"
         id="feBlend9426" />
    </filter>
    <filter
       inkscape:label="Air Spray"
       inkscape:menu="Scatter"
       inkscape:menu-tooltip="Convert to small scattered particles with some thickness"
       width="2"
       height="2"
       y="-0.5"
       x="-0.5"
       style="color-interpolation-filters:sRGB;"
       id="filter9428">
      <feGaussianBlur
         stdDeviation="0.01"
         result="result1"
         id="feGaussianBlur9430" />
      <feBlend
         in2="result1"
         result="fbSourceGraphic"
         mode="multiply"
         id="feBlend9432" />
      <feTurbulence
         baseFrequency="0.8"
         type="fractalNoise"
         seed="0"
         numOctaves="3"
         result="result3"
         id="feTurbulence9434" />
      <feDisplacementMap
         in="fbSourceGraphic"
         xChannelSelector="R"
         yChannelSelector="G"
         scale="50"
         result="result2"
         in2="result3"
         id="feDisplacementMap9436" />
      <feMorphology
         radius="1"
         operator="dilate"
         result="result4"
         id="feMorphology9438" />
      <feBlend
         mode="screen"
         in2="result2"
         id="feBlend9440" />
    </filter>
    <filter
       inkscape:menu-tooltip="Partly opaque water color effect with bleed"
       inkscape:menu="Textures"
       inkscape:label="Gouache"
       style="color-interpolation-filters:sRGB;"
       id="filter9626">
      <feGaussianBlur
         stdDeviation="3"
         result="result5"
         in="SourceGraphic"
         id="feGaussianBlur9628" />
      <feTurbulence
         result="result1"
         baseFrequency="0.02"
         type="fractalNoise"
         seed="0"
         numOctaves="3"
         id="feTurbulence9630" />
      <feDisplacementMap
         result="result3"
         in2="result1"
         in="SourceGraphic"
         xChannelSelector="R"
         yChannelSelector="G"
         scale="30"
         id="feDisplacementMap9632" />
      <feComposite
         result="result4"
         in="result3"
         in2="result1"
         operator="out"
         id="feComposite9634" />
      <feComposite
         result="result6"
         operator="arithmetic"
         k2="1"
         k1="0.3"
         k3="0.3"
         in2="result4"
         id="feComposite9636" />
      <feComposite
         in2="result5"
         in="result6"
         operator="over"
         id="feComposite9638" />
    </filter>
  </defs>
  <sodipodi:namedview
     pagecolor="#ffffff"
     bordercolor="#666666"
     borderopacity="1"
     objecttolerance="10"
     gridtolerance="10"
     guidetolerance="10"
     inkscape:pageopacity="0"
     inkscape:pageshadow="2"
     inkscape:window-width="1600"
     inkscape:window-height="848"
     id="namedview4192"
     showgrid="false"
     inkscape:zoom="1.2973052"
     inkscape:cx="3003.6744"
     inkscape:cy="2032.9696"
     inkscape:window-x="0"
     inkscape:window-y="0"
     inkscape:window-maximized="1"
     inkscape:current-layer="svg4190" />
  <rect
     style="opacity:1;fill:#0009ba;fill-opacity:1;stroke:none;stroke-width:8;stroke-linecap:butt;stroke-linejoin:miter;stroke-miterlimit:4;stroke-dasharray:none;stroke-dashoffset:0;stroke-opacity:1"
     id="rect4835"
     width="4000"
     height="3000"
     x="740"
     y="423" />
  <rect
     y="-1.1368684e-13"
     x="0"
     height="3846"
     width="5280.2002"
     id="rect7015"
     style="opacity:1;fill:#abb400;fill-opacity:1;stroke:none;stroke-width:8;stroke-linecap:butt;stroke-linejoin:miter;stroke-miterlimit:4;stroke-dasharray:none;stroke-dashoffset:0;stroke-opacity:1" />
  <rect
     style="opacity:0.589;fill:#00814e;fill-opacity:1;stroke:none;stroke-width:8;stroke-linecap:butt;stroke-linejoin:miter;stroke-miterlimit:4;stroke-dasharray:none;stroke-dashoffset:0;stroke-opacity:1;filter:url(#filter9346)"
     id="rect9254"
     width="5280.2002"
     height="3846"
     x="0"
     y="-1.1368684e-13" />
  <g
     id="g8035">
    <g
       id="g8029">
      <path
         style="fill:#002fe4;fill-opacity:1;fill-rule:evenodd;stroke:none;stroke-width:1px;stroke-linecap:butt;stroke-linejoin:miter;stroke-opacity:1"
         d="m 710.75581,3846 c 185.19417,-79.2861 448.06379,-139.0276 542.87789,-355.3779 -8.5939,-196.3449 -48.1063,-400.5129 18.5487,-597.1126 10.7082,-245.9384 207.3469,-376.2929 348.0993,-529.0421 67.524,-179.6222 92.3568,-382.3205 163.4157,-556.5383 157.1543,83.7148 10.2641,383.4162 187.3114,499.497 85.6026,177.2628 76.5706,481.6262 349.9562,454.018 207.8916,43.7648 473.1724,-155.4953 365.3727,-379.2476 -30.5845,-194.705 -318.1123,-293.6059 -204.2696,-527.2468 107.8671,-164.1825 349.4216,-99.0752 519.9731,-116.8863 205.4157,41.0127 62.8822,352.5897 162.2103,496.134 113.0972,215.4078 -9.5881,446.8477 96.0905,654.2259 66.5452,173.5216 -60.6984,409.987 205.6996,452.083 217.3467,101.7108 442.7461,38.1948 665.6841,19.8342 238.8515,-13.1696 376.4063,-203.6998 467.0378,-403.1059 104.0804,-174.8254 329.2152,-164.0246 509.1276,-150.078 236.3066,74.2865 375.0773,-149.8806 548.4493,-214.5239 76.9469,148.4736 125.025,335.9127 177.0034,506.4354 96.7241,378.044 183.0973,817.2002 -28.9084,1172.6845 -206.7192,275.9747 -534.4797,431.3757 -842.2225,568.3283 -876.9943,343.8597 -1860.4665,417.904 -2780.3264,217.3881 C 1627.0368,4927.9969 1032.3252,4650.238 788.89556,4100.6629 753.4616,4019.0383 727.35386,3933.4106 710.75581,3846 Z"
         id="path7036"
         inkscape:connector-curvature="0" />
      <path
         inkscape:connector-curvature="0"
         id="path7911"
         d="m 744.67227,3904.583 c 143.25319,-141.6393 497.65433,-195.0722 545.96123,-426.2942 40.1918,-192.3793 -17.1997,-374.1222 18.5487,-578.6127 42.3921,-242.4939 237.8059,-322.2006 348.0993,-498.2089 101.8955,-162.6067 -36.1516,-487.1775 138.7492,-556.5383 165.5202,-65.6407 12.1736,320.1892 153.3949,477.9138 131.3098,146.6549 109.2513,460.2154 383.8727,469.4345 212.3287,7.1279 452.6041,-165.0242 374.6226,-400.8308 -61.8826,-187.1256 -330.7921,-294.0553 -204.2696,-521.0801 95.6324,-171.5973 333.4031,-112.032 504.5565,-101.4698 209.0722,12.9022 27.0587,345.9092 115.9606,496.134 123.9074,209.3763 21.7813,432.895 117.6737,644.976 76.5665,169.3387 -46.6557,396.8132 211.8662,473.6662 230.0193,68.3797 457.9275,31.9888 681.1007,16.7509 238.6586,-16.2952 430.6889,-202.6304 531.7874,-396.9393 93.9099,-180.4926 255.5155,-190.5832 432.0448,-153.1613 242.3231,51.3694 419.2452,-211.616 594.699,-152.8576 158.5721,53.1048 93.3627,229.5435 140.0036,401.6027 102.0946,376.6291 199.8328,827.7309 -28.9084,1172.6845 -190.5581,287.3716 -530.1061,441.6594 -842.2225,568.3283 C 4089.359,5194.3189 3100.6275,5263.0508 2181.8865,5057.469 1625.8809,4933.0545 1031.8001,4650.4703 788.89556,4100.6629 752.93563,4019.2686 681.40382,3967.1387 744.67227,3904.583 Z"
         style="fill:#009ffa;fill-opacity:1;fill-rule:evenodd;stroke:none;stroke-width:1px;stroke-linecap:butt;stroke-linejoin:miter;stroke-opacity:1;filter:url(#filter8025)"
         sodipodi:nodetypes="sssssssssssssssssssssss" />
      <path
         inkscape:connector-curvature="0"
         id="path7196"
         d="m 971.17441,3913.5026 c 182.10309,-62.4871 309.77119,-240.3846 403.00269,-410.8948 -8.4505,-154.7435 -47.3033,-315.6525 18.2391,-470.5969 10.5294,-193.8291 117.886,-316.5642 256.2891,-436.9491 66.3969,-141.564 73.3734,-205.3845 143.2462,-342.6892 154.5313,65.9774 27.5347,206.2482 201.6268,297.7338 84.1739,139.7046 75.2926,379.5796 344.1151,357.8211 204.4216,34.4919 770.5072,-0.4561 664.5069,-176.8 -30.0741,-153.451 -312.8027,-231.3969 -200.8602,-415.5342 106.0667,-129.3956 38.3568,-200.1762 206.0616,-214.2135 201.987,32.323 -7.9348,330.2089 89.7354,443.3391 111.2095,169.7674 8.0138,378.3328 111.9284,541.7719 65.4345,136.756 36.2451,366.7239 298.1965,399.9007 213.719,80.1603 540.0073,-4.7816 759.2242,-19.252 234.8649,-10.3792 352.6819,-195.4238 441.8006,-352.5799 102.3432,-137.7835 341.162,-76.9456 518.0715,-65.954 232.3624,58.5468 220.5611,-222.7752 391.0393,-273.7219 75.6626,117.0151 122.9381,264.7397 174.049,399.1323 95.1096,297.9443 180.0412,644.0524 -28.4259,924.217 -203.2688,217.5015 -525.5586,339.9762 -828.1649,447.9114 -862.3562,271.003 -1829.4131,329.3589 -2733.9195,171.3281 -545.5887,-102.0397 -1044.3738,-300.9473 -1283.74029,-734.0788 0,0 70.29942,-1.001 53.9784,-69.8911 z"
         style="fill:#0067a2;fill-opacity:1;fill-rule:evenodd;stroke:none;stroke-width:1px;stroke-linecap:butt;stroke-linejoin:miter;stroke-opacity:1;filter:url(#filter7206)"
         sodipodi:nodetypes="ccccccccccccccccccccccc" />
      <path
         sodipodi:nodetypes="cccccccccccccccccccc"
         style="fill:#00507e;fill-opacity:1;fill-rule:evenodd;stroke:none;stroke-width:1px;stroke-linecap:butt;stroke-linejoin:miter;stroke-opacity:1;filter:url(#filter7392)"
         d="m 1126.1541,4367.7319 c 164.0447,-49.6561 279.0527,-191.0243 363.0389,-326.5222 -7.6125,-122.9687 -42.6125,-250.8368 16.4304,-373.9652 9.4852,-154.0285 106.1958,-251.5613 230.8742,-347.2265 59.8126,-112.4954 66.0973,-163.2112 129.0411,-272.3219 139.2072,52.4297 24.8043,163.8975 181.6324,236.5976 75.8269,111.0178 67.8263,301.6371 309.991,284.3466 184.1501,27.4094 694.0998,-0.3625 598.611,-140.4961 -166.7447,-963.7618 -67.3503,-100.2153 186.3513,282.3934 58.9458,108.6747 32.6509,291.4213 268.6259,317.7856 192.5256,63.7003 486.4574,-3.7998 683.9357,-15.2988 211.5745,-8.2479 317.7081,-155.2957 397.9893,-280.1816 92.1944,-109.4912 307.3307,-61.1457 466.6969,-52.4111 209.3202,46.5249 198.6891,-177.0308 352.2619,-217.5162 68.1594,92.9873 110.747,210.3784 156.7893,317.175 85.6782,236.7648 162.1875,511.8035 -25.6069,734.4395 -183.1117,172.84 -473.4415,270.166 -746.0399,355.9378 -776.8406,215.3557 -1647.9991,261.7288 -2462.8101,136.1478 -491.4854,-81.087 -940.8084,-239.1512 -1156.4381,-583.344 0,0 63.3282,-0.7954 48.6257,-55.5397 z"
         id="path7210"
         inkscape:connector-curvature="0" />
    </g>
    <path
       inkscape:connector-curvature="0"
       id="path7396"
       d="m 1769.8225,2255.0097 c -6.2386,26.6519 -18.9237,51.1372 -31.5034,75.22 -7.192,12.2721 -4.8321,28.7813 -18.1203,37.3592 -13.3504,12.672 -16.4093,32.2707 -28.4705,46.0265 -7.0379,6.6254 -13.6757,13.2808 -17.4404,22.4492 -5.0661,8.9829 -7.4295,19.2595 -7.6833,29.4247 -4.5421,17.4991 11.0445,32.5266 26.2047,38.2013 10.4237,4.1824 21.0907,7.8139 31.3988,12.2302 12.0823,3.3769 28.0094,1.032 34.2815,-11.1179 8.0939,-7.1195 18.2788,-8.7754 26.3311,-15.1281 17.8065,-13.7053 33.6435,-30.6657 42.4786,-51.5737 9.8181,-16.8269 15.3531,-36.2955 13.6005,-55.8568 -0.4207,-34.1881 -0.013,-68.3788 -0.1638,-102.568 -6.7964,-12.4963 -15.3021,-30.3833 -32.4787,-27.2712 -11.6159,-4.4655 -24.962,-9.3344 -35.1696,1.0594 l -1.6032,0.8272 -1.662,0.718 0,0 z"
       style="fill:#00507e;fill-rule:evenodd;stroke:none;stroke-width:1px;stroke-linecap:butt;stroke-linejoin:miter;stroke-opacity:1;fill-opacity:1;filter:url(#filter7907)" />
  </g>
  <path
     style="fill:none;fill-rule:evenodd;stroke:#ececec;stroke-width:5.88981485;stroke-linecap:butt;stroke-linejoin:miter;stroke-miterlimit:4;stroke-dasharray:none;stroke-opacity:1"
     d="m 1078.7747,3421.2187 130.6554,3.1381"
     id="path4847"
     inkscape:connector-curvature="0"
     sodipodi:nodetypes="cc" />
  <path
     style="fill:#786014;fill-opacity:1;fill-rule:evenodd;stroke:none;stroke-width:1px;stroke-linecap:butt;stroke-linejoin:miter;stroke-opacity:1;filter:url(#filter9414)"
     d="m 418.60465,3846 c 47.17915,-81.4636 98.44804,-188.4385 204.54081,-194.7867 134.24164,-27.7563 258.65691,-86.0284 388.48244,-127.8877 63.0444,-110.1115 33.35,-244.6244 47.9651,-366.2791 3.3191,-94.9634 8.5055,-189.8322 38.0669,-280.1272 -9.9355,-128.5271 83.4251,-232.7633 120.2493,-350.5779 46.1917,-60.5034 91.2043,-121.7807 123.3326,-191.1655 104.3246,-28.8554 199.5596,-103.7861 216.143,-216.1795 27.4358,-101.3098 47.9413,-204.0341 79.0518,-304.1022 5.0171,-107.2306 92.6688,-242.0566 214.7083,-198.516 76.2218,22.7853 135.8342,101.9315 126.2716,183.1706 -6.7062,64.6538 22.8865,120.1457 86.6051,140.9912 54.8745,41.7769 45.8256,116.7377 51.1321,178.8039 -47.4217,32.2718 -101.2724,98.0277 -21.5832,126.4159 52.2542,94.2553 53.9953,206.7926 91.5476,304.3613 54.1444,47.7741 147.0608,42.3902 214.9315,20.6206 68.4104,-24.2709 150.7697,-86.0514 116.2737,-169.198 -16.6267,-94.2613 -125.5227,-143.8181 -130.7624,-244.273 -24.8388,-90.4588 -31.588,-185.148 -86.9787,-263.7656 -30.8933,-49.2017 46.583,-209.4498 25.5716,-162.287 67.2049,-65.1053 162.0614,-102.1851 251.1399,-127.6205 140.4338,-32.4034 279.8636,29.943 420.1463,3.9161 62.379,-30.287 38.4315,-79.61 43.9629,-131.046 -23.845,-56.754 7.9947,-104.7374 -9.2196,-163.9445 -4.8376,-55.0541 -7.6265,-124.6946 40.6442,-147.1577 19.5378,-52.403 122.6866,-168.71874 110.4749,-124.6095 -49.5943,-69.67706 -142.8644,-87.50047 -220.7484,-104.54133 -79.4982,-23.8561 -46.2752,-118.61212 -59.1551,-181.23741 -11.7374,-63.88339 56.9557,-112.38633 46.9696,-168.64236 -16.5813,-68.7702 -61.8129,-121.1172 -119.4275,-159.73063 -34.2919,-64.08266 -43.1164,-152.09647 -124.7976,-171.6486 -77.13,-28.65188 -115.5678,-118.56818 -124.6333,-192.516977 47.0824,-81.529928 -22.6345,-102.190733 -92.7668,-87.539992 -845.3588,0 -1690.71757,0 -2536.076331,0 0,1306.811399 0,2613.622899 0,3920.434299 C 106.6462,3878.8887 262.62542,3862.4443 418.60465,3846 Z"
     id="path8043"
     inkscape:connector-curvature="0" />
  <path
     inkscape:connector-curvature="0"
     id="path8046"
     d="m 459.88463,3614.2649 c 41.05727,-70.893 85.67362,-163.9871 178,-169.5115 116.82271,-24.1547 225.0941,-74.8656 338.07373,-111.2933 54.86394,-95.8236 29.02264,-212.8824 41.74124,-318.7514 2.8885,-82.6412 7.4019,-165.2 33.1275,-243.7785 -8.6463,-111.8497 72.6,-202.5604 104.6459,-305.0876 40.198,-52.6526 79.3699,-105.9787 107.3293,-166.3602 90.7876,-25.1112 173.6651,-90.319 188.0967,-188.1285 23.8757,-88.164 41.7205,-177.559 68.7942,-264.6425 35.1992,-198.1493 298.6442,-296.6478 404.8481,-258.757 66.3314,19.8288 118.2087,88.7051 109.8869,159.4028 -5.836,56.2644 19.9168,192.5558 75.3674,210.6964 47.7541,36.3561 39.8793,101.5901 44.4973,155.6027 -41.2684,28.0843 -88.1315,85.3078 -18.7826,110.0124 45.4738,82.0249 46.9889,179.9596 79.6685,264.868 47.1188,41.575 127.9785,36.8897 187.0425,17.9449 59.5336,-21.1215 59.2061,-114.8855 29.1862,-187.2432 -14.4692,-82.0301 -109.2351,-125.1565 -113.7949,-212.5766 -21.6158,-78.721 -27.4892,-161.1236 -75.6925,-229.5399 -26.8847,-42.8174 40.5384,-182.272 22.2534,-141.229 58.4846,-56.6573 141.0327,-88.9257 218.5525,-111.0607 122.2114,-28.1988 119.5491,-29.9423 241.629,-52.592 54.2848,-26.357 131.4447,26.72 136.2583,-18.0418 -20.7509,-49.3897 6.9574,-91.1468 -8.0232,-142.6713 -4.2099,-47.9104 -6.6369,-108.5145 35.3702,-128.0629 17.0027,-45.6032 106.7671,-146.8261 96.1399,-108.4404 -43.159,-60.6359 -124.3266,-76.1466 -192.1045,-90.9762 -69.1827,-20.7606 -40.2706,-103.22128 -51.4792,-157.72044 -10.2144,-55.594 49.5652,-97.8033 40.8749,-146.75966 -14.4298,-59.84671 -53.7922,-105.40127 -103.9308,-139.0043 -29.8423,-55.76742 -37.5217,-132.36073 -108.6042,-149.37582 -67.1217,-24.93407 -100.5719,-103.18301 -108.4611,-167.53635 40.9731,-70.95077 -19.6975,-88.93067 -80.7296,-76.18098 l -2207.00009,0 L 52.665608,3657.1966 c 135.739682,-14.3105 271.479342,-28.6211 407.219022,-42.9317 z"
     style="fill:#58460f;fill-opacity:1;fill-rule:evenodd;stroke:none;stroke-width:1px;stroke-linecap:butt;stroke-linejoin:miter;stroke-opacity:1;filter:url(#filter8670)"
     sodipodi:nodetypes="cccccccccccccccccccccccccccccccccccc" />
  <path
     sodipodi:nodetypes="cccccccccccccccccccccccccc"
     style="fill:#58460f;fill-opacity:1;fill-rule:evenodd;stroke:none;stroke-width:1px;stroke-linecap:butt;stroke-linejoin:miter;stroke-opacity:1;filter:url(#filter8626)"
     d="m 245.71846,3370.7329 c 41.05727,-70.893 -16.4028,-163.9871 75.92358,-169.5115 116.82271,-24.1547 225.0941,-74.8656 338.07373,-111.2933 54.8639,-95.8236 29.0226,-212.8824 41.7412,-318.7514 2.8885,-82.6412 7.4019,-165.2 33.1275,-243.7785 -8.6463,-111.8497 72.6,-202.5604 104.6459,-305.0876 40.198,-52.6526 79.3699,-105.9787 107.3293,-166.3602 90.78763,-25.1112 173.66513,-90.319 188.09673,-188.1285 23.8757,-88.164 143.7969,-177.559 170.8706,-264.6425 35.1992,-198.1493 607.3866,-330.4791 713.5905,-292.5883 66.3314,19.8288 118.2087,210.3067 109.8869,281.0044 -5.836,56.2644 19.9168,192.5558 75.3674,210.6964 -29.5544,203.0986 234.1592,238.8937 132.1245,-80.9317 -26.8847,-42.8174 -59.2181,-217.0708 -77.5031,-176.0278 284.4118,-184.4799 345.2228,-182.3979 533.1167,-280.3681 17.0027,-45.6032 109.0871,-146.8261 98.4599,-108.4404 -43.159,-60.6359 -142.886,-110.9454 -210.6639,-125.775 -69.1827,-20.7606 -40.2706,-103.22125 -51.4792,-157.72041 -10.2144,-55.594 49.5652,-97.8033 40.8749,-146.75966 -14.4298,-59.84671 -53.7922,-105.40127 -103.9308,-139.0043 -29.8423,-55.76742 -37.5217,-132.36073 -108.6042,-149.37582 -67.1217,-24.93407 -100.5719,-103.18301 -108.4611,-167.53635 40.9731,-70.95077 -19.6975,-88.93067 -80.7296,-76.18098 L 160.33235,228.97016 -161.50056,3413.6646 c 135.739676,-14.3105 271.47934,-28.6211 407.21902,-42.9317 z"
     id="path8548"
     inkscape:connector-curvature="0"
     transform="matrix(0.86209923,0,0,0.86209923,96.74616,161.58325)" />
  <path
     style="fill:#433307;fill-rule:evenodd;stroke:none;stroke-width:1px;stroke-linecap:butt;stroke-linejoin:miter;stroke-opacity:1;fill-opacity:1;filter:url(#filter9010)"
     d="m 2205.9038,2255.25 c -8.6839,41.1183 -5.2958,84.3424 6.1366,124.5297 9.1489,18.063 22.4602,34.062 28.0194,53.8413 12.3202,28.6844 33.3181,57.7285 65.3649,65.2139 19.7526,4.1683 41.7742,5.9796 60.489,-2.8057 21.2399,-12.6406 33.3708,-35.0483 49.023,-53.3377 10.1506,-14.3965 1.2068,-31.7812 -9.7283,-42.6343 -11.807,-15.6748 -26.5247,-28.577 -41.7882,-40.7487 -14.2982,-11.3861 -24.4855,-27.4837 -27.4697,-45.6185 -3.4788,-15.1511 -0.7536,-31.7381 -9.1748,-45.5302 -6.9292,-12.8723 -13.4516,-25.9807 -17.685,-39.9892 -5.9644,-15.5278 -11.0785,-34.7664 -28.0916,-41.6313 -26.6476,-4.2394 -56.3583,9.1813 -66.7965,34.9397 -4.9337,10.5836 -7.372,22.1771 -8.2988,33.771 z"
     id="path8674"
     inkscape:connector-curvature="0" />
  <path
     style="fill:#786014;fill-opacity:1;fill-rule:evenodd;stroke:none;stroke-width:1px;stroke-linecap:butt;stroke-linejoin:miter;stroke-opacity:1;filter:url(#filter9428)"
     d="m 1358.2849,2614.1686 c 0,0 34.655,-70.6965 54.5058,-104.6512 20.1434,-34.4552 40.2598,-69.2981 65.407,-100.2907 18.1321,-22.3468 38.0244,-43.7799 61.0465,-61.0465 20.5554,-15.4166 49.3209,-18.9935 67.5872,-37.0639 18.9689,-18.7654 39.2442,-69.7675 39.2442,-69.7675 0,0 -8.7369,83.8221 -28.343,119.9128 -11.0415,20.3251 -31.0774,34.3395 -47.9652,50.1454 -29.7562,27.8499 -64.4613,50.1471 -93.75,78.4883 -26.6303,25.7689 -74.1279,82.8489 -74.1279,82.8489 z"
     id="path9014"
     inkscape:connector-curvature="0"
     sodipodi:nodetypes="csssscssscc" />
  <path
     sodipodi:nodetypes="csssscssscc"
     inkscape:connector-curvature="0"
     id="path9016"
     d="m 1423.4624,2529.7341 c 0,0 18.958,-38.6744 29.8174,-57.2494 11.0194,-18.8486 22.024,-37.9094 35.7808,-54.8639 9.9192,-12.2248 20.8012,-23.9498 33.3955,-33.3954 11.2448,-8.4337 26.9809,-10.3904 36.9735,-20.2758 10.3769,-10.2657 21.4685,-38.1663 21.4685,-38.1663 0,0 -4.7795,45.8548 -15.505,65.5982 -6.0403,11.1188 -17.0009,18.7854 -26.2394,27.432 -16.278,15.2353 -35.2635,27.433 -51.2858,42.937 -14.5681,14.0969 -40.5517,45.3224 -40.5517,45.3224 z"
     style="fill:#43350b;fill-opacity:1;fill-rule:evenodd;stroke:none;stroke-width:1px;stroke-linecap:butt;stroke-linejoin:miter;stroke-opacity:1;filter:url(#filter9222)" />
  <path
     style="fill:#333333;fill-opacity:1;fill-rule:evenodd;stroke:none;stroke-width:1px;stroke-linecap:butt;stroke-linejoin:miter;stroke-opacity:1;filter:url(#filter9626)"
     d="m 3638.3105,642.43555 c 68.6518,1.22522 174.4846,7.72354 232.7911,12.33398 58.3065,4.61044 80.8079,11.93396 114.8535,31.60471 34.0456,19.67075 52.6967,43.42923 71.6875,76.31131 18.9908,32.88208 33.1236,65.87085 44.707,100.20703 11.5834,34.33618 13.8041,77.93416 24.666,104.83398 10.8619,26.89982 15.6684,34.14484 27.7514,63.97854 12.083,29.8337 19.6843,65.6948 35.4576,116.3945 15.7733,50.6997 39.9684,101.5341 69.375,178.832 29.4066,77.2979 76.2804,212.7678 106.3731,285.2071 30.0927,72.4393 49.8341,92.3718 69.375,151.082 19.5409,58.7102 31.6799,125.8357 43.166,200.416 11.4861,74.5803 17.6872,162.8688 23.125,246.6641 5.4378,83.7953 14.948,186.2066 9.25,255.916 -5.698,69.7094 -18.0914,105.2321 -32.375,160.332 -14.2836,55.0999 -36.7788,107.1531 -53.9571,169.5821 -17.1783,62.4291 -38.541,198.8743 -47.791,205.041 -9.25,6.1667 -147.5374,123.076 -222,158.791 -74.4626,35.715 -163.6586,46.0388 -214.289,60.125 -50.6304,14.0862 -46.7647,19.4987 -89.4161,24.666 -42.6514,5.1674 -123.3241,-0.6529 -164.9589,-4.625 -41.6348,-3.9721 -58.7396,-2.1566 -84.7911,-13.875 -26.0515,-11.7184 -47.0456,-40.3202 -66.291,-53.959 -19.2454,-13.6388 -33.2962,-21.7049 -47.791,-29.291 -14.4948,-7.586 -34.5266,-1.8295 -38.541,-16.957 -4.0144,-15.1275 25.7989,-25.534 30.832,-41.625 5.0331,-16.0909 1.6115,-29.3191 -1.541,-49.334 -3.1525,-20.0149 -8.6217,-26.8138 -20.041,-69.375 -11.4193,-42.5611 -39.4969,-142.6672 -46.25,-186.5391 -6.7531,-43.8719 -5.4784,-47.4104 -4.625,-74 0.8534,-26.5896 9.9123,-57.9458 10.791,-84.791 0.8787,-26.8452 1.5357,-37.1179 -4.625,-75.541 -6.1606,-38.4231 -32.1856,-104.5623 -40.082,-152.625 -7.8963,-48.0626 -15.7006,-72.6986 -9.25,-134.123 6.4506,-61.4244 -33.2233,-148.6507 -47.791,-186.5411 -14.5677,-37.8904 -2.204,8.6886 -10.793,-46.25 -8.589,-54.9386 -14.8952,-182.4305 -23.125,-285.207 -8.2297,-102.7764 -30.7484,-252.0828 -26.207,-331.4551 4.5414,-79.3723 5.3853,-108.6093 27.75,-141.834 22.3647,-33.2247 53.2315,-27.2254 80.166,-52.416 26.9345,-25.1905 60.7725,-60.0431 75.541,-100.207 14.7685,-40.1639 20.7565,-98.791 7.709,-131.04102 -13.0475,-32.24997 -37.1995,-36.46961 -57.043,-52.41602 -19.8435,-15.94641 -43.1933,-28.68695 -61.666,-43.16601 -18.4727,-14.47906 -35.2589,-29.71839 -49.332,-43.16797 -14.0731,-13.44958 -29.3045,-21.68175 -35.459,-36.99805 -6.1545,-15.3163 0,-36.74416 0,-47.79297 0,-11.04881 2.0749,-19.14083 21.584,-37 19.5091,-17.85917 72.2857,-36.69431 104.832,-49.33203 32.5463,-12.63771 44.5758,-20.5559 89.416,-27.75 44.8402,-7.19409 110.1803,-4.3092 178.832,-3.08398 z M 557.04942,3711.9157 l 126.99855,-59.3895 96.47528,-25.0727 77.39826,-31.4375 62.32994,-11.987 83.20055,-35.0857 38.6992,-19.6221 22.3473,-55.5959 2.3277,-50.1394 c 0,-61.6513 0.7186,-163.4942 4.625,-245.123 2.8825,-60.2337 6.1148,-120.5738 13.875,-180.375 8.0679,-62.1725 18.6508,-124.1912 33.916,-184.9981 10.6445,-42.4012 23.2101,-84.5459 40.084,-124.875 14.5499,-34.7748 34.2928,-67.1535 52.416,-100.207 15.3835,-28.0568 30.2774,-56.4711 47.791,-83.25 26.9464,-41.2019 54.8569,-82.1897 87.875,-118.707 20.4945,-22.6665 44.8897,-41.483 67.834,-61.666 23.8131,-20.9473 48.6875,-40.6692 72.457,-61.666 12.5396,-11.0768 27.5368,-20.12 37,-33.918 23.1008,-33.6825 31.111,-75.5683 44.707,-114.082 13.0929,-37.0885 25.1907,-74.5734 35.459,-112.5411 13.344,-49.3404 21.5072,-99.9572 33.916,-149.541 9.4429,-37.7325 12.3179,-78.3348 30.834,-112.541 11.4374,-21.1293 30.9681,-36.8033 47.791,-53.957 18.589,-18.9545 33.266,-45.964 58.5821,-53.959 31.0189,-8.7912 90.4824,11.6104 126.416,21.584 9.3604,7.8476 8.6596,22.8706 13.875,33.916 12.9586,27.4444 34.7043,51.0201 43.168,80.166 4.0228,13.853 2.568,28.7499 3.082,43.166 0.4944,13.8662 -0.447,27.7572 0,41.625 0.5143,15.9552 -1.3831,32.4653 3.084,47.791 3.2824,11.2611 8.0196,23.2373 16.957,30.834 12.8801,10.9479 32.137,10.5838 47.793,16.959 13.6285,5.5496 30.2681,7.5354 40.082,18.5 8.67,9.6865 8.8845,24.4642 12.334,36.9981 4.4667,16.23 9.6515,32.5391 10.791,49.3339 0.8725,12.8585 0.3753,26.1259 -3.084,38.5411 -4.3178,15.4966 -14.6326,28.6576 -21.582,43.166 -5.8609,12.2359 -12.3138,24.2529 -16.959,37 -5.2931,14.5251 -16.5188,29.8272 -12.332,44.709 6.1045,21.6982 37.3684,27.1463 49.332,46.25 21.1357,33.75 23.2521,76.1772 35.459,114.082 7.4721,23.2024 17.6001,45.6335 23.125,69.375 5.1722,22.2261 1.8168,46.2566 9.25,67.832 6.9763,20.2491 16.017,41.6733 32.373,55.5 22.2317,18.7938 52.8403,27.0855 81.709,30.834 34.8363,4.5234 70.9527,-1.5077 104.8321,-10.793 28.3841,-7.7793 55.3044,-21.2495 80.166,-37 24.3442,-15.4228 53.2054,-29.8218 66.291,-55.498 13.5659,-26.6186 9.9356,-59.7784 6.168,-89.416 -2.8691,-22.5693 -9.9834,-45.1789 -21.584,-64.75 -10.0119,-16.8909 -27.9442,-27.7318 -40.0821,-43.166 -24.7581,-31.4818 -50.2369,-63.5174 -66.2929,-100.209 -11.2422,-25.6909 -14.1752,-54.2844 -20.041,-81.7071 -8.9605,-41.8903 -8.7366,-86.0668 -23.125,-126.416 -5.7169,-16.0318 -17.5078,-29.2668 -24.6661,-44.709 -14.5701,-31.4312 -37.1559,-62.4793 -37,-97.123 0.1714,-38.076 19.7066,-75.2399 41.625,-106.375 15.3054,-21.7413 37.3634,-38.6738 60.125,-52.416 58.4953,-35.3163 124.2092,-60.3721 191.1661,-74 62.4736,-12.7154 127.4836,-9.2392 191.164,-6.166 43.9933,2.1231 86.9981,17.3298 131.041,16.957 38.9525,-0.3297 82.6712,3.8146 115.625,-16.957 16.7598,-10.5641 28.5874,-30.0539 33.1446,-49.334 9.7724,-41.3435 -16.0192,-83.9336 -16.1875,-126.416 -0.1026,-25.8782 10.2583,-51.2234 9.25,-77.0821 -0.8168,-20.9464 -10.2667,-40.8057 -12.3321,-61.666 -1.9241,-19.433 -5.8228,-39.9443 0,-58.584 4.8454,-15.511 19.8849,-25.8619 27.75,-40.082 7.5771,-13.6992 9.118,-30.6357 18.5,-43.168 18.375,-24.5451 48.6844,-37.4667 70.9161,-58.582 12.1312,-11.522 31.172,-20.4957 33.916,-37 2.9438,-17.706 -9.5871,-35.9812 -21.584,-49.332 -22.1533,-24.65346 -56.5579,-34.7715 -86.332,-49.33402 -16.9739,-8.30194 -34.2456,-16.40056 -52.4161,-21.58399 -18.0357,-5.14497 -38.1524,-2.12129 -55.5,-9.25 -19.7811,-8.1287 -41.817,-18.42314 -52.416,-36.99804 -18.9086,-33.13759 -11.6922,-76.00945 -9.25,-114.08399 2.2193,-34.59949 9.3765,-69.29696 21.5821,-101.74804 10.3675,-27.56414 20.9274,-57.78048 43.1679,-77.08399 25.8015,-22.39419 63.2355,-26.00389 95.5821,-37 34.4858,-11.72333 69.7767,-20.94102 104.832,-30.83203 37.9122,-10.69711 75.2462,-24.24705 114.084,-30.83398 98.5453,-16.71335 199.2396,-16.84782 299.08,-21.58204 45.1829,-2.14248 90.4353,-2.56995 135.6661,-3.08398 30.8313,-0.35039 61.9421,-4.11232 92.5,0 78.5933,10.57667 134.9223,15.09805 191.166,30.83203 36.7902,11.28822 71.7943,34.15883 103.2903,56.27089 34.3236,24.09719 70.5877,47.71286 94.0417,82.47911 21.3294,31.61679 17.6787,74.21506 27.75,111 13.3099,48.61365 23.6591,98.44107 43.166,144.91602 21.3648,50.90141 59.3943,93.76773 80.166,144.91405 13.2281,32.5718 21.2637,67.1982 27.75,101.75 7.2457,38.5969 3.8981,78.8116 12.334,117.166 10.9613,49.8363 29.994,97.6947 49.3321,144.916 24.2149,59.1297 59.8637,113.2038 83.25,172.6661 49.6162,126.1544 84.454,257.7483 120.248,388.498 24.5516,89.6831 51.5803,179.2844 64.75,271.3301 5.8301,40.7477 7.9284,82.2089 6.168,123.334 -2.9278,68.3978 -14.0893,136.4143 -27.75,203.498 -7.015,34.4484 -18.861,67.7369 -27.75,101.75 -8.5718,32.7994 -11.9395,67.2453 -24.668,98.666 -8.4719,20.9131 -26.2856,37.3476 -33.916,58.5821 -10.5706,29.417 -9.966,61.7202 -15.416,92.5 -2.917,16.4743 -3.6336,33.5723 -9.25,49.332 -8.6464,24.2616 -23.8052,45.7143 -37,67.834 -12.5594,21.0545 -26.0391,41.5706 -40.0821,61.666 -17.6617,25.2737 -37.6914,48.8296 -55.5,74 -19.2627,27.2255 -30.8626,60.7697 -55.5,83.248 -20.7237,18.9076 -47.953,29.6665 -74,40.084 -47.4553,18.9797 -98.6177,26.8999 -147.998,40.084 -39.0182,10.4175 -77.0449,26.2231 -117.166,30.832 -35.7516,4.1069 -72.1243,-6.8249 -107.916,-3.0839 -30.4953,3.1874 -59.4079,15.2889 -89.4161,21.5839 -28.6104,6.0018 -57.1084,14.7456 -86.3339,15.4161 -39.3816,0.9035 -78.4022,-8.4098 -117.1661,-15.4161 -26.9871,-4.8777 -53.6486,-11.5058 -80.166,-18.5 -38.3603,-10.1179 -77.1857,-19.3369 -114.082,-33.916 -29.9233,-11.8238 -58.0345,-27.8577 -86.334,-43.166 -25.1167,-13.5866 -55.1953,-21.6741 -73.998,-43.166 -17.5953,-20.1119 -28.4398,-47.3852 -30.834,-74 -3.0164,-33.531 18.4732,-65.1436 21.584,-98.666 3.1354,-33.7871 2.858,-68.3421 -3.084,-101.75 -6.2606,-35.1988 -21.1435,-68.3582 -33.916,-101.75 -12.0051,-31.3856 -32.1328,-59.8491 -40.084,-92.4981 -7.0693,-29.0277 -7.604,-59.5745 -6.166,-89.416 0.9027,-18.7334 5.2358,-37.1794 9.25,-55.5 5.0163,-22.894 16.9345,-44.4492 18.5,-67.834 2.0777,-31.0361 -6.6609,-61.9141 -12.334,-92.498 -16.9586,-91.4241 -44.4159,-180.599 -64.75,-271.332 -14.2381,-63.5317 -28.3603,-127.1223 -40.082,-191.1661 -15.5451,-84.9339 19.1798,-193.119 -40.084,-255.914 -31.03,-32.8789 -87.457,-25.5534 -132.5567,-28.6992 -78.5125,-5.4764 -156.8153,14.5325 -235.4648,17.4414 -24.6921,0.9132 -49.8464,-4.5814 -74.127,0 -35.2761,6.6561 -69.8274,20.2525 -100.291,39.2441 -20.0789,12.5176 -40.0411,27.7429 -52.3262,47.9648 -20.3202,33.4481 -29.0952,74.2625 -30.5234,113.3731 -1.4043,38.4572 9.7208,76.834 21.8027,113.3711 13.6747,41.3538 27.3306,85.5545 56.6856,117.7324 17.1361,18.784 46.6811,22.046 65.4082,39.2441 23.7699,21.8291 42.67,49.418 56.6855,78.4883 16.3877,33.9906 22.6305,72.1116 30.5235,109.0117 8.39,39.2238 23.1179,79.2533 17.7969,119.0098 -5.3431,39.922 -21.914,80.4908 -48.668,110.5996 -42.5361,47.87 -104.8873,76.9236 -165.5235,97.5176 -57.0355,19.3711 -119.5371,29.1577 -179.3535,22.0664 -61.7627,-7.322 -127.628,-24.8356 -174.7285,-65.4531 -43.0144,-37.0938 -60.8412,-96.5756 -82.584,-149.0488 -26.3247,-63.5312 -28.7395,-135.575 -56.9511,-198.2911 -26.4269,-58.7484 -81.1025,-102.7798 -103.5938,-163.1445 -37.9657,-101.8967 -5.4566,-222.5869 -47.9648,-322.6738 -9.3189,-21.9417 -19.8151,-55.1404 -43.6036,-56.6856 -26.6661,-1.7321 -44.4947,32.9071 -56.6875,56.6856 -36.9608,72.0816 -14.3072,162.7548 -39.2441,239.8262 -23.0118,71.1217 -52.4804,143.117 -100.291,200.58 -30.8638,37.0948 -84.6487,50.1461 -115.5508,87.209 -100.5276,120.5694 -163.8867,271.1943 -211.4824,420.7852 -36.772,115.5724 -45.3958,238.7995 -54.5059,359.7382 -6.5508,86.9633 0,190.6039 0,261.629 l -22.8933,101.9256 -25.0726,46.875 -43.6047,29.9782 -50.6904,58.8662 -51.2355,34.3387 -126.45346,54.5058 -33.79361,7.0858 -64.86191,18.5319 -86.11919,25.0727 -41.42442,26.1628 -22.89224,19.6221 -209.30233,0 z"
     id="path4837"
     inkscape:connector-curvature="0"
     sodipodi:nodetypes="ssssssssssssssssssssssssssssssssssssssssssssssssssscssssssssssssssssssssssssssssssssssssssssssssssssssssssssssssssssssssssssssssssssssscscsssssssssssssczzzzzzzzzzzzzzzzzzzzzzzzzzzzzzzzzzzzzzzzzzzzzzzzzzcccccccccccccccccccccc" />
  <g
     transform="matrix(1.5150651,-0.8364745,0.8364745,1.5150651,2369.3408,2142.6627)"
     id="g6936">
    <path
       style="fill:#d5d5d5;fill-opacity:1"
       d="m -91.976371,234.01345 c -1.115276,0.0368 -1.594654,1.26793 -1.846222,2.18203 -0.05715,0.41176 -0.452235,0.70974 -0.859923,0.56641 -3.160586,0.0509 -6.353974,0.31443 -9.483674,-0.27883 -3.27273,-0.40197 -6.6139,-0.32162 -9.83551,0.42002 -0.85633,0.21679 -1.69704,0.4895 -2.53699,0.76163 -0.25765,-0.30226 -0.63519,-0.58299 -1.04596,-0.41113 -1.61878,0.22111 -3.34259,-0.10917 -4.88114,0.54489 -0.83828,0.31245 -1.25275,1.16958 -1.3397,2.00497 -0.28423,1.81896 -0.26569,3.66287 -0.4245,5.49719 -0.36915,7.66384 -0.30202,15.3632 0.3717,23.00609 0.0768,0.95531 0.49871,2.02485 1.4988,2.32969 1.47938,0.57835 3.11627,0.27315 4.65727,0.49526 0.35087,0.0394 0.72911,0.10072 0.95532,-0.23302 0.38226,-0.37491 0.83786,0.1191 1.24046,0.16257 4.30674,1.37369 8.90477,1.284 13.33713,0.57961 2.684987,-0.28979 5.382154,0.007 8.071456,-0.01 0.521623,0.92204 0.594606,2.28435 1.743439,2.68432 0.453956,0.20633 1.332717,-0.045 1.081158,-0.66985 -0.187672,-0.67855 -0.636455,-1.26869 -0.71121,-1.98279 9.659838,0.11808 19.320405,-0.12139 28.979529,-0.0875 2.343994,0.20049 4.674565,0.74993 7.021256,0.51606 1.914399,-0.13967 3.821797,-0.46678 5.678605,-0.93124 0.582526,-0.0784 0.99975,0.46108 1.584161,0.4245 0.975294,0.062 1.974779,0.0458 2.930724,0.0845 0.853325,0.0157 1.871895,-0.41575 1.942669,-1.37982 0.221331,-1.28456 0.09334,-2.59726 0.207673,-3.89906 0.186413,-6.67601 0.116095,-13.36085 0.08952,-20.04017 -0.05077,-2.79713 -0.05796,-5.59894 -0.302121,-8.38233 -0.173753,-0.8807 -1.107415,-1.2687 -1.924542,-1.24484 -1.01597,-0.0323 -2.080711,0.0638 -3.117105,0.0883 -0.578988,0.0558 -1.057578,0.60642 -1.652097,0.3564 -1.744599,-0.47416 -3.552707,-0.70316 -5.351901,-0.86428 -2.133808,-0.21707 -4.277342,0.17327 -6.397963,0.44437 -2.112881,0.21789 -4.240601,0.0174 -6.359982,0.0584 -7.412596,-0.0736 -14.834319,-0.12612 -22.241813,-0.11372 -0.317643,-0.0224 -0.950601,0.24818 -1.023077,-0.24622 0.08338,-0.75139 0.81298,-1.38514 0.633418,-2.15316 -0.143903,-0.22422 -0.440362,-0.29169 -0.688858,-0.27984 z"
       id="path6926"
       inkscape:connector-curvature="0"
       sodipodi:nodetypes="cccccccccccccccccccccccccccccccccccccccc" />
    <path
       style="fill:#212121;fill-opacity:1"
       d="m -91.974571,234.42951 c 0.405788,0.0875 0.108458,0.61782 0.05421,0.87858 -0.172188,0.4739 -0.422042,0.92056 -0.529403,1.41679 -0.335257,-0.0744 -1.059803,0.25979 -1.098406,-0.30324 0.366499,-0.65815 0.47812,-1.61393 1.273525,-1.92155 0.102116,-0.0383 0.213026,-0.0501 0.300074,-0.0706 z m 45.423581,2.71427 c 0.65344,0.15712 1.598539,-0.11148 1.91363,0.67143 0.461494,1.15342 0.289052,2.44564 0.428877,3.65769 0.45831,8.07536 0.486145,16.17344 0.06645,24.25115 -0.09488,1.46481 -0.09895,2.9473 -0.339743,4.39565 -0.09529,0.54234 -0.514398,1.15591 -1.141701,1.02413 -0.519854,0.0639 -1.04489,0.11618 -1.558986,0.0125 -0.772182,0.022 -1.600005,0.14742 -2.302593,-0.26808 1.252103,-0.37226 2.603372,-0.12595 3.853483,-0.44474 0.376218,-0.53162 0.273282,-1.26824 0.36127,-1.88694 0.278268,-6.08626 0.08353,-12.19925 0.153437,-18.29673 -0.01641,-3.80957 0.04757,-7.62864 -0.225515,-11.42823 -0.07078,-0.3946 -0.123518,-1.04319 -0.672692,-0.98739 -0.977802,-0.0971 -1.955938,-0.0888 -2.933892,-0.21366 -0.76554,-0.0893 -0.423878,-0.26984 0.119327,-0.38315 0.756705,-0.15315 1.531741,0.0963 2.27865,-0.10366 z m -73.03155,0.5998 c 0.31814,-0.0987 0.49434,0.36126 0.14132,0.40726 -1.04775,0.22283 -2.42321,0.036 -3.03509,1.12639 -0.404,0.93904 -0.1602,1.97658 -0.34759,2.96442 -0.54254,7.82342 -0.57853,15.68906 -0.0192,23.50905 0.12456,1.03911 0.0446,2.14546 0.26191,3.15144 0.39106,1.03219 1.57855,1.1776 2.52276,1.23287 0.41695,0.0274 0.82177,0.14311 1.1563,0.40409 -1.00904,0.1559 -2.06367,0.0264 -3.0548,-0.20926 -1.06556,-0.42117 -1.31183,-1.7128 -1.52954,-2.70362 -0.30194,-2.01193 -0.34356,-4.05301 -0.48602,-6.07977 -0.28832,-6.79551 -0.2472,-13.62029 0.42401,-20.39167 0.17366,-1.05726 0.38067,-2.31067 1.32245,-2.96364 0.81131,-0.4309 1.76787,-0.30828 2.64349,-0.44756 z m -2.76124,8.48585 c 0.44999,0.0973 0.12692,0.68968 0.20468,0.98682 -0.13344,5.00468 -0.1216,10.01308 0.0292,15.01723 -0.48094,-0.02 -0.7361,-0.48912 -0.63835,-0.92276 -0.2423,-4.9397 -0.26229,-9.90647 0.0458,-14.8488 0.0994,-0.0985 0.20577,-0.2303 0.35869,-0.23249 z m 29.915842,25.55248 c 0.162516,0.6765 0.676242,1.30351 0.631657,2.01271 -0.271456,0.37086 -0.766254,-0.0371 -0.988758,-0.28071 -0.384161,-0.47952 -0.537475,-1.11803 -0.761545,-1.66055 0.17449,-0.44883 0.743717,-0.0515 1.064966,-0.2427 l 0.02695,0.086 z"
       id="path6928"
       inkscape:connector-curvature="0"
       sodipodi:nodetypes="ccccccccccccccccccccccccccccccccccccccccccccccccccc" />
    <path
       sodipodi:nodetypes="cccccccccccccccccccccccccccccccccccccccccccccccccccccccccccccccccccccccccccccccccccccccccccccccccccccccccccccccccccccccccccccccccccccccccccccccccccccccccccccccccccccccccccccccccccccccccccccccccccccccccccccccccccccccccccccccccccccccccccccccccccccccccccccccccccccccccccccccccccccccccccccccccccccccccccccccccccccccccccccccccccccccccccc"
       inkscape:connector-curvature="0"
       id="path6864"
       d="m -91.976371,234.01345 c -1.115276,0.0368 -1.594654,1.26793 -1.846222,2.18203 -0.05715,0.41176 -0.452235,0.70974 -0.859923,0.56641 -3.160586,0.0509 -6.353974,0.31443 -9.483674,-0.27883 -3.27273,-0.40197 -6.6139,-0.32162 -9.83551,0.42002 -0.85633,0.21679 -1.69704,0.4895 -2.53699,0.76163 -0.25765,-0.30226 -0.63519,-0.58299 -1.04596,-0.41113 -1.61878,0.22111 -3.34259,-0.10917 -4.88114,0.54489 -0.83828,0.31245 -1.25275,1.16958 -1.3397,2.00497 -0.28423,1.81896 -0.26569,3.66287 -0.4245,5.49719 -0.36915,7.66384 -0.30202,15.3632 0.3717,23.00609 0.0768,0.95531 0.49871,2.02485 1.4988,2.32969 1.47938,0.57835 3.11627,0.27315 4.65727,0.49526 0.35087,0.0394 0.72911,0.10072 0.95532,-0.23302 0.38226,-0.37491 0.83786,0.1191 1.24046,0.16257 4.30674,1.37369 8.90477,1.284 13.33713,0.57961 2.684987,-0.28979 5.382154,0.007 8.071456,-0.01 0.521623,0.92204 0.594606,2.28435 1.743439,2.68432 0.453956,0.20633 1.332717,-0.045 1.081158,-0.66985 -0.187672,-0.67855 -0.636455,-1.26869 -0.71121,-1.98279 9.659838,0.11808 19.320405,-0.12139 28.979529,-0.0875 2.343994,0.20049 4.674565,0.74993 7.021256,0.51606 1.914399,-0.13967 3.821797,-0.46678 5.678605,-0.93124 0.582526,-0.0784 0.99975,0.46108 1.584161,0.4245 0.975294,0.062 1.974779,0.0458 2.930724,0.0845 0.853325,0.0157 1.871895,-0.41575 1.942669,-1.37982 0.221331,-1.28456 0.09334,-2.59726 0.207673,-3.89906 0.186413,-6.67601 0.116095,-13.36085 0.08952,-20.04017 -0.05077,-2.79713 -0.05796,-5.59894 -0.302121,-8.38233 -0.173753,-0.8807 -1.107415,-1.2687 -1.924542,-1.24484 -1.01597,-0.0323 -2.080711,0.0638 -3.117105,0.0883 -0.578988,0.0558 -1.057578,0.60642 -1.652097,0.3564 -1.744599,-0.47416 -3.552707,-0.70316 -5.351901,-0.86428 -2.133808,-0.21707 -4.277342,0.17327 -6.397963,0.44437 -2.112881,0.21789 -4.240601,0.0174 -6.359982,0.0584 -7.412596,-0.0736 -14.834319,-0.12612 -22.241813,-0.11372 -0.317643,-0.0224 -0.950601,0.24818 -1.023077,-0.24622 0.08338,-0.75139 0.81298,-1.38514 0.633418,-2.15316 -0.143903,-0.22422 -0.440362,-0.29169 -0.688858,-0.27984 z m 0.0018,0.41606 c 0.405788,0.0875 0.108458,0.61782 0.05421,0.87858 -0.172188,0.4739 -0.422042,0.92056 -0.529403,1.41679 -0.335257,-0.0744 -1.059803,0.25979 -1.098406,-0.30324 0.366499,-0.65815 0.47812,-1.61393 1.273525,-1.92155 0.09769,-0.0276 0.197138,-0.0672 0.300077,-0.0706 z m -16.222469,2.0275 c 1.38846,0.0151 2.79391,0.0568 4.1617,0.26638 0.78677,0.2505 -0.52127,0.39303 -0.80911,0.36419 -3.31327,0.17925 -6.62806,0.46617 -9.93894,0.60111 -0.77422,-0.0136 0.0982,-0.39293 0.42518,-0.45201 2.00104,-0.56319 4.08681,-0.77695 6.16117,-0.77967 z m 50.889206,0.0363 c 1.849275,0.0587 3.764447,0.0577 5.520404,0.70104 0.773083,0.33816 -0.425888,0.31792 -0.744515,0.26486 -2.559581,-0.17544 -5.133085,-0.23377 -7.684067,-0.48244 -0.770338,-0.0863 0.07626,-0.36819 0.42449,-0.39159 0.822574,-0.118 1.655719,-0.0775 2.483688,-0.0919 z m -25.273004,0.45214 c 3.336753,0.0167 6.674583,-0.0135 10.010079,0.0986 0.0089,0.4252 -0.414397,0.63823 -0.780024,0.51426 -6.062268,-0.0911 -12.144381,-0.0769 -18.20984,-0.0278 -0.387631,0.0823 -0.702796,-0.22301 -0.906568,-0.51285 3.295239,-0.0468 6.590781,-0.071 9.886353,-0.0722 z m -12.059752,0.0403 c 0.411582,0.0441 0.284231,0.68362 -0.108239,0.59153 -0.862046,-0.12863 -1.809211,0.1744 -2.65687,-0.0583 -0.324755,-0.20147 0.0139,-0.55932 0.306941,-0.44915 0.818698,-0.006 1.640879,-0.0417 2.458168,-0.0841 z m 23.197104,0.0276 c 4.255495,0.16731 8.528299,0.25429 12.789839,0.41501 3.683162,0.16666 7.379209,0.17363 11.046458,0.54836 0.914271,0.0436 -0.337635,0.36342 -0.656969,0.49812 -2.627187,0.90272 -5.270958,1.76 -7.69535,3.13682 -1.093793,-0.40996 -2.265762,-0.0708 -3.39483,-0.23337 1.386052,-0.76412 2.909109,-1.23451 4.317942,-1.95253 -0.360808,-0.33657 0.317752,-0.42219 0.285117,-0.23496 -0.171363,-0.68039 -0.992363,-0.74716 -1.519745,-1.03487 -5.250154,-0.12855 -10.492881,-0.48633 -15.742344,-0.56161 0.0316,-0.32439 0.211289,-0.61203 0.569882,-0.58097 z m -26.578736,0.15013 c 0.314218,0.12728 0.167583,0.55962 -0.153998,0.49719 -4.74214,0.1007 -9.48888,0.26786 -14.23052,0.48347 -0.85818,-0.2475 0.43543,-0.4629 0.78617,-0.42304 4.50886,-0.34157 9.02953,-0.49314 13.549421,-0.59282 z m 51.471232,-0.0197 c 0.65344,0.15712 1.598539,-0.11148 1.91363,0.67143 0.461494,1.15342 0.289052,2.44564 0.428877,3.65769 0.45831,8.07536 0.486145,16.17344 0.06645,24.25115 -0.09488,1.46481 -0.09895,2.9473 -0.339743,4.39565 -0.09529,0.54234 -0.514398,1.15591 -1.141701,1.02413 -0.519854,0.0639 -1.04489,0.11618 -1.558986,0.0125 -0.772182,0.022 -1.600005,0.14742 -2.302593,-0.26808 1.252103,-0.37226 2.603372,-0.12595 3.853483,-0.44474 0.376218,-0.53162 0.273282,-1.26824 0.36127,-1.88694 0.278268,-6.08626 0.08353,-12.19925 0.153437,-18.29673 -0.01641,-3.80957 0.04757,-7.62864 -0.225515,-11.42823 -0.07078,-0.3946 -0.123518,-1.04319 -0.672692,-0.98739 -0.977802,-0.0971 -1.955938,-0.0888 -2.933892,-0.21366 -0.76554,-0.0893 -0.423878,-0.26984 0.119327,-0.38315 0.756705,-0.15315 1.531741,0.0963 2.27865,-0.10366 z m -73.03155,0.5998 c 0.31814,-0.0987 0.49434,0.36126 0.14132,0.40726 -1.04775,0.22283 -2.42321,0.036 -3.03509,1.12639 -0.404,0.93904 -0.1602,1.97658 -0.34759,2.96442 -0.54254,7.82342 -0.57853,15.68906 -0.0192,23.50905 0.12456,1.03911 0.0446,2.14546 0.26191,3.15144 0.39106,1.03219 1.57855,1.1776 2.52276,1.23287 0.41695,0.0274 0.82177,0.14311 1.1563,0.40409 -1.00904,0.1559 -2.06367,0.0264 -3.0548,-0.20926 -1.06556,-0.42117 -1.31183,-1.7128 -1.52954,-2.70362 -0.30194,-2.01193 -0.34356,-4.05301 -0.48602,-6.07977 -0.28832,-6.79551 -0.2472,-13.62029 0.42401,-20.39167 0.17366,-1.05726 0.38067,-2.31067 1.32245,-2.96364 0.81131,-0.4309 1.76787,-0.30828 2.64349,-0.44756 z m 16.63043,0.79006 c 0.70031,-0.001 1.40083,8.5e-4 2.10054,0.0329 -2.3421,5.45072 -2.76683,11.49813 -2.64884,17.36483 0.13265,4.73167 0.76094,9.52215 2.65553,13.89423 -5.78153,0.0532 -11.56638,-0.14296 -17.33377,-0.5439 -1.00304,-0.0785 -2.00445,-0.17826 -3.00249,-0.30582 -0.46302,-0.89061 -0.33163,-1.9245 -0.48168,-2.88481 -0.0871,-1.45359 -0.17145,-2.91043 -0.24889,-4.35964 0.20472,-0.51132 0.85604,-0.14387 1.24314,-0.17404 5.44282,0.60192 10.9277,0.83828 16.40175,0.8768 0.40911,-0.11032 -0.79765,-0.0782 -0.56249,-0.1019 -2.97557,-0.0749 -5.95145,-0.22571 -8.92527,-0.37257 -2.48291,-0.1187 -4.95423,-0.40878 -7.41987,-0.69468 -0.4312,0.0362 -0.89744,-0.28635 -0.77685,-0.76232 -0.22399,-4.37489 -0.21714,-8.76191 0.0283,-13.13574 0.72217,-0.41144 1.59464,-0.21526 2.37112,-0.43562 5.11093,-0.63197 10.26892,-0.66814 15.40471,-0.93523 -1.02135,-0.18311 -2.07279,0.0362 -3.10496,-0.01 -4.87203,0.14521 -9.7474,0.36133 -14.58217,0.98243 -0.1959,-0.99426 0.10512,-1.99764 0.0736,-2.99704 0.10595,-1.49028 0.0939,-3.00758 0.48468,-4.4616 0.89596,-0.3654 1.89931,-0.22227 2.83815,-0.38094 5.15094,-0.41529 10.32057,-0.51953 15.48574,-0.59549 z m 4.407878,0.0187 c 0.902959,-0.005 1.840049,0.008 2.65775,0.44844 -0.877988,0.0492 -1.611321,0.58022 -2.085228,1.29236 -1.227581,1.58159 -1.922521,3.48049 -2.47841,5.38115 -0.94882,3.8802 -0.83712,7.92337 -0.7294,11.89847 0.16299,2.82246 0.60861,5.69432 1.865501,8.25377 0.57216,1.26342 1.299011,2.56011 2.488234,3.33297 0.282694,0.0356 0.517643,0.19458 0.679706,0.42873 -1.424249,0.36539 -2.908685,0.23036 -4.356491,0.18586 -2.27882,-5.22699 -2.93045,-11.01948 -2.85258,-16.67619 0.10735,-4.84422 0.85454,-9.74328 2.73748,-14.22894 0.27719,-0.48883 0.956657,-0.20203 1.41186,-0.30553 0.22048,-0.006 0.441009,-0.0104 0.661578,-0.0111 z m 52.600964,0.264 c 0.643716,9.50715 0.634593,19.05475 0.147277,28.569 -0.04653,0.79777 -0.102796,1.59488 -0.162589,2.39174 -3.216644,-0.70546 -6.362462,-1.83091 -9.228823,-3.45713 -0.52228,-0.34776 -0.821585,-0.9657 -0.750855,-1.59037 -0.319386,-4.05907 -0.455483,-8.13611 -0.402129,-12.20686 0.0992,-3.2452 0.108326,-6.51505 0.516399,-9.7341 0.715107,-1.15648 2.154123,-1.42881 3.267845,-2.04559 2.123243,-0.92127 4.331267,-1.65524 6.597035,-2.13367 z m -75.466492,0.36256 c -0.17172,0.41711 -0.16902,0.99788 -0.69265,1.1655 -0.1968,0.11256 -0.0103,-0.42039 -0.003,-0.60319 0.0811,-0.46878 0.39536,-0.8684 0.84303,-1.04349 l -0.14766,0.48118 z m 30.752363,-0.0848 c 5.605903,0.022 11.21324,-0.003 16.817166,0.17213 0.343285,0.49517 0.657323,1.0096 0.969575,1.52467 -4.692765,0.052 -9.390049,0.16263 -14.081096,0.0403 -1.18783,-0.16767 -2.284632,-0.69967 -3.410671,-1.07852 -0.236393,-0.0956 -0.795394,-0.38907 -0.401453,-0.64345 0.03341,-0.013 0.071,-0.0143 0.106479,-0.0151 z m 19.479317,0.2105 c 4.678459,0.0951 9.363862,0.13283 14.028121,0.54647 -1.222147,0.64731 -2.529389,1.47283 -3.980016,1.24526 -3.099373,-0.0467 -6.210193,-0.11951 -9.297473,-0.31968 -0.606825,-0.24735 -0.761634,-0.95911 -1.04279,-1.47786 z m -24.840752,0.53134 c 2.184755,0.43155 4.167082,1.51516 6.207283,2.34429 0.574241,0.2535 0.291303,0.95928 0.291277,1.42788 -0.285665,2.57879 -0.613521,5.15088 -0.660402,7.74651 -0.131969,3.95875 -0.08226,7.94136 0.496544,11.86804 0.07373,0.86503 0.241895,1.73985 0.208914,2.60541 -0.196616,0.50376 -0.841965,0.52781 -1.241668,0.79041 -1.798283,0.66429 -3.499458,1.6712 -5.426556,1.92982 -0.712648,-0.47017 -1.495115,-0.89235 -1.944957,-1.65403 -0.841869,-1.21916 -1.448302,-2.60972 -1.821683,-4.03897 -0.5532,-2.72409 -0.98065,-5.49215 -1.02896,-8.27581 -0.0324,-3.01976 0.41489,-6.02351 1.007121,-8.9766 0.357729,-1.44597 0.980642,-2.83344 1.807267,-4.07121 0.514768,-0.74763 1.265386,-1.32247 2.069916,-1.70278 z m 47.295495,0.59399 c -1.920152,0.66062 -3.872345,1.35532 -5.608186,2.39481 -0.483295,0.46248 -0.666217,1.13604 -0.591057,1.78716 -0.23722,5.91102 -0.186654,11.84086 -0.06215,17.75138 0.06608,0.85906 -0.006,1.74767 0.21831,2.57723 0.408902,0.96459 1.533516,1.16069 2.366157,1.60409 1.356567,0.58409 2.733655,1.18374 4.164964,1.5102 0.810459,-0.36866 0.642704,-1.44771 0.688319,-2.17282 0.104306,-8.06752 0.107964,-16.1396 -0.01865,-24.2051 -0.05888,-0.52443 -0.143712,-1.2938 -0.801847,-1.36452 z m -73.303293,0.14397 c 0.53426,0.19897 0.216,0.8623 0.24261,1.2662 -0.0974,1.24542 -0.2198,2.48696 -0.28908,3.73461 -0.3718,0.16978 -0.69885,-0.19478 -0.58642,-0.55298 0.14046,-1.4347 0.22573,-2.91379 0.41782,-4.34558 0.0422,-0.0727 0.13175,-0.11975 0.21507,-0.10225 z m 73.313853,0.40902 c 0.639901,0.0488 0.602192,0.85259 0.633265,1.31746 0.249789,6.06967 0.407234,12.14682 0.190809,18.22025 -0.07309,2.13031 -0.07669,4.27323 -0.277424,6.39317 -0.0877,0.43431 -0.585584,0.62878 -0.969222,0.43613 -1.282407,-0.42315 -2.511474,-0.99627 -3.770732,-1.48446 -0.698011,-0.30136 -1.478906,-0.78114 -1.506577,-1.63318 -0.179237,-3.94437 -0.392966,-7.91778 -0.322248,-11.88022 0.07757,-2.88031 0.15888,-5.76438 0.394935,-8.6366 0.504103,-1.08658 1.821979,-1.2711 2.788462,-1.74817 0.92721,-0.31273 1.805412,-0.84931 2.781357,-0.98403 l 0.04875,-3.6e-4 0.0086,0 z m -40.519561,0.29937 c 3.328487,1.15321 6.915444,0.5429 10.378441,0.72028 7.296739,0.0178 14.60191,-0.003 21.889087,0.3563 0.05981,-0.16219 -0.174667,-0.43392 0.281422,-0.31451 0.364581,0.0702 0.170749,0.48164 0.08853,0.69661 -0.52995,5.40283 -0.516992,10.88899 -0.405852,16.33493 0.0918,2.292 0.145896,4.60608 0.485227,6.8678 0.336754,0.35043 -0.391504,0.59318 -0.40022,0.176 -0.251802,-0.20505 -0.863228,-0.001 -1.250229,-0.0498 -8.02181,0.38648 -16.055155,0.26878 -24.083102,0.32881 -2.544791,-0.0606 -5.128981,-0.0568 -7.524672,0.88047 0.405036,-0.53874 0.795262,-1.12038 1.039622,-1.74221 0.09548,-0.92164 -0.304392,-1.80718 -0.328714,-2.72746 -0.887808,-7.0421 -0.398362,-13.37932 0.349834,-19.92863 -0.136513,-0.52894 -0.587234,-0.92898 -0.744825,-1.44054 0.02532,-0.10347 0.116411,-0.17906 0.225451,-0.15805 z m -33.111442,4.94714 c 0.44999,0.0973 0.12692,0.68968 0.20468,0.98682 -0.13344,5.00468 -0.1216,10.01308 0.0292,15.01723 -0.48094,-0.02 -0.7361,-0.48912 -0.63835,-0.92276 -0.2423,-4.9397 -0.26229,-9.90647 0.0458,-14.8488 0.0994,-0.0985 0.20577,-0.2303 0.35869,-0.23249 z m 65.513608,12.16465 c -0.111521,0.43094 0.271304,-0.16356 0,0 z m -0.01443,0.97908 c 0.634204,0.22227 0.103966,-0.7931 0,0 z m -65.366828,3.42967 c 0.40265,0.31633 0.069,0.89962 0.22098,1.31906 0.0831,1.16932 0.25919,2.34812 0.24541,3.52864 -0.20923,0.27434 -0.63233,0.0988 -0.57322,-0.2427 -0.042,-1.48846 -0.33982,-2.96664 -0.31926,-4.46156 0.0936,-0.12438 0.27976,-0.23123 0.42609,-0.14344 z m 66.348898,4.00273 c 2.652841,1.573 5.673427,2.35711 8.531009,3.46832 0.174792,0.17389 -0.807372,0.17701 -1.143675,0.22352 -5.570277,0.40816 -11.157041,0.43796 -16.735433,0.67451 -2.181839,0.0734 -4.36389,0.14311 -6.546836,0.17406 -0.287934,-0.19624 -0.13543,-0.63939 0.215422,-0.57112 5.124247,-0.0897 10.259913,-0.3872 15.38102,-0.58114 0.509102,-0.2409 1.341617,-0.44358 1.412386,-1.02942 -0.08595,0.39481 -0.612286,0.01 -0.283885,-0.20415 -1.100777,-0.57325 -2.291161,-0.95345 -3.408384,-1.49564 -0.506767,-0.21425 -1.284007,-0.56167 -0.278604,-0.50195 0.933456,-0.0266 1.898926,0.15425 2.785348,-0.19817 z m -4.5089,0.46622 c 1.197397,0.0282 2.194633,0.79391 3.249104,1.26086 -4.764188,0.42332 -9.550276,0.45502 -14.328902,0.55386 0.245482,-0.68644 0.669593,-1.66248 1.561281,-1.5523 3.171235,-0.0881 6.344637,-0.23891 9.518517,-0.26242 z m -25.160718,0.21103 c 4.229107,0.059 8.460433,0.0127 12.68983,0.11352 -0.44525,0.45462 -0.571227,1.25565 -1.180421,1.52872 -5.759223,0.17424 -11.521742,0.14716 -17.282857,0.16579 0.986359,-0.92179 2.362858,-1.10944 3.573821,-1.57871 0.715991,-0.19113 1.461729,-0.23235 2.199627,-0.22932 z m -36.303,0.71807 c 0.38667,0.3965 0.32241,1.02477 0.57252,1.49563 -0.69916,-0.26368 -0.9779,-1.06851 -0.85728,-1.75664 z m 0.60649,1.60035 c -0.0383,-0.0541 -0.046,-0.19466 0,0 z m 9.0824,0.43102 c 4.87029,0.28391 9.75277,0.36624 14.630035,0.52747 -0.301789,0.44701 -0.838876,0.62903 -1.349555,0.49367 -4.51386,-0.14598 -9.04253,-0.26963 -13.54835,-0.65348 -0.75645,-0.18587 -0.0983,-0.36577 0.26787,-0.36766 z m -2.29819,0.46077 c 3.46659,0.22069 6.94665,0.41792 10.40289,0.68083 0.74867,0.16502 -0.2807,0.39581 -0.58648,0.37614 -3.40244,0.3088 -6.93488,0.30936 -10.20779,-0.76572 -0.76916,-0.3158 0.0798,-0.2764 0.39138,-0.29125 z m 17.510779,0.0581 c 0.788274,0.13228 1.599653,-0.0141 2.382137,0.14415 0.465463,0.0817 0.01127,0.63073 -0.319085,0.50846 -0.964717,-0.11932 -1.954303,-0.0382 -2.9309,-0.13975 0.234984,-0.26663 0.482013,-0.53949 0.867848,-0.51286 z m 23.964457,0.0716 c 0.450323,-0.0438 0.416586,0.73179 -0.04259,0.57551 -6.502175,0.0331 -13.019951,0.0873 -19.527363,-0.0405 0.321028,-0.40362 0.832297,-0.62097 1.334243,-0.46745 6.070229,-0.0285 12.159813,0.0486 18.235712,-0.0676 z m 21.499249,0.16948 c -0.950667,0.578 -2.120864,0.62975 -3.202642,0.78478 -1.721069,0.13748 -3.462523,0.16582 -5.181213,0.0136 -0.299383,0.0504 -0.524981,-0.37191 -0.150831,-0.42415 2.71458,-0.17575 5.437718,-0.34254 8.149793,-0.45494 z m -40.957973,0.78971 c 0.162516,0.6765 0.676242,1.30351 0.631657,2.01271 -0.271456,0.37086 -0.766254,-0.0371 -0.988758,-0.28071 -0.384161,-0.47952 -0.537475,-1.11803 -0.761545,-1.66055 0.17449,-0.44883 0.743717,-0.0515 1.064966,-0.2427 l 0.02695,0.086 z"
       style="fill-opacity:1" />
    <path
       style="fill:#99c1ff;fill-opacity:1"
       d="m -90.657397,239.0941 c 5.605903,0.022 11.21324,-0.003 16.817166,0.17213 0.343285,0.49517 0.657323,1.0096 0.969575,1.52467 -4.692765,0.052 -9.390049,0.16263 -14.081096,0.0403 -1.18783,-0.16767 -2.284632,-0.69967 -3.410671,-1.07852 -0.236393,-0.0956 -0.795394,-0.38907 -0.401453,-0.64345 0.03341,-0.013 0.071,-0.0143 0.106479,-0.0151 z m 19.479317,0.2105 c 4.678459,0.0951 9.363862,0.13283 14.028121,0.54647 -1.222147,0.64731 -2.529389,1.47283 -3.980016,1.24526 -3.099373,-0.0467 -6.210193,-0.11951 -9.297473,-0.31968 -0.606825,-0.24735 -0.761634,-0.95911 -1.04279,-1.47786 z m -24.840752,0.53134 c 2.184755,0.43155 4.167082,1.51516 6.207283,2.34429 0.574241,0.2535 0.291303,0.95928 0.291277,1.42788 -0.285665,2.57879 -0.613521,5.15088 -0.660402,7.74651 -0.131969,3.95875 -0.08226,7.94136 0.496544,11.86804 0.07373,0.86503 0.241895,1.73985 0.208914,2.60541 -0.196616,0.50376 -0.841965,0.52781 -1.241668,0.79041 -1.798283,0.66429 -3.499458,1.6712 -5.426556,1.92982 -0.712648,-0.47017 -1.495115,-0.89235 -1.944957,-1.65403 -0.841869,-1.21916 -1.448302,-2.60972 -1.821683,-4.03897 -0.5532,-2.72409 -0.98065,-5.49215 -1.02896,-8.27581 -0.0324,-3.01976 0.41489,-6.02351 1.007121,-8.9766 0.357729,-1.44597 0.980642,-2.83344 1.807267,-4.07121 0.514768,-0.74763 1.265386,-1.32247 2.069916,-1.70278 z m 47.306055,1.14698 c 0.639901,0.0488 0.602192,0.85259 0.633265,1.31746 0.249789,6.06967 0.407234,12.14682 0.190809,18.22025 -0.07309,2.13031 -0.07669,4.27323 -0.277424,6.39317 -0.0877,0.43431 -0.585584,0.62878 -0.969222,0.43613 -1.282407,-0.42315 -2.511474,-0.99627 -3.770732,-1.48446 -0.698011,-0.30136 -1.478906,-0.78114 -1.506577,-1.63318 -0.179237,-3.94437 -0.392966,-7.91778 -0.322248,-11.88022 0.07757,-2.88031 0.15888,-5.76438 0.394935,-8.6366 0.504103,-1.08658 1.821979,-1.2711 2.788462,-1.74817 0.92721,-0.31273 1.805412,-0.84931 2.781357,-0.98403 l 0.04875,-3.6e-4 0.0086,0 z m -11.658655,26.28886 c 1.197397,0.0282 2.194633,0.79391 3.249104,1.26086 -4.764188,0.42332 -9.550276,0.45502 -14.328902,0.55386 0.245482,-0.68644 0.669593,-1.66248 1.561281,-1.5523 3.171235,-0.0881 6.344637,-0.23891 9.518517,-0.26242 z m -25.160718,0.21103 c 4.229107,0.059 8.460433,0.0127 12.68983,0.11352 -0.44525,0.45462 -0.571227,1.25565 -1.180421,1.52872 -5.759223,0.17424 -11.521742,0.14716 -17.282857,0.16579 0.986359,-0.92179 2.362858,-1.10944 3.573821,-1.57871 0.715991,-0.19113 1.461729,-0.23235 2.199627,-0.22932 z"
       id="path6930"
       inkscape:connector-curvature="0"
       sodipodi:nodetypes="cccccccccccccccccccccccccccccccccccccccccccccccccccccc" />
    <path
       sodipodi:nodetypes="cccccccccc"
       inkscape:connector-curvature="0"
       id="path6932"
       d="m -121.40976,239.1789 c -0.17172,0.41711 -0.16902,0.99788 -0.69265,1.1655 -0.1968,0.11256 -0.0103,-0.42039 -0.003,-0.60319 0.0811,-0.46878 0.39536,-0.8684 0.84303,-1.04349 l -0.14766,0.48118 z m -0.42539,29.02198 c 0.38667,0.3965 0.32241,1.02477 0.57252,1.49563 -0.69916,-0.26368 -0.9779,-1.06851 -0.85728,-1.75664 z"
       style="fill:#c85900;fill-opacity:1" />
    <path
       sodipodi:nodetypes="cccccccccccc"
       inkscape:connector-curvature="0"
       id="path6934"
       d="m -122.02663,240.5739 c 0.53426,0.19897 0.216,0.8623 0.24261,1.2662 -0.0974,1.24542 -0.2198,2.48696 -0.28908,3.73461 -0.3718,0.16978 -0.69885,-0.19478 -0.58642,-0.55298 0.14046,-1.4347 0.22573,-2.91379 0.41782,-4.34558 0.0422,-0.0727 0.13175,-0.11975 0.21507,-0.10225 z m -0.1848,22.22893 c 0.40265,0.31633 0.069,0.89962 0.22098,1.31906 0.0831,1.16932 0.25919,2.34812 0.24541,3.52864 -0.20923,0.27434 -0.63233,0.0988 -0.57322,-0.2427 -0.042,-1.48846 -0.33982,-2.96664 -0.31926,-4.46156 0.0936,-0.12438 0.27976,-0.23123 0.42609,-0.14344 z"
       style="fill:#99c1ff;fill-opacity:1" />
  </g>
  <g
     id="g7031"
     style="stroke:#c1c800;stroke-opacity:1">
    <rect
       y="365.88593"
       x="3523.8555"
       height="135.65428"
       width="363.30661"
       id="rect7023"
       style="opacity:1;fill:none;fill-opacity:1;stroke:#c1c800;stroke-width:5.23731756;stroke-linecap:butt;stroke-linejoin:miter;stroke-miterlimit:4;stroke-dasharray:none;stroke-dashoffset:0;stroke-opacity:1"
       transform="matrix(0.99935226,0.03598696,-0.03598696,0.99935226,0,0)" />
    <path
       inkscape:connector-curvature="0"
       id="path7027"
       d="M 3505.2192,620.49475 3628.9199,505.39337 3745.1351,630.29118 3868.4368,515.5611"
       style="fill:none;fill-rule:evenodd;stroke:#c1c800;stroke-width:5;stroke-linecap:butt;stroke-linejoin:miter;stroke-miterlimit:4;stroke-dasharray:none;stroke-opacity:1" />
    <path
       style="fill:none;fill-rule:evenodd;stroke:#c1c800;stroke-width:5;stroke-linecap:butt;stroke-linejoin:miter;stroke-miterlimit:4;stroke-dasharray:none;stroke-opacity:1"
       d="m 3509.4772,502.24919 115.1014,123.70072 124.8978,-116.21527 114.7301,123.30168"
       id="path7029"
       inkscape:connector-curvature="0" />
  </g>
  <path
     style="fill:none;fill-rule:evenodd;stroke:#dcdcdc;stroke-width:5;stroke-linecap:butt;stroke-linejoin:miter;stroke-miterlimit:4;stroke-dasharray:none;stroke-opacity:1"
     d="m 3067.5551,1740.7436 -2.6866,-77.2887"
     id="path9640"
     inkscape:connector-curvature="0"
     sodipodi:nodetypes="cc" />
  <g
     transform="matrix(0.02620253,0.70143763,-0.97221686,0.01890467,3492.0983,1514.5315)"
     id="g10348">
    <path
       style="color:#000000;font-style:normal;font-variant:normal;font-weight:normal;font-stretch:normal;font-size:medium;line-height:normal;font-family:sans-serif;text-indent:0;text-align:start;text-decoration:none;text-decoration-line:none;text-decoration-style:solid;text-decoration-color:#000000;letter-spacing:normal;word-spacing:normal;text-transform:none;direction:ltr;block-progression:tb;writing-mode:lr-tb;baseline-shift:baseline;text-anchor:start;white-space:normal;clip-rule:nonzero;display:inline;overflow:visible;visibility:visible;opacity:1;isolation:auto;mix-blend-mode:normal;color-interpolation:sRGB;color-interpolation-filters:linearRGB;solid-color:#000000;solid-opacity:1;fill:#dcdcdc;fill-opacity:1;fill-rule:nonzero;stroke:none;stroke-width:6.27472258;stroke-linecap:butt;stroke-linejoin:miter;stroke-miterlimit:4;stroke-dasharray:none;stroke-dashoffset:0;stroke-opacity:1;color-rendering:auto;image-rendering:auto;shape-rendering:auto;text-rendering:auto;enable-background:accumulate"
       d="m 253.95853,468.43244 c -3.00167,0 -5.63606,3.30345 -7.35157,7.87038 -1.7155,4.56694 -2.66601,10.47857 -2.66601,16.87315 l 0,32.89402 c 0,6.39458 0.95051,12.30621 2.66601,16.87315 1.71551,4.56694 4.3499,7.8744 7.35157,7.8744 3.20068,0 5.75074,-3.92564 7.40039,-8.56262 1.64965,-4.63695 2.61718,-10.30177 2.61718,-16.18493 l 0,-32.89402 c 0,-5.88316 -0.96753,-11.54396 -2.61718,-16.18094 -1.64965,-4.63696 -4.19971,-8.56259 -7.40039,-8.56259 z m 0,12.8519 c 0.5993,0 1.48948,0.91819 2.33007,3.28102 0.8406,2.3628 1.41407,5.8591 1.41407,8.61061 l 0,32.89402 c 0,2.75151 -0.57347,6.24782 -1.41407,8.61064 -0.84059,2.3628 -1.73077,3.28099 -2.33007,3.28099 -0.79833,0 -1.60417,-0.79439 -2.37891,-2.85687 -0.77474,-2.06249 -1.36328,-5.31321 -1.36328,-9.03476 l 0,-32.89402 c 0,-3.72155 0.58854,-6.96827 1.36328,-9.03075 0.77474,-2.06249 1.58058,-2.86088 2.37891,-2.86088 z"
       id="path10205"
       inkscape:connector-curvature="0" />
    <path
       style="color:#000000;font-style:normal;font-variant:normal;font-weight:normal;font-stretch:normal;font-size:medium;line-height:normal;font-family:sans-serif;text-indent:0;text-align:start;text-decoration:none;text-decoration-line:none;text-decoration-style:solid;text-decoration-color:#000000;letter-spacing:normal;word-spacing:normal;text-transform:none;direction:ltr;block-progression:tb;writing-mode:lr-tb;baseline-shift:baseline;text-anchor:start;white-space:normal;clip-rule:nonzero;display:inline;overflow:visible;visibility:visible;opacity:1;isolation:auto;mix-blend-mode:normal;color-interpolation:sRGB;color-interpolation-filters:linearRGB;solid-color:#000000;solid-opacity:1;fill:#dcdcdc;fill-opacity:1;fill-rule:nonzero;stroke:none;stroke-width:6.2750001;stroke-linecap:butt;stroke-linejoin:miter;stroke-miterlimit:4;stroke-dasharray:none;stroke-dashoffset:0;stroke-opacity:1;color-rendering:auto;image-rendering:auto;shape-rendering:auto;text-rendering:auto;enable-background:accumulate"
       d="m 267.33324,468.43244 0,82.92526 6.27539,0 0,-28.30062 3.74415,0 c 3.20074,0 5.75072,-3.92559 7.40039,-8.56261 1.64966,-4.63702 2.61718,-10.2977 2.61718,-16.18094 l 0,-5.13756 c 0,-5.88322 -0.96751,-11.54394 -2.61718,-16.18094 -1.64968,-4.63698 -4.19967,-8.56259 -7.40039,-8.56259 l -10.01954,0 z m 6.27539,12.85592 3.74415,0 c 0.59926,0 1.48755,0.91426 2.32812,3.277 0.84057,2.36271 1.41406,5.85918 1.41406,8.61061 l 0,5.13756 c 0,2.75145 -0.57348,6.24787 -1.41406,8.61063 -0.84058,2.36276 -1.72888,3.277 -2.32812,3.277 l -3.74415,0 0,-28.9128 z"
       id="path10208"
       inkscape:connector-curvature="0" />
    <g
       id="g10214"
       transform="matrix(1,0,0,2.0486243,-73.630199,-455.8148)"
       style="fill:#dcdcdc;fill-opacity:1">
      <path
         inkscape:connector-curvature="0"
         style="color:#000000;font-style:normal;font-variant:normal;font-weight:normal;font-stretch:normal;font-size:medium;line-height:normal;font-family:sans-serif;text-indent:0;text-align:start;text-decoration:none;text-decoration-line:none;text-decoration-style:solid;text-decoration-color:#000000;letter-spacing:normal;word-spacing:normal;text-transform:none;direction:ltr;block-progression:tb;writing-mode:lr-tb;baseline-shift:baseline;text-anchor:start;white-space:normal;clip-rule:nonzero;display:inline;overflow:visible;visibility:visible;opacity:1;isolation:auto;mix-blend-mode:normal;color-interpolation:sRGB;color-interpolation-filters:linearRGB;solid-color:#000000;solid-opacity:1;fill:#dcdcdc;fill-opacity:1;fill-rule:evenodd;stroke:none;stroke-width:7.05779982;stroke-linecap:butt;stroke-linejoin:miter;stroke-miterlimit:4;stroke-dasharray:none;stroke-dashoffset:0;stroke-opacity:1;color-rendering:auto;image-rendering:auto;shape-rendering:auto;text-rendering:auto;enable-background:accumulate"
         d="m 296.33929,451.15506 0,7.05859 6.23828,0 0,33.4707 6.27344,0 0,-33.4707 6.23828,0 0,-7.05859 -18.75,0 z"
         id="path10210" />
    </g>
    <path
       style="color:#000000;font-style:normal;font-variant:normal;font-weight:normal;font-stretch:normal;font-size:medium;line-height:normal;font-family:sans-serif;text-indent:0;text-align:start;text-decoration:none;text-decoration-line:none;text-decoration-style:solid;text-decoration-color:#000000;letter-spacing:normal;word-spacing:normal;text-transform:none;direction:ltr;block-progression:tb;writing-mode:lr-tb;baseline-shift:baseline;text-anchor:start;white-space:normal;clip-rule:nonzero;display:inline;overflow:visible;visibility:visible;opacity:1;isolation:auto;mix-blend-mode:normal;color-interpolation:sRGB;color-interpolation-filters:linearRGB;solid-color:#000000;solid-opacity:1;fill:#dcdcdc;fill-opacity:1;fill-rule:nonzero;stroke:none;stroke-width:6.27472258;stroke-linecap:butt;stroke-linejoin:miter;stroke-miterlimit:4;stroke-dasharray:none;stroke-dashoffset:0;stroke-opacity:1;color-rendering:auto;image-rendering:auto;shape-rendering:auto;text-rendering:auto;enable-background:accumulate"
       d="m 212.88738,468.43244 c -3.00167,0 -5.63085,4.27919 -6.71485,9.09876 -1.08399,4.81957 -1.30273,10.10842 -1.30273,15.62877 0,6.07735 0.88703,11.04174 2.29102,14.27233 1.40399,3.23062 2.82327,4.62051 3.8457,6.1899 0.81916,1.25739 1.85323,3.66149 2.5664,6.12586 0.71318,2.46439 1.0586,5.07952 1.0586,5.89781 0,4.58119 -0.32227,8.44492 -0.72852,10.25113 -0.40625,1.80619 -0.21729,1.6245 -1.01562,1.62448 -0.59931,0 -0.53298,0.078 -0.98828,-2.06061 -0.45531,-2.13858 -0.75391,-6.05889 -0.75391,-9.82701 l -6.27539,0 c 0,4.86655 0.2424,10.10337 1.27734,14.96457 1.03495,4.8612 3.53955,9.77898 6.74024,9.77898 3.00167,0 5.63084,-4.28326 6.71484,-9.10277 1.084,-4.81951 1.30274,-10.10863 1.30274,-15.62877 0,-4.62686 -0.83602,-8.65909 -1.9336,-12.45181 -1.09758,-3.7927 -2.5043,-7.25137 -4.20312,-9.859 -1.49556,-2.29561 -2.51512,-3.51339 -2.92188,-4.44935 -0.40676,-0.93595 -0.70117,-1.70132 -0.70117,-5.72574 0,-4.58144 0.32031,-8.44087 0.72656,-10.24712 0.40626,-1.80627 0.2173,-1.62851 1.01563,-1.62851 0.5993,0 0.53493,-0.074 0.99023,2.06464 0.4553,2.13858 0.75391,6.05887 0.75391,9.82699 l 6.27344,0 c 0,-4.86655 -0.24045,-10.10337 -1.27539,-14.96457 -1.03495,-4.8612 -3.54151,-9.77896 -6.74219,-9.77896 z"
       id="path10218"
       inkscape:connector-curvature="0" />
  </g>
</svg>
