<?xml version="1.0" encoding="UTF-8" standalone="no"?>
<!-- Created with Inkscape (http://www.inkscape.org/) -->

<svg
   xmlns:dc="http://purl.org/dc/elements/1.1/"
   xmlns:cc="http://creativecommons.org/ns#"
   xmlns:rdf="http://www.w3.org/1999/02/22-rdf-syntax-ns#"
   xmlns:svg="http://www.w3.org/2000/svg"
   xmlns="http://www.w3.org/2000/svg"
   xmlns:sodipodi="http://sodipodi.sourceforge.net/DTD/sodipodi-0.dtd"
   xmlns:inkscape="http://www.inkscape.org/namespaces/inkscape"
   width="1010.4"
   height="1241.0079"
   id="svg2"
   sodipodi:version="0.32"
   inkscape:version="0.91 r13725"
   version="1.0"
   sodipodi:docname="game-over.svg"
   inkscape:output_extension="org.inkscape.output.svg.inkscape">
  <defs
     id="defs4">
    <inkscape:perspective
       sodipodi:type="inkscape:persp3d"
       inkscape:vp_x="0 : 300.5 : 1"
       inkscape:vp_y="0 : 1000 : 0"
       inkscape:vp_z="601 : 300.5 : 1"
       inkscape:persp3d-origin="300.5 : 200.33333 : 1"
       id="perspective3380" />
    <inkscape:perspective
       id="perspective3990"
       inkscape:persp3d-origin="375 : 250 : 1"
       inkscape:vp_z="750 : 375 : 1"
       inkscape:vp_y="0 : 1000 : 0"
       inkscape:vp_x="0 : 375 : 1"
       sodipodi:type="inkscape:persp3d" />
  </defs>
  <sodipodi:namedview
     id="base"
     pagecolor="#ffffff"
     bordercolor="#666666"
     borderopacity="1.0"
     gridtolerance="10000"
     guidetolerance="10"
     objecttolerance="10"
     inkscape:pageopacity="0.0"
     inkscape:pageshadow="2"
     inkscape:zoom="0.22096287"
     inkscape:cx="-14.408948"
     inkscape:cy="884.14731"
     inkscape:document-units="px"
     inkscape:current-layer="layer1"
     width="601px"
     height="601px"
     inkscape:window-width="1600"
     inkscape:window-height="848"
     inkscape:window-x="0"
     inkscape:window-y="0"
     showgrid="false"
     fit-margin-top="0.2"
     fit-margin-left="0.2"
     fit-margin-right="0.2"
     fit-margin-bottom="0.2"
     inkscape:window-maximized="1"
     showguides="true"
     inkscape:guide-bbox="true" />
  <metadata
     id="metadata7">
    <rdf:RDF>
      <cc:Work
         rdf:about="">
        <dc:format>image/svg+xml</dc:format>
        <dc:type
           rdf:resource="http://purl.org/dc/dcmitype/StillImage" />
        <dc:title></dc:title>
      </cc:Work>
    </rdf:RDF>
  </metadata>
  <g
     inkscape:label="Layer 1"
     inkscape:groupmode="layer"
     id="layer1"
     transform="translate(1515.529,3241.075)">
    <rect
       style="color:#000000;display:inline;overflow:visible;visibility:visible;fill:#000000;fill-opacity:1;fill-rule:nonzero;stroke:none;stroke-width:0.8735441;marker:none"
       id="rect3653"
       width="0"
       height="27.202072"
       x="578.73834"
       y="298.1684"
       rx="249.48199"
       ry="27.202072" />
    <path
       inkscape:connector-curvature="0"
       id="path3940"
       d="m -1219.5067,-2230.8749 -295.8223,-295.8221 10e-5,-418.3556 295.822,-295.8224 418.35567,3e-4 295.82223,295.8221 -2e-4,418.3558 -295.82203,295.822 z"
       style="fill:#000000;fill-opacity:1;stroke:none" />
    <path
       inkscape:connector-curvature="0"
       id="path3942"
       d="m -1217.4357,-2235.875 -292.8933,-292.8932 10e-5,-414.2135 292.8931,-292.8935 414.21349,3e-4 292.8933,292.8932 -2e-4,414.2136 -292.8931,292.8932 z"
       style="fill:#ffffff;fill-opacity:1;stroke:none" />
    <path
       style="fill:#cf181f;fill-opacity:1;stroke:none"
       d="m -1196.7251,-2285.875 -263.6039,-263.6038 10e-5,-372.7922 263.6038,-263.6041 372.79211,4e-4 263.60399,263.6037 -1.9e-4,372.7923 -263.6038,263.6038 z"
       id="path3944"
       inkscape:connector-curvature="0" />
    <path
       id="path4558"
       style="fill:#ffffff;fill-opacity:1;fill-rule:evenodd;stroke:none"
       d="m -1353.857,-2664.4692 0,18.0453 c 0,0.74 0,1.4789 0,1.8421 0.3757,6.6292 2.9578,13.2583 7.0053,18.4085 3.6843,4.787 8.0951,8.0951 13.6215,10.3134 5.8897,2.5687 12.5188,3.3081 19.148,2.5687 6.6291,-0.3633 13.2582,-2.2054 18.4084,-6.2529 5.5135,-3.3211 9.574,-8.8346 11.7794,-15.1005 0.74,-1.8421 1.4789,-4.0475 1.8422,-5.8896 0,-0.739 0.3632,-1.8422 0.3632,-2.5816 l 0,-39.3986 c 0,-1.1027 0,-1.8292 0,-2.9449 -0.3632,-3.6713 -1.8422,-7.7188 -3.6843,-11.0399 -1.8292,-3.6842 -4.0475,-6.9923 -7.3556,-9.9372 -1.8422,-1.8421 -4.0475,-3.321 -6.6291,-4.4237 -0.739,-0.3633 -1.8422,-1.1027 -2.9449,-1.4659 l -45.6515,-17.6821 c -0.7389,-0.3632 -1.4789,-0.3632 -2.2183,-0.7264 -5.8897,-2.2184 -11.0399,-4.787 -15.8269,-8.4713 -9.1978,-6.2659 -16.9426,-13.9977 -22.8323,-23.1955 -6.6161,-10.3134 -11.0399,-22.0928 -11.7793,-34.2483 0,-0.7265 -0.3633,-1.8292 -0.3633,-2.9449 l 0,-28.7089 c 0,-1.4789 0,-2.9449 0.3633,-4.4238 0.3757,-8.8345 2.9448,-16.9425 6.6291,-25.0376 5.5264,-12.1556 13.9848,-23.1955 24.6744,-31.2905 11.4031,-9.2108 25.4009,-15.1004 40.125,-16.9426 12.1556,-2.2054 25.0377,-1.4789 37.1932,2.2054 15.0875,4.0475 29.0852,12.5188 39.7619,24.3111 8.4712,9.1978 14.7242,19.8745 18.0322,31.6538 1.4789,4.787 2.5816,9.9502 2.9578,14.7372 0,1.1027 0,2.2054 0.3633,3.3081 l 0,21.7165 -50.4385,0 0,-18.0322 c 0,-0.739 0,-1.1027 -0.3757,-1.8422 -0.3632,-4.0475 -1.1027,-7.7318 -2.5686,-11.4161 -2.5816,-5.5264 -7.3686,-10.3134 -12.5188,-13.6215 -5.1632,-3.3081 -11.0529,-5.1502 -17.3058,-5.5264 -8.4713,-0.7265 -17.3058,1.8421 -24.2982,7.7318 -5.5264,3.6843 -9.574,9.574 -11.0529,15.4636 -0.7389,2.2184 -1.1027,4.787 -1.1027,7.0054 0,0.3632 -0.3632,1.1027 -0.3632,1.8421 l 0,21.7166 c 0,0.3632 0,1.1027 0.3632,1.8421 0.3633,4.4238 1.466,8.4713 3.6843,12.5189 1.8422,3.6842 4.4238,7.3556 7.3686,9.9372 1.8292,1.8421 4.0475,3.308 5.8897,4.4237 0.7265,0.3632 1.4659,0.7265 2.2054,1.1027 l 38.2829,14.361 c 0.7389,0.3632 1.4789,0.7399 2.2184,1.1027 5.5134,2.5686 11.0399,4.4107 16.5663,6.9923 6.9924,3.6843 13.2583,8.4713 18.7717,13.9977 7.0054,6.253 12.5188,13.6215 16.5793,22.4561 4.0476,8.4712 6.6162,17.669 7.3557,27.243 0,0.7399 0,1.4789 0.3756,2.2054 l 0,42.7196 c -0.3756,0.3632 -0.3756,1.1027 -0.3756,1.8421 -0.74,6.253 -1.466,12.5059 -3.3081,18.7718 -3.3211,12.882 -11.0529,24.6743 -20.9901,33.8721 -8.8345,9.2107 -19.8744,15.8399 -32.03,19.5112 -12.5188,4.787 -26.1403,6.2659 -39.7618,4.787 -17.3058,-1.8422 -34.9878,-8.4583 -48.2331,-20.2507 -11.0529,-8.8345 -19.8874,-20.9771 -23.935,-34.6116 -2.5816,-6.6291 -3.6842,-13.6215 -4.4237,-20.9771 0,-0.7389 0,-1.4789 0,-2.2183 l 0,-21.3534 50.4385,0"
       inkscape:connector-curvature="0" />
    <path
       id="path4560"
       style="fill:#ffffff;fill-opacity:1;fill-rule:evenodd;stroke:none"
       d="m -1146.1875,-2568.003 0,-290.8645 -60.0124,0 0,-44.925 170.1001,0 0,44.925 -59.6492,0 0,290.8645 -50.4385,0"
       inkscape:connector-curvature="0" />
    <path
       id="path4562"
       style="fill:#ffffff;fill-opacity:1;fill-rule:evenodd;stroke:none"
       d="m -955.47354,-2826.098 0,179.6741 c 0,0.74 0.3768,1.8421 0.3768,2.5816 0.7265,6.2529 2.9448,12.5188 6.6161,17.669 4.4238,5.8897 10.6897,9.9372 17.682,11.7794 6.9924,2.2183 14.7242,2.2183 21.7166,-0.3633 6.2659,-2.2183 11.7923,-5.8896 15.8399,-11.0528 2.9448,-3.6843 5.1502,-7.7319 6.2529,-12.5188 0.739,-1.8292 1.1027,-4.0476 1.1027,-5.8897 0,-0.7265 0,-1.466 0,-2.2054 l 0,-180.0374 c 0,-0.7399 0,-1.4789 0,-2.5816 -0.7389,-5.1632 -2.5686,-10.3134 -5.5135,-14.7371 -4.0605,-5.8897 -10.3134,-10.3005 -17.3058,-12.5059 -7.3686,-2.9448 -15.1004,-2.9448 -22.469,-0.7389 -6.6161,1.8421 -12.5188,5.8897 -16.5663,11.0399 -2.9448,3.321 -5.1502,7.7318 -6.2529,11.7793 -0.739,2.2184 -1.1027,4.0606 -1.1027,6.2659 -0.3768,0.739 -0.3768,1.4789 -0.3768,1.8422 z m -50.43836,-2.5816 c 0.3632,-0.7265 0.3632,-1.8422 0.3632,-2.5687 1.1027,-12.1555 4.787,-23.9349 11.05286,-34.2483 6.9924,-12.5188 18.0323,-22.8322 30.564,-29.8246 9.9373,-5.8897 21.3534,-9.574 32.7565,-10.6767 14.361,-1.8421 29.0981,-0.3632 42.3435,5.1502 15.1004,5.5265 27.9824,15.4637 37.5564,28.3587 9.2107,11.7794 15.1004,25.7641 15.8398,40.1251 0,0.7399 0,1.8421 0,2.5816 l 0,186.3032 c 0,1.1027 0,2.2054 -0.3756,2.9449 -1.1027,9.9372 -3.3081,19.5111 -7.7319,28.3586 -7.3686,16.1902 -20.9901,30.1879 -37.5564,37.9197 -12.1426,6.2529 -25.7641,9.574 -39.3986,9.1978 -13.9847,0.3757 -27.9825,-2.5687 -40.1251,-9.1978 -11.0528,-5.5264 -20.6268,-13.2583 -28.3457,-23.1955 -8.108,-9.9501 -13.99766,-22.0927 -15.47656,-34.6116 -0.7265,-2.9448 -0.7265,-6.2658 -1.1027,-9.2107 0,-0.7265 0,-1.8421 -0.3632,-2.5686 l 0,-184.8373"
       inkscape:connector-curvature="0" />
    <path
       id="path4564"
       style="fill:#ffffff;fill-opacity:1;fill-rule:evenodd;stroke:none"
       d="m -729.77164,-2858.5042 0,113.4087 31.6668,0 c 0.7264,0 1.8421,0 2.9448,0 5.5264,-0.3767 11.0399,-2.2184 15.8269,-5.1632 4.787,-2.9448 8.4713,-6.6291 11.0529,-11.0399 2.5686,-4.0475 4.4107,-8.8345 4.7869,-13.6215 0,-0.74 0,-1.4789 0,-1.8421 l 0,-50.8147 c 0,-1.1027 -0.3767,-2.5687 -0.3767,-3.6714 -0.7389,-5.5264 -3.3081,-11.0528 -7.3556,-15.4766 -4.0605,-4.774 -9.9502,-8.4583 -15.8399,-10.3004 -2.5686,-0.74 -5.1502,-1.1027 -8.095,-1.4789 -0.739,0 -1.8422,0 -2.9449,0 l -31.6667,0 z m -50.0752,290.5012 0,-335.7895 85.4262,0 c 1.466,0 2.5687,0 3.6714,0.3767 9.2107,0.7265 18.0452,2.9449 26.5165,6.6292 11.7794,4.787 22.8322,13.2453 30.9273,23.5587 5.8897,6.9924 10.3134,15.4636 13.2583,23.9349 1.4659,5.1502 2.5686,10.6767 3.308,15.8269 0.3757,1.4789 0.3757,2.5816 0.3757,3.6843 l 0,55.2255 c 0,0.3757 0,1.1027 0,1.8421 0,9.2107 -2.9448,18.4085 -7.3686,26.8798 -5.8896,11.7793 -14.3609,22.456 -25.4008,29.8246 -9.9502,7.3686 -22.0928,12.1556 -34.6116,14.3609 -2.5816,0.739 -5.5264,1.1027 -8.4713,1.466 -1.4789,0 -2.9448,0 -4.4237,0 l -33.1327,0 0,132.1805 -50.0753,0"
       inkscape:connector-curvature="0" />
    <g
       id="g6115"
       transform="matrix(0.77841249,0,0,0.77841249,105.50932,-561.24868)">
      <rect
         style="opacity:1;fill:#ffffff;fill-opacity:1;stroke:#000000;stroke-width:5;stroke-linecap:butt;stroke-linejoin:miter;stroke-miterlimit:4;stroke-dasharray:none;stroke-dashoffset:0;stroke-opacity:1"
         id="rect6113"
         width="999.2735"
         height="219.66122"
         x="-1933.1162"
         y="-2070.8191"
         rx="77.295151"
         ry="77.295151" />
      <rect
         ry="63.361961"
         rx="59.386864"
         y="-2058.0537"
         x="-1918.6827"
         height="194.13026"
         width="970.40656"
         id="rect4269"
         style="opacity:1;fill:none;fill-opacity:1;stroke:#000000;stroke-width:8;stroke-linecap:butt;stroke-linejoin:miter;stroke-miterlimit:4;stroke-dasharray:none;stroke-dashoffset:0;stroke-opacity:1" />
      <path
         id="path4519"
         d="m -1645.7099,-2023.483 c 5.9697,0 11.9393,0.011 17.9089,-0.022 9.6953,43.2155 19.3477,86.431 28.9141,129.6679 -6.6997,0 -13.3994,0 -20.0884,0 -1.7394,-9.3087 -3.4788,-18.6175 -5.2396,-27.9156 -7.913,0.011 -15.8367,-0.021 -23.7497,0.011 -1.7072,9.3088 -3.4572,18.6068 -5.2288,27.9049 -6.6139,-0.01 -13.2062,0 -19.8093,0 9.0725,-43.2262 18.1666,-86.4417 27.2928,-129.6465 m 9.5557,39.4469 c -2.8237,14.9563 -5.6475,29.9126 -8.5035,44.8582 5.6583,-0.043 11.3166,-0.032 16.9856,0 -2.7594,-14.967 -5.6583,-29.9019 -8.4821,-44.8582 z"
         style="opacity:1;fill:#000000"
         inkscape:connector-curvature="0" />
      <path
         id="path4537"
         d="m -1591.7676,-2023.498 c 5.7656,0.022 11.5313,0 17.2969,0.01 8.1814,22.6546 16.3306,45.3306 24.512,67.9852 8.0848,-22.6009 15.8905,-45.3092 23.7927,-67.9637 5.7764,-0.043 11.5528,-0.011 17.3292,-0.021 0,43.2155 -0.011,86.4202 0.011,129.6357 -6.1844,0.021 -12.358,0 -18.5316,0.01 0.011,-25.9615 -0.011,-51.923 0.011,-77.8845 -6.0555,17.9841 -12.0466,35.9896 -18.1022,53.9737 -3.2425,0.022 -6.4742,0.022 -9.706,0.011 -4.4772,-13.2277 -8.9974,-26.4447 -13.4746,-39.6724 -1.428,-4.0048 -2.448,-8.1921 -4.4665,-11.9393 -0.3651,25.1563 -0.064,50.334 -0.1503,75.501 -6.1844,0.021 -12.3581,0 -18.5317,0.01 0.011,-43.2155 -0.011,-86.4417 0.011,-129.6572 z"
         style="opacity:1;fill:#000000"
         inkscape:connector-curvature="0" />
      <path
         id="path4545"
         d="m -1492.6852,-2023.5045 c 18.4135,0.053 36.8378,0.01 55.2514,0.022 0.021,5.7227 0.011,11.4454 0.011,17.1788 -12.2614,0 -24.512,0.011 -36.7627,-0.01 -0.021,12.7124 -0.021,25.4247 0,38.137 10.8227,-0.022 21.6454,-0.011 32.468,-0.011 0,5.9053 0,11.8105 0,17.7157 -10.8226,0 -21.6453,0.011 -32.468,-0.01 -0.021,12.6264 -0.011,25.2421 -0.011,37.8578 12.2614,0.011 24.5227,-0.021 36.7841,0.022 -0.021,6.2488 -0.011,12.5083 -0.011,18.7679 -18.4351,0 -36.8593,0 -55.2944,0 0.022,-43.2262 -0.043,-86.4525 0.032,-129.6679 z"
         style="opacity:1;fill:#000000"
         inkscape:connector-curvature="0" />
      <path
         id="path4525"
         d="m -1346.652,-2023.9385 c 11.1984,-2.1259 23.5887,2.2547 30.4494,11.4776 4.4988,5.5831 6.2918,12.8412 6.3347,19.906 -0.053,23.2451 0.1074,46.4902 -0.075,69.7245 -0.2255,12.6372 -8.933,24.5335 -20.9904,28.3988 -14.8489,5.0784 -33.5416,-2.6305 -38.9744,-17.7157 -2.7164,-6.0126 -2.2118,-12.7767 -2.2333,-19.1973 -0.01,-20.0241 0.021,-40.0482 -0.021,-60.0722 -1.224,-15.3214 10.522,-29.8697 25.5105,-32.5217 m 1.9004,18.7679 c -6.8393,1.9004 -9.6416,9.3517 -8.89,15.8689 0.064,21.495 -0.022,42.99 0.043,64.485 -0.032,6.0448 4.2733,12.6909 10.7583,13.0237 7.1936,1.2992 14.6556,-4.5738 14.398,-12.0359 0.1288,-23.2558 0.033,-46.5224 0.043,-69.7782 0.5046,-8.0633 -8.89,-14.7201 -16.3521,-11.5635 z"
         style="opacity:1;fill:#000000"
         inkscape:connector-curvature="0" />
      <path
         id="path4539"
         d="m -1308.7173,-2023.4862 c 6.5387,-0.021 13.0774,-0.011 19.6268,-0.011 4.8423,29.6656 9.8349,59.2884 14.6879,88.9541 5.2395,-29.6228 9.9852,-59.3207 15.1281,-88.9541 6.6353,0 13.2706,0 19.9059,0 -8.9437,43.1725 -18.0377,86.3235 -26.7989,129.539 -5.4328,0.204 -10.8656,0.076 -16.2877,0.097 -8.6431,-43.237 -17.619,-86.3988 -26.2621,-129.625 z"
         style="opacity:1;fill:#000000"
         inkscape:connector-curvature="0" />
      <path
         id="path4545-6"
         d="m -1235.5622,-2023.5045 c 18.4136,0.053 36.8379,0.01 55.2514,0.022 0.022,5.7227 0.011,11.4454 0.011,17.1788 -12.2614,0 -24.512,0.011 -36.7627,-0.01 -0.022,12.7124 -0.022,25.4247 0,38.137 10.8227,-0.022 21.6453,-0.011 32.468,-0.011 0,5.9053 0,11.8105 0,17.7157 -10.8227,0 -21.6453,0.011 -32.468,-0.01 -0.022,12.6264 -0.01,25.2421 -0.01,37.8578 12.2614,0.011 24.5228,-0.021 36.7842,0.022 -0.022,6.2488 -0.01,12.5083 -0.01,18.7679 -18.4351,0 -36.8594,0 -55.2944,0 0.022,-43.2262 -0.043,-86.4525 0.032,-129.6679 z"
         style="opacity:1;fill:#000000"
         inkscape:connector-curvature="0" />
      <path
         id="path4501"
         d="m -1173.9616,-2023.5414 c 11.7567,0.1825 23.5349,-0.1611 35.2917,0.1718 15.0422,0.7945 27.6042,14.6986 27.4754,29.6549 -0.2899,8.5465 1.1166,17.4902 -2.2225,25.6287 -2.4158,6.3454 -7.4084,11.2736 -12.97,14.967 6.646,19.7127 13.0022,39.5328 19.6053,59.267 -6.5602,0.021 -13.1203,-0.064 -19.6805,0.053 -6.0555,-18.4779 -11.746,-37.074 -17.6083,-55.6057 -3.7901,-0.011 -7.5801,0 -11.3595,-0.053 -0.1181,18.5316 -0.032,37.0633 -0.043,55.5949 -6.1844,0.022 -12.3581,0 -18.5317,0.01 0.032,-43.2262 -0.053,-86.4524 0.043,-129.6893 m 18.4779,17.4902 c 0,13.4209 0,26.8419 0,40.2628 7.4299,-0.6871 16.4273,2.2333 22.354,-3.7149 4.5631,-5.1429 3.1888,-12.4869 3.425,-18.7786 0.4295,-5.8408 -0.2469,-13.0237 -5.9696,-16.1803 -6.1844,-2.856 -13.2385,-1.1274 -19.8094,-1.589 z"
         style="opacity:1;fill:#000000"
         inkscape:connector-curvature="0" />
      <path
         sodipodi:nodetypes="cccccccccccccccccccccc"
         inkscape:connector-curvature="0"
         id="path5428"
         d="m -1727.9468,-1991.2362 c -0.1032,-3.2938 0.7204,-6.6246 2.7405,-9.2622 3.3194,-5.8927 11.1423,-8.2159 17.0866,-7.5597 5.0692,0.3216 13.5193,5.8349 15.3206,10.5311 0.7591,3.448 0.2704,7.0112 0.3865,10.5108 l 15.4684,0 c 0.065,-6.0342 0.3336,-12.3246 -2.111,-17.9855 -2.6246,-5.5969 -4.7158,-10.6289 -10.1582,-13.6781 -7.3168,-4.4581 -13.7194,-6.489 -22.2117,-6.6441 -6.6051,-0.1206 -7.2647,0.8947 -13.5071,2.786 -8.0155,2.3286 -12.7744,9.6997 -17.0202,16.3259 -3.1008,4.799 -3.5001,10.7046 -3.4751,16.2629 0.077,21.898 -0.078,43.7954 0.077,65.6936 0,21.5893 11.0709,32.2484 33.5648,32.2484 25.5925,0 34.789,-11.2271 34.789,-35.5156 0.1415,-12.7633 0.027,-25.5138 0.065,-38.2639 l -36.1362,2e-4 0,16.4046 c 6.2272,0 12.4405,-0.028 18.6678,0.024 -0.064,8.3114 0.052,18.6375 -0.039,26.962 0,18.0582 -33.4573,17.4126 -33.4573,0.064 -0.096,-23.9665 -0.01,-48.7603 -0.05,-68.9044 z"
         style="opacity:1;fill:#000000" />
    </g>
  </g>
</svg>
