<?xml version="1.0" encoding="UTF-8" standalone="no"?>
<!-- Created with Inkscape (http://www.inkscape.org/) -->

<svg
   xmlns:dc="http://purl.org/dc/elements/1.1/"
   xmlns:cc="http://creativecommons.org/ns#"
   xmlns:rdf="http://www.w3.org/1999/02/22-rdf-syntax-ns#"
   xmlns:svg="http://www.w3.org/2000/svg"
   xmlns="http://www.w3.org/2000/svg"
   xmlns:sodipodi="http://sodipodi.sourceforge.net/DTD/sodipodi-0.dtd"
   xmlns:inkscape="http://www.inkscape.org/namespaces/inkscape"
   id="svg4216"
   version="1.1"
   inkscape:version="0.91 r13725"
   width="150"
   height="76.404625"
   viewBox="0 0 150 76.404625"
   sodipodi:docname="saxo.svg">
  <metadata
     id="metadata4222">
    <rdf:RDF>
      <cc:Work
         rdf:about="">
        <dc:format>image/svg+xml</dc:format>
        <dc:type
           rdf:resource="http://purl.org/dc/dcmitype/StillImage" />
        <dc:title></dc:title>
      </cc:Work>
    </rdf:RDF>
  </metadata>
  <defs
     id="defs4220" />
  <sodipodi:namedview
     pagecolor="#ffffff"
     bordercolor="#666666"
     borderopacity="1"
     objecttolerance="10"
     gridtolerance="10"
     guidetolerance="10"
     inkscape:pageopacity="0"
     inkscape:pageshadow="2"
     inkscape:window-width="1600"
     inkscape:window-height="848"
     id="namedview4218"
     showgrid="false"
     inkscape:zoom="6.1645834"
     inkscape:cx="81.929933"
     inkscape:cy="37.095572"
     inkscape:window-x="0"
     inkscape:window-y="0"
     inkscape:window-maximized="1"
     inkscape:current-layer="svg4216"
     fit-margin-top="0"
     fit-margin-left="0"
     fit-margin-right="0"
     fit-margin-bottom="0" />
  <path
     style="fill:#000000"
     d="m 93.014305,4.1e-4 c 0.60049,0.004 1.33434,0.258 2.05327,0.75934 1.39556,0.9732 3.08335,3.20586 3.0759,4.069 -0.003,0.33735 0.1182,0.48568 0.87898,0.55662 l 9.592115,-0.26079 c 5.84184,-0.15883 13.1358,-0.17565 16.20844,-0.037 3.07264,0.13861 6.9566,0.30228 8.63105,0.3634 1.29665,0.0473 2.79923,0.21877 4.2487,0.46151 0.9086,0.10921 1.64615,0.22447 2.12235,0.34538 0.57087,0.14496 1.08495,0.30026 1.55572,0.47052 0.83025,0.24197 1.5079,0.49518 1.91812,0.73982 4.50624,2.68744 6.79801,13.22079 6.69791,30.73551 0.1001,17.51475 -2.19167,28.04807 -6.69791,30.73551 -0.4108,0.245 -1.08974,0.49905 -1.92163,0.74132 -0.46983,0.16977 -0.98275,0.32442 -1.55221,0.46902 -0.47645,0.12098 -1.21457,0.23662 -2.12385,0.34588 -1.44899,0.24261 -2.95102,0.4142 -4.2472,0.46151 -1.67445,0.0611 -5.55841,0.22429 -8.63105,0.36291 -3.07264,0.13861 -10.3666,0.12228 -16.20844,-0.0365 l -9.597125,-0.26079 c -0.75689,0.0711 -0.87686,0.21941 -0.87397,0.55611 0.007,0.86315 -1.68034,3.09631 -3.0759,4.06951 -0.78124,0.54479 -1.57869,0.79412 -2.20494,0.75183 -1.53257,0.0636 -1.82538,-1.29445 -0.69176,-3.57746 0.39245,-0.79037 0.64515,-1.50677 0.56112,-1.59226 -0.084,-0.0855 -7.71471,-0.25389 -16.95677,-0.37442 C 53.721615,70.56827 33.199605,70.01543 18.894285,69.3242 5.9885053,68.7006 5.9367153,68.69007 4.0954153,66.32238 c -0.73293,-0.94246 -1.07643,-1.5569 -1.5362,-3.48436 -0.46904,-1.64003 -0.89064,-3.77832 -1.24989,-6.27694 -1.19494002,-6.50527 -1.38721002,-9.51405 -1.28592002,-18.18713 6.7e-4,-0.057 0.002,-0.11324 0.003,-0.17019 -7.2e-4,-0.0568 -0.002,-0.11287 -0.003,-0.16969 -0.10128,-8.67273 0.0906,-11.68189 1.28542002,-18.18662 0.35926,-2.49884 0.78133,-4.63725 1.25039,-6.27745 0.45981,-1.92775 0.80322,-2.54234 1.5362,-3.48485 1.8413,-2.36769 1.89309,-2.37822 14.7988697,-3.00182 14.30532,-0.69123 34.82733,-1.24358 56.88094,-1.5312 9.24206,-0.12053 16.87273,-0.28892 16.95677,-0.37441 0.084,-0.0855 -0.16867,-0.8024 -0.56112,-1.59276 C 91.037625,1.30269 91.329855,-0.05471 92.861135,0.008 92.911535,0.005 92.961745,0 93.014305,0 Z m -0.20773,0.84343 c -0.0257,0.001 -0.0496,0.006 -0.0741,0.01 -0.30484,0.19622 -0.19501,0.86862 0.29733,2.11234 0.70706,1.78616 1.44842,2.73804 3.45932,4.44342 0.46098,0.39094 0.82652,0.6469 1.09722,0.77936 0.2566,-2e-5 0.33286,-0.2318 0.1867,-0.71229 -0.12027,-0.39541 -0.42144,-1.43325 -0.66924,-2.30655 -0.58555,-2.06367 -3.08057,-4.39311 -4.29725,-4.32629 z M 121.9233,6.09315 c -7.27384,-0.008 -16.67658,0.0738 -17.8898,0.21173 -1.46693,0.16676 -1.65717,0.28141 -1.93214,1.16229 -0.15062,0.48256 -0.36484,0.86225 -0.77686,1.22185 -0.10422,0.11618 -0.21137,0.21407 -0.31585,0.28382 -0.0562,0.0375 -0.17168,0.0954 -0.32035,0.16468 -0.912385,0.53586 -2.414045,1.1036 -5.002045,1.98069 -0.61741,0.20925 -1.11864,0.38518 -1.67335,0.57614 -2.79697,0.99909 -6.11462,2.22563 -8.16403,3.01534 -0.56742,0.22663 -1.11627,0.44309 -1.73292,0.69527 -0.86074,0.35199 -1.57065,0.62678 -2.2595,0.84843 -0.55996,0.21241 -1.121,0.42466 -1.32546,0.49405 -0.19922,0.0676 -1.09861,0.15275 -2.46423,0.24327 -1.49085,0.14705 -3.43059,0.24126 -6.30147,0.3574 -3.92132,0.15862 -6.97194,0.24134 -9.29229,0.25077 -4.61257,0.10909 -5.24492,0.005 -5.80542,-0.37892 -0.70316,-0.48198 -1.98779,-0.56825 -10.09717,-0.67524 -1.41145,-0.0186 -2.80336,-0.0472 -4.13758,-0.0801 -2.60955,-0.0381 -4.5369,-0.0983 -6.01966,-0.21975 -0.58115,-0.034 -1.04986,-0.0683 -1.30595,-0.10111 -2.31976,-0.29753 -4.40046,-1.21341 -7.34563,-3.23358 -2.08651,-1.43118 -2.72375,-2.4414 -2.09381,-3.31867 0.55457,-0.77231 4.86169,-1.08254 16.86266,-1.21534 10.59423,-0.11722 12.13643,-0.26133 12.12892,-1.13326 -10e-4,-0.11173 -0.0123,-0.20146 -0.0516,-0.2733 -5.93609,-0.0187 -41.3251,1.42555 -42.27578,1.72591 -0.22085,0.0698 -0.40487,0.46669 -0.40845,0.88198 -0.002,0.24687 0.016,0.46205 0.0996,0.67074 0.91745,0.84285 3.09893,1.84851 7.13089,3.39576 8.26736,3.17256 8.58908,3.33773 9.34234,4.78329 0.0595,0.11423 0.11623,0.23674 0.17119,0.3619 0.20309,0.31777 0.36674,0.65693 0.49104,1.02363 l 0.35089,1.03515 3.73263,0.0255 c 2.05301,0.0142 8.56327,-0.0678 14.46701,-0.1822 2.39567,-0.0464 5.06715,-0.0847 7.65797,-0.11613 7.42757,-0.14925 15.18135,-0.28753 19.3409,-0.32386 l 9.52404,-0.0836 -0.20873,-1.43158 c -0.1898,-1.30122 -0.12203,-1.5137 0.74482,-2.32908 0.90079,-0.8473 5.7994,-2.98913 13.29321,-5.81193 2.560005,-0.96431 3.366215,-1.14109 4.265725,-0.93654 0.61008,0.13874 1.10972,0.39644 1.11023,0.57264 8e-5,0.0356 0.004,0.0677 0.007,0.10061 0.0887,0.0378 0.23314,0.0719 0.41446,0.10361 0.0328,-0.03 0.0813,-0.0485 0.14566,-0.049 0.0982,-7.7e-4 0.18563,0.0396 0.24828,0.10261 1.36255,0.15886 4.31058,0.22634 9.53805,0.22425 7.27994,-0.003 13.6773,0.24709 19.83295,0.77135 0.28539,0.0228 0.57741,0.0454 0.84443,0.0691 7.13434,0.63379 6.7877,0.68392 5.34442,-0.76885 -0.34541,-0.34767 -0.60889,-0.64802 -0.79989,-0.91601 -2.6e-4,-5.2e-4 -7.7e-4,-10e-4 -0.001,-0.002 -0.53754,-0.58226 -0.52712,-0.82302 -0.2773,-1.35901 0.34825,-0.74718 0.30702,-0.79704 -0.82041,-0.99009 -0.65296,-0.11181 -2.3388,-0.41851 -3.74615,-0.68126 -0.75892,-0.14169 -1.55618,-0.28122 -2.2575,-0.39894 -0.0126,-0.002 -0.0175,-0.002 -0.03,-0.005 -0.35941,-0.051 -0.69139,-0.0951 -0.98158,-0.13014 -0.48641,-0.0586 -1.24985,-0.1111 -2.17741,-0.15768 -1.58138,-0.032 -4.00783,-0.0493 -6.79753,-0.0526 z M 89.454865,6.39749 c -3.25323,-0.006 -8.65209,0.0777 -18.078,0.24677 -14.16657,0.25416 -15.90423,0.35621 -15.78347,0.92753 0.005,0.0234 0.015,0.0427 0.0215,0.0651 0.92388,0.27092 4.61571,0.24401 19.44151,0.11613 4.57808,-0.0395 7.88685,-0.0693 10.58121,-0.10061 2.75632,-0.0453 5.0826,-0.0892 6.61982,-0.12814 2.6e-4,-10e-6 7.7e-4,0 0.001,0 2.39695,-0.10087 2.256,-0.26018 1.96367,-0.57764 -0.3385,-0.36763 -0.72048,-0.5181 -4.76727,-0.54911 z m 10.597235,0.002 c -0.880945,-0.008 -1.602585,0.0529 -1.603285,0.13414 -7.7e-4,0.0812 0.31395,0.44613 0.69877,0.8109 0.60751,0.57585 0.63783,0.71969 0.23076,1.09171 -0.0972,0.0888 -0.51571,0.28635 -1.14827,0.55111 -0.55401,0.26311 -1.26302,0.54561 -2.11784,0.83593 -0.0353,0.012 -0.10748,0.0382 -0.14516,0.051 -0.67831,0.25423 -1.40375,0.51908 -2.1649,0.78687 -2.80899,0.98828 -7.07538,2.56828 -9.48099,3.51089 l -4.37384,1.71389 -0.2708,0.01 -0.75233,0.28332 -10.32993,0.21424 -5.95159,0.12363 c -1.43375,0.0479 -2.72627,0.0897 -2.96478,0.0911 l -1.04115,0.006 0,-0.014 -0.37241,0.008 -0.032,-3.71361 c -0.0225,-2.60582 -0.0687,-3.41151 -0.33136,-3.65454 l -0.64221,-0.006 c -1.28453,-0.0111 -1.44103,0.0659 -1.43709,0.70828 0.009,1.50339 1.17163,6.7548 1.54771,6.99174 0.2162,0.13621 0.91328,0.20516 1.54921,0.15267 0.63593,-0.0525 4.25638,-0.16114 8.0454,-0.24127 9.87179,-0.20878 12.11942,-0.32719 15.81801,-1.6278 l 2.5328,-0.97708 c 3.16111,-1.21962 7.81342,-2.92413 10.33844,-3.7882 1.41581,-0.48449 2.48279,-0.87223 3.29565,-1.21734 0.0818,-0.0349 0.15585,-0.0684 0.23325,-0.10262 1.628065,-0.71997 2.136695,-1.27012 2.396665,-2.1689 0.0184,-0.0637 0.0309,-0.11622 0.0435,-0.16918 -0.0866,-0.31066 -0.44885,-0.38527 -1.57023,-0.39494 z m 41.94191,1.4471 c -0.006,0.004 -0.0136,0.008 -0.019,0.013 -0.0739,0.0751 0.27804,0.40914 0.78237,0.74182 1.92129,1.26737 3.65938,5.14311 4.72673,10.54066 0.27827,1.40721 0.56617,2.91885 0.63971,3.35872 0.0252,0.1507 0.0501,0.20522 0.0726,0.1792 0.0259,-0.0847 0.0416,-0.29535 0.0535,-0.64722 0.13482,-3.96833 -3.1346,-12.27836 -5.37995,-13.67413 C 142.4589,8.10311 142.17464,7.93711 141.994,7.84657 Z M 89.558985,8.04531 c -1.22152,0.007 -1.54628,0.0437 -0.65473,0.0976 1.18874,0.0719 3.13498,0.0884 4.32479,0.037 1.1898,-0.0514 0.21715,-0.11013 -2.16139,-0.13065 -0.59464,-0.005 -1.1015,-0.006 -1.50867,-0.004 z M 140.4498,8.25404 c -0.39854,0.0145 -0.7329,0.18439 -0.95256,0.5451 -0.10698,0.17568 -0.085,0.38967 0.0951,0.69727 0.0683,0.0548 0.14474,0.11366 0.23176,0.1782 0.46525,0.3451 1.1389,1.11087 1.49715,1.70188 0.0217,0.0357 0.0441,0.0665 0.0661,0.10061 0.81159,0.72655 1.51585,1.13001 2.29804,1.32297 0.63097,0.15565 0.9664,0.23094 1.12875,0.20122 C 145.2067,12.40165 143.14135,9.6347 141.52049,8.62695 141.31174,8.49716 141.13494,8.39857 140.97088,8.3136 140.78877,8.2693 140.61379,8.2481 140.44981,8.254 Z M 95.840435,8.41071 c -0.17488,0.009 -0.37726,0.1536 -0.6342,0.44249 -0.0993,0.11165 -0.17115,0.20109 -0.22926,0.28031 -0.15622,0.36778 0.214,0.41894 0.98159,0.0836 0.27497,-0.20085 0.38588,-0.46969 0.17319,-0.67875 -0.0913,-0.0898 -0.1864,-0.13315 -0.29132,-0.12764 z m -84.90245,0.19021 c -0.26311,-0.004 -0.62424,0.0147 -1.0887097,0.0621 -1.05814,0.10789 -2.36973,0.32836 -2.91472,0.49004 -1.25745,0.37306 -2.14022,1.15813 -2.85116,2.73303 -0.0317,0.0738 -0.0646,0.14193 -0.0956,0.21874 -0.008,0.0195 -0.0159,0.0409 -0.024,0.0606 -0.34734,0.8752 -0.65314,1.94543 -0.95656,3.2576 -0.0477,0.20637 -0.0909,0.40333 -0.13665,0.60517 -0.10046,0.48508 -0.20047,0.99249 -0.29933,1.54421 -1.18518,6.61439 -1.71046002,12.83114 -1.72741002,20.63183 0.0169,7.80092 0.54221002,14.01729 1.72741002,20.63183 0.0992,0.55379 0.19949,1.06305 0.30033,1.54971 0.0453,0.20022 0.0883,0.39549 0.13565,0.60017 0.30358,1.31286 0.60949,2.38314 0.95706,3.2586 0.008,0.0189 0.0152,0.0394 0.023,0.0581 0.0311,0.0772 0.0643,0.14563 0.0961,0.21974 0.71093,1.57489 1.59371,2.36047 2.85116,2.73352 0.54499,0.16169 1.85658,0.38216 2.91472,0.49005 0.6971897,0.0711 1.1539997,0.0754 1.4030597,0.0375 -0.19369,-0.14295 -0.78193,-0.31148 -1.7804697,-0.43849 -4.30975,-0.54816 -5.3238,-2.29478 -6.57478,-11.32553 -1.24351,-8.97689 -1.32115,-10.06926 -1.24037,-17.81521 -0.0808,-7.74545 -0.003,-8.83803 1.24037,-17.81471 1.25098,-9.03075 2.26503,-10.77738 6.57478,-11.32553 C 10.470665,8.93695 11.058795,8.76797 11.252335,8.625 11.169235,8.6123 11.069795,8.603 10.937985,8.601 Z m 78.0834,0.35189 c -2.58864,-0.011 -6.57685,0.0183 -12.69855,0.0711 l -13.9159,0.12013 c -0.1255,0.006 -0.30112,0.0115 -0.38442,0.017 l -2.60639,0.17369 -0.20472,1.40406 c -0.11263,0.77216 -0.12039,2.28605 -0.017,3.36472 l 0.17169,1.79198 4.98401,-0.0671 c 2.15523,-0.0842 5.29412,-0.18097 7.91076,-0.24027 3.4891,-0.0791 5.54112,-0.19111 7.29357,-0.52858 1.29208,-0.37584 3.15035,-0.99729 5.04908,-1.69588 1.2403,-0.51444 3.24474,-1.27036 4.94348,-1.86606 0.98263,-0.3717 2.67782,-1.0158 2.94075,-1.11323 0.61366,-0.22741 1.1609,-0.66065 1.21635,-0.96257 0.0588,-0.32037 -0.36828,-0.45062 -4.68269,-0.46902 z m -34.11925,0.23576 -0.84944,0.0145 -2.53831,0.11012 c -1.95161,0.0847 -6.28814,0.21986 -9.63667,0.30033 -8.7252,0.20968 -14.20546,0.48498 -14.45099,0.72631 -0.47275,0.46467 0.27771,1.28063 2.59738,2.82362 1.86699,1.24188 2.90735,1.88838 4.84035,2.23898 0.83856,0.13921 1.85835,0.22986 3.09193,0.30934 1.87404,0.0935 4.37167,0.12097 7.93027,0.15167 6.13016,0.0529 8.9629,0.0173 9.85991,-0.14566 l -0.1812,-1.14878 c -0.11775,-0.74784 -0.31485,-2.26456 -0.43848,-3.37022 l -0.22475,-2.01023 z m -45.1679797,0.73031 -0.19722,0.0125 c -1.19299,0.0765 -2.21273,0.34803 -2.72952,0.7263 -0.45374,0.33211 -1.07709,1.02571 -1.38503,1.54121 -0.44904,0.75168 -1.13258,3.27081 -1.29394,4.44642 0.0907,-0.22586 0.19521,-0.56503 0.29033,-0.96207 0.98512,-4.11227 2.06367,-5.40395 4.74825,-5.68529 0.20081,-0.021 0.38929,-0.0487 0.56713,-0.0791 z m 0.7222997,0.68976 c -0.22319,-0.005 -0.4772397,0.0115 -0.7843697,0.0426 -0.7936,0.0802 -1.77587,0.35279 -2.18292,0.60567 -1.01947,0.63335 -1.92798,2.19002 -2.18742,3.74915 -0.11956,0.71854 -0.55029,1.95264 -0.95756,2.74203 -0.47738,0.9253 -0.88534,2.57204 -1.14827,4.63513 -0.2243,1.76008 -0.48798,3.81205 -0.58565,4.55955 -0.0977,0.7475 -0.0624,1.54047 0.0786,1.76245 0.17511,0.27577 0.23614,4.88801 0.21023,9.49901 0.0259,4.61117 -0.0351,9.22322 -0.21023,9.49901 -0.14095,0.22198 -0.17625,1.01545 -0.0786,1.76295 0.0977,0.7475 0.36135,2.79897 0.58565,4.55904 0.26293,2.0631 0.67089,3.71034 1.14827,4.63563 0.40727,0.7894 0.838,2.023 0.95756,2.74154 0.25944,1.55913 1.16795,3.1163 2.18742,3.74965 0.40705,0.25288 1.38932,0.52546 2.18292,0.60567 1.2285197,0.12417 1.6082497,0.0123 2.5563297,-0.75334 0.61647,-0.49782 3.82173,-1.9456 7.18044,-3.24308 6.71289,-2.59322 7.7993,-3.02925 8.39229,-3.75416 0.32157,-0.53183 0.54043,-1.16712 0.62269,-1.83753 0.0117,-0.12976 0.023,-0.26666 0.033,-0.42197 0.002,-0.0607 0.005,-0.12121 0.005,-0.1822 -0.002,-0.64092 0.0326,-8.6248 0.0731,-17.36121 -0.0404,-8.73639 -0.0748,-16.71979 -0.0731,-17.36071 1.5e-4,-0.0609 -0.002,-0.12158 -0.005,-0.1822 -0.01,-0.15531 -0.0214,-0.29221 -0.033,-0.42197 -0.0823,-0.67097 -0.30119,-1.30694 -0.62319,-1.83904 -0.59314,-0.7244 -1.68147,-1.16093 -8.39179,-3.75315 -3.35871,-1.29748 -6.56397,-2.74476 -7.18044,-3.24259 -0.71106,-0.5742 -1.10241,-0.78089 -1.77196,-0.79588 z m 91.640905,0.67625 c -1.18516,-0.0542 -3.115085,0.55656 -6.981235,2.00222 -7.19752,2.69135 -9.49056,3.75886 -9.74478,4.53652 -0.006,0.0195 -0.0107,0.0487 -0.016,0.0726 l 0.017,0.82091 c 0.005,0.23118 0.0283,0.63288 0.0646,1.13475 0.0146,0.0936 0.025,0.18769 0.042,0.27981 0.91253,4.91947 1.33138,11.31873 1.23987,18.0725 0.0915,6.75376 -0.32734,13.15303 -1.23987,18.0725 -0.017,0.0919 -0.027,0.18593 -0.0415,0.2793 -0.0363,0.5023 -0.0603,0.90445 -0.0651,1.13576 l -0.017,0.82091 c 0.005,0.0238 0.01,0.0531 0.016,0.0726 0.25422,0.77766 2.54726,1.84517 9.74478,4.53652 6.185845,2.31306 7.415015,2.48862 8.567485,1.22335 0.64762,-0.71099 1.35319,-2.14439 2.02375,-3.99241 0.005,-0.0151 0.0106,-0.0299 0.016,-0.0451 0.0804,-0.22246 0.1596,-0.45644 0.23877,-0.69027 0.88106,-2.63341 1.61786,-5.85124 2.22996,-9.73777 0.37549,-2.38415 0.57608,-7.03905 0.58916,-11.67542 -0.0131,-4.63637 -0.21367,-9.29077 -0.58916,-11.67492 -0.61263,-3.88995 -1.34987,-7.11008 -2.23197,-9.74478 -0.0776,-0.22921 -0.15546,-0.45898 -0.23426,-0.67725 -0.007,-0.0204 -0.0147,-0.0402 -0.022,-0.0606 -0.66953,-1.84349 -1.37371,-3.27312 -2.02024,-3.98291 -0.43217,-0.47447 -0.87515,-0.74635 -1.58625,-0.77886 z m 11.86763,0.12013 c -1.19115,0.009 -2.25875,0.0334 -3.12045,0.0791 l -4.8794,0.25929 0.66474,0.72931 c 0.38423,0.33413 0.87295,0.88522 1.22535,1.39504 0.27911,0.3378 0.51811,0.64394 0.66173,0.85044 0.65795,0.54362 2.02074,0.65239 8.11098,1.28993 8.58339,0.89853 20.15971,3.17418 25.68692,5.04958 0.8459,0.28702 1.60434,0.45657 1.68537,0.37692 0.14262,-0.14018 -0.036,-1.19089 -0.37442,-2.51728 -0.68,-2.43061 -1.88295,-5.68741 -2.38263,-5.94909 -0.0914,-0.0478 -0.256,-0.0967 -0.47303,-0.14566 l -2.74153,-0.30934 c -1.11442,-0.12585 -2.68305,-0.27861 -4.23919,-0.41846 -3.95277,-0.27305 -8.8626,-0.5015 -13.33576,-0.61568 -2.20864,-0.0398 -4.43289,-0.0636 -6.48868,-0.0741 z m -8.55747,1.00612 0.67725,1.49615 c 0.548,1.21078 1.03113,2.4966 1.45912,3.86278 0.0212,0.0629 0.0418,0.1195 0.0631,0.1832 1.67986,5.03962 2.45648,11.57083 2.41066,20.25091 0.0458,8.68012 -0.7308,15.21127 -2.41066,20.25091 -0.0212,0.0635 -0.0419,0.11996 -0.0631,0.1827 -0.42803,1.36641 -0.91104,2.65282 -1.45912,3.86377 l -0.67725,1.49616 c 0.11119,-0.0454 0.22372,-0.10008 0.33888,-0.16368 l 0.71479,-0.67425 c 0.30358,-0.28652 0.59266,-0.61075 0.86896,-0.96957 1.85371,-2.67474 3.10702,-6.78718 3.77468,-12.40823 0.34213,-3.04343 0.53033,-6.56889 0.56813,-10.60473 0.003,-0.33193 1.1e-4,-0.64713 10e-4,-0.97308 -7.7e-4,-0.32579 0.002,-0.64082 -10e-4,-0.97258 -0.0378,-4.03455 -0.22571,-7.55946 -0.56763,-10.60223 -0.66742,-5.62098 -1.92043,-9.73403 -3.77368,-12.40923 -0.2767,-0.35951 -0.56639,-0.68409 -0.87046,-0.97108 l -0.71479,-0.67474 c -0.11513,-0.0636 -0.22772,-0.11779 -0.33888,-0.16318 z M 9.3607353,12.98327 c 0.28078,0.009 0.58844,0.0496 0.9255297,0.12214 3.31402,0.71272 13.46042,4.13734 14.08909,4.75526 0.0847,0.0833 0.15787,0.15981 0.22174,0.24427 0.64207,0.38655 0.59212,0.77723 0.2643,15.83802 -0.0289,1.32579 -0.051,2.77576 -0.0671,4.26122 0.0161,1.48563 0.0382,2.93528 0.0671,4.26121 0.32783,15.06125 0.37783,15.45197 -0.2643,15.83853 -0.0639,0.0844 -0.13701,0.16099 -0.22174,0.24427 -0.62867,0.61792 -10.77507,4.04204 -14.08909,4.75476 -1.7978097,0.38665 -2.7598797,-0.11826 -3.2581097,-1.71039 -0.52444,-1.67588 -1.50846,-8.08683 -1.88508,-12.28159 -0.27768,-3.09271 -0.35152,-7.01293 -0.27681,-11.10679 -0.0747,-4.09376 -8.7e-4,-8.01366 0.27681,-11.10629 0.37662,-4.19476 1.36064,-10.60571 1.88508,-12.28159 0.40482,-1.2936 1.11591,-1.86991 2.33258,-1.83303 z M 143.03516,13.18249 c -0.25583,-0.004 -0.41608,-0.004 -0.46952,0.12514 0.0666,0.41264 0.27692,1.1545 0.56763,2.02274 0.0434,0.11981 0.0615,0.17639 0.11012,0.31034 0.27364,0.75328 0.56114,1.65787 0.80038,2.48625 0.27551,0.93073 0.49526,1.77529 0.56813,2.24348 0.008,0.0543 0.0175,0.0982 0.026,0.14917 0.23484,0.91143 0.50039,1.19115 1.27391,1.56824 0.59746,0.29126 1.16596,0.45116 1.2634,0.35539 0.2332,-0.22921 -0.67478,-4.7971 -1.3595,-6.83907 -0.55238,-1.6473 -1.41762,-2.40057 -2.78058,-2.42168 z M 9.2295953,13.44678 c -0.0941,7.7e-4 -0.17079,0.004 -0.25178,0.006 -0.13381,0.0679 -0.29189,0.17117 -0.51757,0.32636 -0.82706,0.56872 -1.46251,3.02346 -2.27652,8.79323 -0.44283,3.13881 -0.76449,9.65082 -0.86246,15.6318 0.098,5.98105 0.41962,12.49293 0.86246,15.6318 0.81401,5.76977 1.44946,8.22501 2.27652,8.79373 0.22612,0.15549 0.3846,0.25798 0.51857,0.32586 0.0807,0.002 0.15705,0.005 0.25078,0.006 0.23525,0.002 0.72115,-0.0884 1.3484897,-0.23375 0.51449,-0.14962 1.07628,-0.31332 2.10583,-0.60467 4.07763,-1.15396 10.25292,-3.29462 11.39861,-3.92735 0.17359,-0.17753 0.32233,-0.36694 0.42497,-0.53259 0.0468,-0.0931 0.0916,-0.18904 0.13365,-0.28782 0.002,-0.0107 0.005,-0.0232 0.006,-0.0325 0.002,-0.16818 -0.32447,0.0147 -0.7243,0.40645 -0.71955,0.705 -11.40002,4.3653 -13.69265,4.69269 -1.4667497,0.20946 -2.4114597,-0.79054 -2.8796897,-3.04837 -1.19835,-5.77858 -1.80121,-13.45929 -1.74743,-21.18945 -0.0538,-7.73016 0.54908,-15.41087 1.74743,-21.18945 0.46823,-2.25783 1.41294,-3.25783 2.8796897,-3.04837 2.29263,0.32739 12.9731,3.98819 13.69265,4.69319 0.39983,0.39174 0.72584,0.57463 0.7243,0.40645 -8e-5,-0.009 -0.004,-0.0218 -0.006,-0.0325 -0.0426,-0.10002 -0.0877,-0.19722 -0.13515,-0.29132 -0.10263,-0.16495 -0.251,-0.3527 -0.42347,-0.52909 -1.1456,-0.6327 -7.32094,-2.77388 -11.39861,-3.92785 -1.03324,-0.2924 -1.60029,-0.45744 -2.11334,-0.60667 C 9.9469253,13.53427 9.4639253,13.44481 9.2295953,13.44684 Z m 1.0776897,1.21485 c -0.7704797,-0.003 -1.2967497,0.38431 -1.6933697,1.20083 -1.2893,2.65425 -2.23226,12.79571 -2.35511,22.34172 0.12285,9.54601 1.06581,19.68747 2.35511,22.34172 0.39644,0.81616 0.92244,1.20407 1.6923697,1.20133 0.50085,-0.10416 1.16575,-0.27243 1.92863,-0.48153 0.86931,-0.2911 2.50086,-0.82765 4.43391,-1.45511 4.56223,-1.48089 6.33784,-2.13951 7.02577,-2.76106 0.32197,-0.63968 0.30372,-2.23662 0.10862,-9.68872 -0.0746,-2.84901 -0.10264,-6.01831 -0.0871,-9.1251 -1.1e-4,-0.021 10e-5,-0.0421 0,-0.0631 -0.0156,-3.10678 0.0125,-6.27609 0.0871,-9.12509 0.1951,-7.45211 0.21335,-9.04855 -0.10862,-9.68822 -0.68793,-0.62155 -2.46354,-1.28017 -7.02577,-2.76106 -1.93305,-0.62746 -3.5646,-1.16401 -4.43391,-1.45511 -0.7624,-0.20897 -1.42689,-0.37736 -1.92763,-0.48153 z m 98.993045,1.37152 c 0.0485,0.17123 0.16196,0.52559 0.29082,0.92452 l 0.25729,0.66023 c 1.66263,4.26456 2.47456,12.38449 2.43819,20.58628 0.0364,8.20189 -0.77554,16.32167 -2.43819,20.58628 l -0.25729,0.66023 c -0.12886,0.39893 -0.24228,0.75329 -0.29082,0.92452 l 2.55733,-0.1847 c 10.07231,-0.7275 21.81175,-2.75965 29.17879,-5.05109 3.5746,-1.11185 3.26989,-0.63683 3.80621,-5.85798 0.22898,-2.95965 0.36889,-6.91469 0.38843,-10.85251 -2e-4,-0.0752 7.7e-4,-0.14951 5.1e-4,-0.22475 2.6e-4,-0.0752 -7.7e-4,-0.14955 -5.1e-4,-0.22475 -0.0195,-3.93783 -0.15945,-7.89236 -0.38843,-10.85201 -0.53632,-5.22115 -0.23161,-4.74613 -3.80621,-5.85798 -7.36704,-2.29144 -19.10648,-4.32359 -29.17879,-5.05109 l -2.55733,-0.1852 z M 4.3396853,16.99571 c -0.0381,0.0774 -0.0749,0.14902 -0.11062,0.21174 0.0325,-0.0427 0.0698,-0.11742 0.11062,-0.21174 z m 74.7692297,3.71661 c -1.08042,0.003 -2.27283,0.0123 -3.5284,0.0285 -3.25059,0.0419 -10.60826,0.13263 -17.10843,0.21323 -8.4458,0.18174 -16.87098,0.40052 -21.62994,0.59015 l -5.71632,0.22776 c 0.66947,0.003 1.51343,-0.0128 2.47824,-0.0511 3.94796,-0.15666 7.90712,-0.21581 30.61688,-0.453 8.77243,-0.19307 16.04689,-0.3919 18.78428,-0.52909 -0.95048,-0.0214 -2.29812,-0.031 -3.89631,-0.0265 z m 5.3324,0.88148 -14.42596,0.0571 c -5.28669,0.0209 -10.83805,0.0624 -14.92001,0.10612 -11.65356,0.17988 -19.81015,0.40581 -22.97142,0.64471 -1.53593,0.11607 -2.27876,0.18748 -2.63742,0.33938 -0.077,1.03153 -0.24036,3.91799 -0.41496,7.40569 -0.13274,2.65157 -0.20923,5.38492 -0.23175,8.05742 0.0225,2.67265 0.099,5.40568 0.23175,8.05741 0.17459,3.48751 0.338,6.37401 0.41496,7.4057 0.35866,0.1519 1.10149,0.2238 2.63742,0.33988 3.16127,0.23889 11.31786,0.46432 22.97142,0.64421 4.08196,0.0437 9.63332,0.0852 14.92001,0.10611 l 14.42596,0.0576 0.42547,-2.8006 c 0.16732,-1.1027 0.29935,-2.6053 0.39945,-4.3408 0.14931,-2.83639 0.22568,-6.16388 0.22875,-9.46948 -0.003,-3.30605 -0.0799,-6.63387 -0.22925,-9.47048 -0.1001,-1.73505 -0.23166,-3.23683 -0.39895,-4.3393 l -0.42547,-2.8006 z m 60.945445,1.30945 c -0.2354,0.0228 -0.24527,0.296 -0.24076,0.88548 0.0333,0.32811 0.0898,0.70367 0.15417,1.03815 0.091,0.0969 0.23048,0.10088 0.4515,0.041 0.0205,-0.006 0.0421,-0.006 0.0631,-0.009 0.19426,-0.22448 0.59154,0.0258 1.33648,0.76835 0.63818,0.63616 0.83186,0.72171 0.68176,0.30033 -0.11533,-0.32376 -0.20624,-1.01654 -0.20173,-1.5392 0.001,-0.12537 -0.006,-0.23377 -0.018,-0.33537 -0.13368,-0.31866 -0.4236,-0.51161 -1.02013,-0.75484 -0.64722,-0.26389 -1.00722,-0.41422 -1.20634,-0.39493 z m 3.13297,1.67034 c -0.0174,0.0112 -0.0358,0.0377 -0.0551,0.0866 -0.084,0.21359 -0.082,0.55492 0,0.77586 0.0317,-0.0644 0.0553,-0.24122 0.0611,-0.51757 0.003,-0.13364 1e-5,-0.24936 -0.006,-0.34489 z m -2.11935,1.90461 c -0.20969,0.275 -0.38893,1.1455 -0.4575,2.42268 -0.0523,0.97383 -0.0982,4.92543 -0.11513,9.3033 0.017,4.37787 0.0628,8.32997 0.11513,9.30379 0.0686,1.27719 0.24781,2.14768 0.4575,2.42268 0.222,-0.35828 0.42054,-1.52091 0.55111,-2.97529 0.0413,-2.08695 0.0486,-4.90109 0.0105,-6.94518 -0.0384,-0.7465 -0.0574,-1.41251 -0.0491,-1.806 -0.008,-0.39357 0.0106,-1.05979 0.0491,-1.806 0.0381,-2.04427 0.0308,-4.85818 -0.0105,-6.94518 -0.13057,-1.45439 -0.32911,-2.61651 -0.55111,-2.9748 z m 2.39015,1.63331 c -0.0203,0.10828 -0.0323,0.22851 -0.036,0.3569 0.0157,-0.069 0.0276,-0.19595 0.036,-0.3569 z m -1.05517,0.14716 c -0.0375,0.5771 -0.0201,2.07393 0.0516,3.7957 0.0767,1.8432 0.20456,3.3908 0.30583,3.79971 0.03,-0.0173 0.0621,-0.0406 0.0956,-0.0691 0.0555,-0.47443 0.0452,-1.89436 -0.035,-3.58146 -0.0324,-0.68135 -0.0512,-1.06785 -0.0746,-1.55372 -0.10255,-1.05538 -0.2229,-1.98272 -0.33888,-2.37913 -0.002,-0.005 -0.003,-0.007 -0.005,-0.012 z m 0.59015,9.78083 c -0.0194,0.007 -0.0409,0.0367 -0.0636,0.0916 -0.009,0.0215 -0.0128,0.0492 -0.02,0.0731 0.007,0.024 0.0111,0.0516 0.02,0.0731 0.0615,0.14865 0.11187,0.10185 0.13815,-0.0731 -0.0166,-0.1101 -0.0415,-0.17668 -0.0746,-0.16468 z m -0.23276,2.51478 c -0.10127,0.40891 -0.22909,1.95701 -0.30583,3.8002 -0.0717,1.72178 -0.0891,3.21861 -0.0516,3.79571 0.002,-0.005 0.003,-0.006 0.005,-0.012 0.116,-0.39648 0.23632,-1.32454 0.33888,-2.38014 0.0234,-0.48571 0.0422,-0.87221 0.0746,-1.55322 0.0802,-1.68682 0.0905,-3.10628 0.035,-3.58096 -0.0335,-0.0285 -0.0656,-0.0523 -0.0956,-0.0696 z m 0.66224,7.38617 c 0.004,0.12821 0.0153,0.24827 0.0355,0.3564 -0.008,-0.16082 -0.0198,-0.28743 -0.0355,-0.3564 z m -0.9035,2.28303 c -0.0762,-0.022 -0.30141,0.16001 -0.70028,0.55762 -0.74494,0.74259 -1.14222,0.99333 -1.33648,0.76885 -0.0209,-0.003 -0.0426,-0.003 -0.0631,-0.009 -0.2211,-0.0599 -0.36052,-0.056 -0.4515,0.041 -0.0644,0.33447 -0.12083,0.70954 -0.15417,1.03765 -0.008,1.08807 0.0347,1.06643 1.4471,0.49054 0.59653,-0.24322 0.88644,-0.43617 1.02012,-0.75483 0.0119,-0.10161 0.0191,-0.21 0.018,-0.33538 -0.005,-0.52265 0.0864,-1.21494 0.20172,-1.5387 0.0563,-0.15802 0.0643,-0.24459 0.0185,-0.25778 z m 0.61318,0.74883 c -0.0822,0.22092 -0.0841,0.56263 0,0.77636 0.0192,0.0489 0.0377,0.0749 0.0551,0.0861 0.006,-0.0955 0.009,-0.21075 0.006,-0.34438 -0.006,-0.27648 -0.0294,-0.45377 -0.0611,-0.51807 z m -0.27431,2.74954 c -0.0209,-0.0104 -0.0436,0.0488 -0.0666,0.18621 -0.0735,0.43986 -0.36144,1.951 -0.63971,3.35821 -1.06734,5.39755 -2.80544,9.2738 -4.72673,10.54117 -0.50433,0.33267 -0.85623,0.66617 -0.78236,0.74131 0.005,0.006 0.0125,0.009 0.019,0.0135 0.18062,-0.0905 0.46473,-0.25643 0.87597,-0.51207 2.24535,-1.39577 5.51477,-9.7058 5.37995,-13.67413 -0.0119,-0.35187 -0.0276,-0.56251 -0.0536,-0.64721 -0.002,-0.002 -0.004,-0.006 -0.006,-0.007 z m -1.16979,0.21774 c -0.22902,0.0182 -0.66064,0.16298 -1.10873,0.38142 -0.77358,0.37712 -1.03906,0.65664 -1.27391,1.56824 -0.009,0.0509 -0.0176,0.0945 -0.026,0.14866 -0.0727,0.46729 -0.29188,1.30941 -0.56662,2.23798 -0.23958,0.83 -0.52757,1.7371 -0.80189,2.49226 -0.0484,0.13335 -0.0664,0.1895 -0.10962,0.30884 -0.29104,0.86907 -0.50148,1.6114 -0.56813,2.02424 0.0534,0.12938 0.21369,0.12908 0.46952,0.12514 1.36296,-0.0211 2.2282,-0.77488 2.78058,-2.42218 0.68472,-2.04198 1.5927,-6.60936 1.3595,-6.83857 -0.0244,-0.0239 -0.0783,-0.0321 -0.15467,-0.026 z M 31.184385,54.63586 c -0.0208,7e-5 -0.0365,10e-4 -0.0571,10e-4 l 5.71482,0.22725 c 4.76313,0.18979 13.19874,0.40882 21.65196,0.59065 6.49085,0.0805 13.84,0.17134 17.08641,0.21324 3.10852,0.0401 5.82323,0.0378 7.41721,0.002 -2.7402,-0.13703 -9.99767,-0.33589 -18.74925,-0.52859 -22.73698,-0.23746 -26.69472,-0.29727 -30.64441,-0.454 -0.93449,-0.0371 -1.76037,-0.0536 -2.41968,-0.0516 z m 112.754775,0.31985 c -0.21101,-0.017 -0.88414,0.1443 -1.6243,0.39544 -5.52721,1.87541 -17.10353,4.15106 -25.68692,5.04959 -6.09281,0.63781 -7.45435,0.74621 -8.11198,1.29043 -0.14371,0.20651 -0.38204,0.51215 -0.66073,0.84944 -0.3524,0.50981 -0.84112,1.06141 -1.22535,1.39554 l -0.66474,0.72931 4.8794,0.25879 c 0.8669,0.046 1.94096,0.0706 3.14097,0.0796 2.05045,-0.0106 4.26671,-0.0344 6.46816,-0.0741 4.47051,-0.11411 9.37716,-0.34284 13.32875,-0.61568 1.55843,-0.14002 3.1301,-0.29292 4.2462,-0.41896 l 2.74454,-0.30985 c 0.21528,-0.0487 0.37914,-0.0971 0.47002,-0.14466 0.49947,-0.26157 1.70149,-3.51578 2.38163,-5.94608 0.33897,-1.32797 0.51816,-2.38049 0.37542,-2.52078 -0.0101,-0.01 -0.0309,-0.0156 -0.0611,-0.018 z m -110.696995,0.57865 -3.73263,0.026 -0.35089,1.03515 c -0.1243,0.3667 -0.28795,0.70586 -0.49104,1.02363 -0.055,0.12516 -0.11167,0.24767 -0.17119,0.3619 -0.75326,1.44557 -1.07498,1.61023 -9.34234,4.78279 -4.03196,1.54725 -6.21344,2.55291 -7.13089,3.39576 -0.0836,0.20869 -0.10174,0.42387 -0.0996,0.67075 0.004,0.41528 0.1876,0.81219 0.40845,0.88197 0.95066,0.30035 36.33803,1.74509 42.27528,1.72641 0.0394,-0.0719 0.0511,-0.1614 0.0521,-0.2733 0.008,-0.87193 -1.53469,-1.01603 -12.12892,-1.13326 -12.00097,-0.13279 -16.30809,-0.44353 -16.86266,-1.21584 -0.62994,-0.87727 0.007,-1.88749 2.09381,-3.31867 2.94517,-2.02017 5.02587,-2.93605 7.34563,-3.23358 0.25397,-0.0326 0.71845,-0.0659 1.29243,-0.0996 1.47988,-0.12187 3.40015,-0.1825 6.00465,-0.22075 1.34305,-0.0332 2.74401,-0.0618 4.16611,-0.0806 8.10938,-0.107 9.39401,-0.19277 10.09717,-0.67475 0.5599,-0.38379 1.18928,-0.48794 5.7884,-0.37942 10e-4,0 0.002,-1e-5 0.003,0 2.32213,0.009 5.3764,0.0918 9.3063,0.25077 2.86013,0.1157 4.79531,0.2103 6.28396,0.3564 1.37456,0.0909 2.28176,0.1764 2.48174,0.24427 0.20291,0.0689 0.76174,0.28056 1.31546,0.49054 0.69196,0.2222 1.40461,0.49875 2.26951,0.85245 0.61825,0.25283 1.16862,0.4696 1.73742,0.69677 2.04604,0.78833 5.35101,2.01085 8.14301,3.00833 0.55959,0.19268 1.06641,0.37034 1.68987,0.58164 2.58737,0.87688 4.08909,1.44395 5.001545,1.97969 0.14893,0.0694 0.26458,0.12762 0.32085,0.16518 0.10426,0.0696 0.21083,0.16796 0.31485,0.28382 0.41247,0.35978 0.62715,0.73952 0.77786,1.22235 0.27496,0.88088 0.4652,0.99503 1.93214,1.16179 1.67819,0.19076 18.97527,0.27492 24.68331,0.15967 0.92939,-0.0466 1.69432,-0.0989 2.18141,-0.15767 0.2902,-0.035 0.62218,-0.0792 0.98159,-0.13015 0.01,-0.001 0.0216,-0.003 0.0315,-0.005 0.70094,-0.11766 1.49775,-0.25787 2.256,-0.39944 1.40735,-0.26275 3.09318,-0.56894 3.74615,-0.68075 1.12743,-0.19306 1.16866,-0.24291 0.8204,-0.9901 -0.24981,-0.53598 -0.26023,-0.77725 0.27731,-1.3595 2.6e-4,-2.6e-4 7.7e-4,-10e-4 0.001,-0.002 0.191,-0.26799 0.45448,-0.56784 0.79988,-0.91551 1.44329,-1.45277 1.78993,-1.40314 -5.34441,-0.76935 -0.26703,0.0237 -0.55904,0.0463 -0.84443,0.0691 -6.15565,0.52427 -12.55301,0.77426 -19.83295,0.77136 -5.22817,-0.002 -8.17626,0.0659 -9.53856,0.22475 -0.0626,0.0628 -0.14969,0.10345 -0.24777,0.10261 -0.064,-5.1e-4 -0.11236,-0.0193 -0.14516,-0.0491 -0.18153,0.0317 -0.32625,0.0653 -0.41496,0.10312 -0.003,0.033 -0.006,0.0655 -0.007,0.10111 -5.1e-4,0.1762 -0.50016,0.4339 -1.11023,0.57263 -0.89951,0.20456 -1.70573,0.0273 -4.265725,-0.93703 -7.49381,-2.8228 -12.39242,-4.96413 -13.29321,-5.81143 -0.86685,-0.81539 -0.93462,-1.02786 -0.74482,-2.32908 l 0.20873,-1.43209 -9.52404,-0.0831 c -4.15956,-0.0363 -11.91334,-0.1746 -19.3409,-0.32386 -2.59082,-0.0315 -5.2623,-0.0702 -7.65797,-0.11662 -5.90374,-0.11443 -12.41401,-0.1964 -14.46701,-0.1822 z M 4.2295653,59.20242 c 0.0353,0.0619 0.0716,0.13252 0.10912,0.20873 -0.0402,-0.0928 -0.077,-0.16616 -0.10912,-0.20873 z m 54.2094797,0.10211 c -0.47451,0.004 -0.90753,0.0675 -1.06968,0.16968 -0.37608,0.23694 -1.53851,5.48835 -1.54771,6.99174 -0.004,0.64234 0.15256,0.71986 1.43709,0.70879 l 0.6417,-0.006 c 0.26303,-0.24257 0.30938,-1.04736 0.33187,-3.65455 l 0.032,-3.71411 0.37241,0.008 0,-0.014 1.04115,0.007 c 0.23782,10e-4 1.52928,0.043 2.95627,0.0906 l 5.9601,0.12364 10.32993,0.21474 0.75233,0.28331 0.2708,0.01 4.37384,1.7139 c 2.40561,0.9426 6.672,2.5221 9.48099,3.51038 0.75567,0.26587 1.47709,0.52977 2.15138,0.78237 0.0414,0.0142 0.12008,0.0425 0.15868,0.0556 0.85502,0.29038 1.56428,0.57276 2.11834,0.83592 0.63235,0.26468 1.05058,0.4628 1.14777,0.55162 0.40707,0.37202 0.37675,0.51585 -0.23076,1.0917 -0.38482,0.36477 -0.69954,0.72967 -0.69877,0.8109 7.7e-4,0.0812 0.72234,0.14126 1.603285,0.13365 1.12138,-0.01 1.48365,-0.0838 1.57023,-0.39444 -0.0127,-0.0531 -0.0251,-0.10582 -0.0435,-0.16968 -0.25997,-0.89878 -0.7686,-1.44843 -2.396665,-2.1684 -0.0777,-0.0343 -0.15212,-0.068 -0.23425,-0.10312 -0.81274,-0.345 -1.8794,-0.73254 -3.29465,-1.21685 -2.52502,-0.86406 -7.17733,-2.56907 -10.33844,-3.78869 l -2.51979,-0.97207 c -3.70624,-1.30486 -5.94783,-1.42329 -15.83102,-1.63231 -3.78902,-0.0801 -7.40947,-0.18878 -8.0454,-0.24127 -0.15898,-0.0131 -0.32136,-0.0187 -0.47953,-0.0175 z M 4.1284453,59.76404 c 0.16158,1.17597 0.845,3.69441 1.29394,4.44592 0.30794,0.51549 0.93129,1.20909 1.38503,1.5412 0.51679,0.37827 1.53653,0.64925 2.72952,0.7258 l 0.19121,0.0125 c -0.17628,-0.03 -0.36241,-0.0583 -0.56112,-0.0791 -2.68458,-0.28134 -3.76313,-1.57252 -4.74825,-5.68479 -0.095,-0.39676 -0.19971,-0.7357 -0.29033,-0.96156 z m 55.2376297,0.74932 -0.17169,1.79149 c -0.10337,1.07866 -0.0956,2.59305 0.017,3.36522 l 0.20473,1.40405 2.60638,0.1737 c 0.0823,0.005 0.25636,0.0114 0.37992,0.017 l 13.92041,0.12014 c 16.32453,0.14081 17.47537,0.11415 17.38123,-0.39845 -0.0554,-0.30192 -0.60269,-0.73465 -1.21634,-0.96206 -0.26463,-0.0981 -1.96737,-0.74484 -2.95978,-1.12024 -1.69045,-0.5932 -3.67663,-1.34198 -4.91344,-1.85455 -1.9028,-0.70033 -3.76597,-1.32432 -5.0606,-1.70088 -1.75233,-0.3374 -3.80431,-0.44903 -7.29307,-0.52809 -2.62153,-0.0594 -5.76584,-0.15643 -7.92126,-0.24076 l -4.97351,-0.0666 z m -8.64757,0.009 c -1.31562,-0.002 -2.91225,0.006 -4.83185,0.0225 -3.55348,0.0306 -6.04859,0.058 -7.92177,0.15117 -1.22523,0.0788 -2.24099,0.16814 -3.0759,0.30534 -1.94942,0.34951 -2.9897,0.99665 -4.86488,2.24398 -2.31967,1.543 -3.07013,2.35845 -2.59738,2.82312 0.24553,0.24133 5.72579,0.51713 14.45099,0.72681 3.34853,0.0805 7.68506,0.21561 9.63667,0.30033 l 2.51928,0.10962 0.86847,0.0145 0.22475,-2.01023 c 0.12363,-1.10566 0.32073,-2.62188 0.43848,-3.36973 l 0.1807,-1.14877 c -0.61641,-0.11185 -2.14251,-0.16434 -5.02756,-0.16868 z m 93.972985,2.87718 c -0.19161,0.0116 -0.50875,0.0865 -1.00611,0.20923 -0.78205,0.19293 -1.48613,0.59616 -2.29754,1.32246 -0.0221,0.0343 -0.0448,0.0652 -0.0666,0.10111 -0.35825,0.59102 -1.0319,1.35679 -1.49715,1.70189 -0.0871,0.0646 -0.16393,0.12284 -0.23226,0.1777 -0.17995,0.30748 -0.20156,0.52163 -0.0946,0.69727 0.31037,0.50966 0.85009,0.63835 1.47564,0.48553 0.16359,-0.0848 0.33962,-0.18403 0.5476,-0.31334 1.62086,-1.00775 3.68621,-3.77421 3.29365,-4.37384 -0.0344,-0.006 -0.0712,-0.0112 -0.12264,-0.008 z m -49.537815,3.56594 c -0.19586,0.006 -0.25939,0.11339 -0.1767,0.30885 0.0581,0.0793 0.12985,0.16904 0.22926,0.28081 0.41111,0.46222 0.682,0.5547 0.92552,0.31535 0.21307,-0.20943 0.10137,-0.4788 -0.17469,-0.67976 -0.35771,-0.15614 -0.63177,-0.2304 -0.80339,-0.22525 z m -4.08753,1.23537 c -0.78383,0.007 -1.56752,0.0291 -2.16189,0.0651 -1.18874,0.0719 -0.21515,0.11363 2.1634,0.0931 2.37854,-0.0205 3.35119,-0.0793 2.16139,-0.13065 -0.59491,-0.0257 -1.37906,-0.0343 -2.1629,-0.0275 z m 6.51972,0.0185 c -0.27065,0.13254 -0.63602,0.38866 -1.09672,0.77936 -2.0109,1.70538 -2.75226,2.65726 -3.45932,4.44342 -0.49266,1.24453 -0.60241,1.91661 -0.29683,2.11234 1.18605,0.17188 3.77302,-2.20939 4.37083,-4.31628 0.2478,-0.8733 0.54897,-1.91164 0.66924,-2.30705 0.14626,-0.48081 0.0698,-0.71209 -0.1872,-0.71179 z m -37.36435,0.34338 c -2.967,0.01 -4.13839,0.0713 -4.60609,0.20823 -0.007,0.0226 -0.0171,0.042 -0.022,0.0656 -0.12076,0.57131 1.61691,0.67336 15.78347,0.92753 9.40181,0.16868 14.79458,0.25204 18.05097,0.24677 4.07497,-0.0305 4.45498,-0.18108 4.7943,-0.54961 0.29238,-0.31751 0.43347,-0.47627 -1.96467,-0.57713 -0.002,-7e-5 -0.004,6e-5 -0.006,0 -1.53034,-0.0387 -3.84036,-0.0826 -6.57728,-0.12765 -2.69797,-0.0314 -6.02386,-0.0615 -10.61775,-0.10111 -7.32643,-0.0632 -11.93519,-0.10223 -14.83492,-0.0926 z"
     id="path4766"
     inkscape:connector-curvature="0" />
  <path
     style="fill:#fffc13;fill-opacity:1"
     d="m 93.014305,4.1e-4 c 0.60049,0.004 1.33434,0.258 2.05327,0.75934 1.39556,0.9732 3.08335,3.20586 3.0759,4.069 -0.003,0.33735 0.1182,0.48568 0.87898,0.55662 l 9.592115,-0.26079 c 5.84184,-0.1588277 13.1358,-0.17565 16.20844,-0.037 3.07264,0.13861 6.9566,0.30228 8.63105,0.3634 1.29665,0.0473 2.79923,0.21877 4.2487,0.46151 0.9086,0.10921 1.64615,0.22447 2.12235,0.34538 0.57087,0.14496 1.08495,0.30026 1.55572,0.47052 0.83025,0.24197 1.5079,0.49518 1.91812,0.73982 4.50624,2.68744 6.79801,13.22079 6.69791,30.73551 0.1001,17.51475 -2.19167,28.04807 -6.69791,30.73551 -0.4108,0.245 -1.08974,0.49905 -1.92163,0.74132 -0.46983,0.16977 -0.98275,0.32442 -1.55221,0.46902 -0.47645,0.12098 -1.21457,0.23662 -2.12385,0.34588 -1.44899,0.24261 -2.95102,0.4142 -4.2472,0.46151 -1.67445,0.0611 -5.55841,0.22429 -8.63105,0.36291 -3.07264,0.13861 -10.3666,0.122245 -16.20844,-0.0365 l -9.597125,-0.26079 c -0.75689,0.0711 -0.87686,0.21941 -0.87397,0.55611 0.007,0.86315 -1.68034,3.09631 -3.0759,4.06951 -0.78124,0.54479 -1.57869,0.79412 -2.20494,0.75183 -1.53257,0.0636 -1.82538,-1.29445 -0.69176,-3.57746 0.39245,-0.79037 0.64515,-1.50677 0.56112,-1.59226 -0.084,-0.0855 -7.71471,-0.25389 -16.95677,-0.37442 C 53.721615,70.56827 33.199605,70.01543 18.894285,69.3242 5.9885053,68.7006 5.9367153,68.69007 4.0954153,66.32238 c -0.73293,-0.94246 -1.07643,-1.5569 -1.5362,-3.48436 -0.46904,-1.64003 -0.89064,-3.77832 -1.24989,-6.27694 -1.19494002,-6.50527 -1.38721002,-9.51405 -1.28592002,-18.18713 6.7e-4,-0.057 0.002,-0.11324 0.003,-0.17019 -7.2e-4,-0.0568 -0.002,-0.11287 -0.003,-0.16969 -0.10128,-8.67273 0.0906,-11.68189 1.28542002,-18.18662 0.35926,-2.49884 0.78133,-4.63725 1.25039,-6.27745 0.45981,-1.92775 0.80322,-2.54234 1.5362,-3.48485 1.8413,-2.36769 1.89309,-2.37822 14.7988697,-3.00182 14.30532,-0.69123 34.82733,-1.24358 56.88094,-1.5312 9.24206,-0.12053 16.87273,-0.28892 16.95677,-0.37441 0.084,-0.0855 -0.16867,-0.8024 -0.56112,-1.59276 C 91.037625,1.30269 91.329855,-0.05471 92.861135,0.008 92.911535,0.005 92.961745,0 93.014305,0 Z"
     id="path4816"
     inkscape:connector-curvature="0"
     sodipodi:nodetypes="csccscccccccscscsssccscscssscccccccssscsccc" />
  <path
     sodipodi:nodetypes="cscccccccsccccccccccsssccsccccccscccccccccccsscccscscccccccscsccscsccscsccccsscccscccccscccccccssscccccccc"
     style="fill:#222842;fill-opacity:1;stroke:#222842;stroke-opacity:1"
     d="m 89.021385,8.95281 c -2.58864,-0.011 -6.57685,0.01825 -12.69855,0.0711 l -13.9159,0.12013 c -0.1255,0.006 -0.30112,0.0115 -0.38442,0.017 l -2.60639,0.17369 -0.20472,1.40406 c -0.11263,0.77216 -0.12039,2.28605 -0.017,3.36472 l 0.17169,1.79198 4.98401,-0.0671 c 2.15523,-0.0842 5.29412,-0.18097 7.91076,-0.24027 3.4891,-0.0791 5.54112,-0.19111 7.29357,-0.52858 1.29208,-0.37584 3.15035,-0.99729 5.04908,-1.69588 1.2403,-0.51444 3.24474,-1.27036 4.94348,-1.86606 0.98263,-0.3717 2.67782,-1.0158 2.94075,-1.11323 0.61366,-0.22741 1.1609,-0.66065 1.21635,-0.96257 0.0588,-0.32037 -0.36828,-0.45062 -4.68269,-0.46902 z m -34.11925,0.23576 -0.84944,0.0145 -2.53831,0.11012 c -1.95161,0.0847 -6.28814,0.21986 -9.63667,0.30033 -8.7252,0.20968 -14.20546,0.48498 -14.45099,0.72631 -0.47275,0.46467 0.27771,1.28063 2.59738,2.82362 1.86699,1.24188 2.90735,1.88838 4.84035,2.23898 0.83856,0.13921 1.85835,0.22986 3.09193,0.30934 1.87404,0.0935 4.37167,0.12097 7.93027,0.15167 6.13016,0.0529 8.9629,0.0173 9.85991,-0.14566 l -0.1812,-1.14878 c -0.11775,-0.74784 -0.31485,-2.26456 -0.43848,-3.37022 l -0.22475,-2.01023 z m 47.195225,2.09632 c -1.18516,-0.0542 -3.11508,0.55656 -6.981235,2.00222 -7.19752,2.69135 -9.49056,3.75886 -9.74478,4.53652 -0.006,0.0195 -0.0107,0.0487 -0.016,0.0726 l 0.017,0.82091 c 0.005,0.23118 0.0283,0.63288 0.0646,1.13475 0.0146,0.0936 0.025,0.18769 0.042,0.27981 0.91253,4.91947 1.33138,11.31873 1.23987,18.0725 0.0915,6.75376 -0.32734,13.15303 -1.23987,18.0725 -0.017,0.0919 -0.027,0.18593 -0.0415,0.2793 -0.0363,0.5023 -0.0603,0.90445 -0.0651,1.13576 l -0.017,0.82091 c 0.005,0.0238 0.01,0.0531 0.016,0.0726 0.25422,0.77766 2.54726,1.84517 9.74478,4.53652 6.185845,2.31306 7.415015,2.48862 8.567485,1.22335 0.64762,-0.71099 1.35319,-2.14439 2.02375,-3.99241 0.005,-0.0151 0.0106,-0.0299 0.016,-0.0451 0.0804,-0.22246 0.1596,-0.45644 0.23877,-0.69027 0.88106,-2.63341 1.61786,-5.85124 2.22996,-9.73777 0.37549,-2.38415 0.57608,-7.03905 0.58916,-11.67542 -0.0131,-4.63637 -0.21367,-9.29077 -0.58916,-11.67492 -0.61263,-3.88995 -1.34987,-7.11008 -2.23197,-9.74478 -0.0776,-0.22921 -0.15546,-0.45898 -0.23426,-0.67725 -0.007,-0.0204 -0.0147,-0.0402 -0.022,-0.0606 -0.66953,-1.84349 -1.37371,-3.27312 -2.02024,-3.98291 -0.43217,-0.47447 -0.87515,-0.74635 -1.58625,-0.77886 z m -91.790075,3.37674 c -0.77048,-0.003 -1.29675,0.38431 -1.69337,1.20083 -1.2892997,2.65425 -2.2322597,12.79571 -2.3551097,22.34172 0.12285,9.54601 1.06581,19.68747 2.3551097,22.34172 0.39644,0.81616 0.92244,1.20407 1.69237,1.20133 0.50085,-0.10416 1.16575,-0.27243 1.92863,-0.48153 0.86931,-0.2911 2.50086,-0.82765 4.43391,-1.45511 4.56223,-1.48089 6.33784,-2.13951 7.02577,-2.76106 0.32197,-0.63968 0.30372,-2.23662 0.10862,-9.68872 -0.0746,-2.84901 -0.10264,-6.01831 -0.0871,-9.1251 -1.1e-4,-0.021 10e-5,-0.0421 0,-0.0631 -0.0156,-3.10678 0.0125,-6.27609 0.0871,-9.12509 0.1951,-7.45211 0.21335,-9.04855 -0.10862,-9.68822 -0.68793,-0.62155 -2.46354,-1.28017 -7.02577,-2.76106 -1.93305,-0.62746 -3.5646,-1.16401 -4.43391,-1.45511 -0.7624,-0.20897 -1.42689,-0.37736 -1.92763,-0.48153 z m 49.05879,45.85173 -0.17169,1.79149 c -0.103375,1.078659 -0.09559,2.593049 0.017,3.36522 l 0.20473,1.40405 2.60638,0.1737 c 0.0823,0.005 0.25636,0.0114 0.37992,0.017 l 13.92041,0.12014 c 16.324529,0.140889 17.47537,0.11415 17.38123,-0.39845 -0.0554,-0.30192 -0.60269,-0.73465 -1.21634,-0.96206 -0.26463,-0.0981 -1.96737,-0.74484 -2.95978,-1.12024 -1.69045,-0.5932 -3.67663,-1.34198 -4.91344,-1.85455 -1.9028,-0.70033 -3.76597,-1.32432 -5.0606,-1.70088 -1.75233,-0.3374 -3.80431,-0.44903 -7.29307,-0.52809 -2.62153,-0.0594 -5.76584,-0.15643 -7.92126,-0.24076 l -4.97351,-0.0666 z m -8.64757,0.009 c -1.31562,-0.002 -2.91225,0.006 -4.83185,0.0225 -3.55348,0.0306 -6.04859,0.058 -7.92177,0.15117 -1.22523,0.0788 -2.24099,0.16814 -3.0759,0.30534 -1.94942,0.34951 -2.9897,0.99665 -4.86488,2.24398 -2.31967,1.543 -3.07013,2.35845 -2.59738,2.82312 0.24553,0.24133 5.72579,0.51713 14.45099,0.72681 3.34853,0.0805 7.68506,0.21561 9.63667,0.30033 l 2.51928,0.10962 0.86847,0.0145 0.22475,-2.01023 c 0.12363,-1.10566 0.32073,-2.62188 0.43848,-3.36973 l 0.1807,-1.14877 c -0.61641,-0.11185 -2.14251,-0.16434 -5.02756,-0.16868 z"
     id="path4847"
     inkscape:connector-curvature="0" />
  <path
     sodipodi:nodetypes="cccccccccccccccccccccsccccccc"
     style="fill:#2e2e2e;fill-opacity:1;stroke:#2e2e2e;stroke-opacity:1"
     d="m 146.40038,26.4782 c -0.20969,0.275 -0.38893,1.1455 -0.4575,2.42268 -0.0523,0.97383 -0.0982,4.92543 -0.11513,9.3033 0.017,4.37787 0.0628,8.32997 0.11513,9.30379 0.0686,1.27719 0.24781,2.14768 0.4575,2.42268 0.222,-0.35828 0.42054,-1.52091 0.55111,-2.97529 0.0413,-2.08695 0.0486,-4.90109 0.0105,-6.94518 -0.0384,-0.7465 -0.0574,-1.41251 -0.0491,-1.806 -0.008,-0.39357 0.0106,-1.05979 0.0491,-1.806 0.0381,-2.04427 0.0308,-4.85818 -0.0105,-6.94518 -0.13057,-1.45439 -0.32911,-2.61651 -0.55111,-2.9748 z m 1.33498,1.78047 c -0.0375,0.5771 -0.0201,2.07393 0.0516,3.7957 0.0767,1.8432 0.20456,3.3908 0.30583,3.79971 0.03,-0.0173 0.0621,-0.0406 0.0956,-0.0691 0.0555,-0.47443 0.0452,-1.89436 -0.035,-3.58146 -0.0324,-0.68135 -0.0512,-1.06785 -0.0746,-1.55372 -0.10255,-1.05538 -0.2229,-1.98272 -0.33888,-2.37913 -0.002,-0.005 -0.003,-0.007 -0.005,-0.012 z m 0.35739,12.29561 c -0.10127,0.40891 -0.22909,1.95701 -0.30583,3.8002 -0.0717,1.72178 -0.0891,3.21861 -0.0516,3.79571 0.002,-0.005 0.003,-0.006 0.005,-0.012 0.116,-0.39648 0.23632,-1.32454 0.33888,-2.38014 0.0234,-0.48571 0.0422,-0.87221 0.0746,-1.55322 0.0802,-1.68682 0.0905,-3.10628 0.035,-3.58096 -0.0335,-0.0285 -0.0656,-0.0523 -0.0956,-0.0696 z"
     id="path4843"
     inkscape:connector-curvature="0" />
  <path
     inkscape:connector-curvature="0"
     id="path4814"
     d="m 93.014305,4.1e-4 c 0.60049,0.004 1.33434,0.258 2.05327,0.75934 1.39556,0.9732 3.083345,3.20586 3.075895,4.069 -0.003,0.33735 0.1182,0.48568 0.87898,0.55662 l 9.59212,-0.26079 c 5.84184,-0.15883 13.1358,-0.17565 16.20844,-0.037 3.07264,0.13861 6.9566,0.30228 8.63105,0.3634 1.29665,0.0473 2.79923,0.21877 4.2487,0.46151 0.9086,0.10921 1.64615,0.22447 2.12235,0.34538 0.57087,0.14496 1.08495,0.30026 1.55572,0.47052 0.83025,0.24197 1.5079,0.49518 1.91812,0.73982 4.50624,2.68744 6.79801,13.22079 6.69791,30.73551 0.1001,17.51475 -2.19167,28.04807 -6.69791,30.73551 -0.4108,0.245 -1.08974,0.49905 -1.92163,0.74132 -0.46983,0.16977 -0.98275,0.32442 -1.55221,0.46902 -0.47645,0.12098 -1.21457,0.23662 -2.12385,0.34588 -1.44899,0.24261 -2.95102,0.4142 -4.2472,0.46151 -1.67445,0.0611 -5.55841,0.22429 -8.63105,0.36291 -3.07264,0.13861 -10.3666,0.12228 -16.20844,-0.0365 l -9.59713,-0.26079 c -0.75689,0.0711 -0.87685,0.21941 -0.87397,0.55611 0.007,0.86315 -1.680335,3.09631 -3.075895,4.06951 -0.78124,0.54479 -1.57869,0.79412 -2.20494,0.75183 -1.53257,0.0636 -1.82538,-1.29445 -0.69176,-3.57746 0.39245,-0.79037 0.64515,-1.50677 0.56112,-1.59226 -0.084,-0.0855 -7.71471,-0.25389 -16.95677,-0.37442 C 53.721615,70.56827 33.199605,70.01543 18.894285,69.3242 5.9885053,68.7006 5.9367153,68.69007 4.0954153,66.32238 c -0.73293,-0.94246 -1.07643,-1.5569 -1.5362,-3.48436 -0.46904,-1.64003 -0.89064,-3.77832 -1.24989,-6.27694 -1.19494,-6.50527 -1.38721,-9.51405 -1.28592,-18.18713 6.7e-4,-0.057 0.002,-0.11324 0.003,-0.17019 -7.2e-4,-0.0568 -0.002,-0.11287 -0.003,-0.16969 -0.10128,-8.67273 0.0906,-11.68189 1.28542,-18.18662 0.35926,-2.49884 0.78133,-4.63725 1.25039,-6.27745 0.45981,-1.92775 0.80322,-2.54234 1.5362,-3.48485 1.8413,-2.36769 1.89309,-2.37822 14.7988697,-3.00182 14.30532,-0.69123 34.82733,-1.24358 56.88094,-1.5312 9.24206,-0.12053 16.87273,-0.28892 16.95677,-0.37441 0.084,-0.0855 -0.16867,-0.8024 -0.56112,-1.59276 C 91.037625,1.30269 91.329855,-0.05471 92.861135,0.008 92.911535,0.005 92.961745,0 93.014305,0 Z m -0.20773,0.84343 c -0.0257,0.001 -0.0496,0.006 -0.0741,0.01 -0.30484,0.19622 -0.19501,0.86862 0.29733,2.11234 0.70706,1.78616 1.44842,2.73804 3.45932,4.44342 C 96.293856,3.8951167 95.022942,1.6821741 92.806555,0.84383 Z M 121.9233,6.09315 c -7.27384,-0.008 -16.67658,0.0738 -17.8898,0.21173 -1.46693,0.16676 -1.65717,0.28141 -1.93214,1.16229 -0.15062,0.48256 -0.36484,0.86225 -0.77686,1.22185 -0.10422,0.11618 -0.21137,0.21407 -0.31585,0.28382 -0.0562,0.0375 -0.17168,0.0954 -0.32035,0.16468 -0.91239,0.53586 -2.41405,1.1036 -5.002045,1.98069 -0.61741,0.20925 -1.11864,0.38518 -1.67335,0.57614 -2.79697,0.99909 -6.11462,2.22563 -8.16403,3.01534 -0.56742,0.22663 -1.11627,0.44309 -1.73292,0.69527 -0.86074,0.35199 -1.57065,0.62678 -2.2595,0.84843 -0.55996,0.21241 -1.121,0.42466 -1.32546,0.49405 -0.19922,0.0676 -1.09861,0.15275 -2.46423,0.24327 -1.49085,0.14705 -3.43059,0.24126 -6.30147,0.3574 -3.92132,0.15862 -6.97194,0.24134 -9.29229,0.25077 -4.61257,0.10909 -5.24492,0.005 -5.80542,-0.37892 -0.70316,-0.48198 -1.98779,-0.56825 -10.09717,-0.67524 -1.41145,-0.0186 -2.80336,-0.0472 -4.13758,-0.0801 -2.60955,-0.0381 -4.5369,-0.0983 -6.01966,-0.21975 -0.58115,-0.034 -1.04986,-0.0683 -1.30595,-0.10111 -2.31976,-0.29753 -4.40046,-1.21341 -7.34563,-3.23358 -2.08651,-1.43118 -2.72375,-2.4414 -2.09381,-3.31867 0.55457,-0.77231 4.86169,-1.08254 16.86266,-1.21534 10.59423,-0.11722 12.13643,-0.26133 12.12892,-1.13326 -10e-4,-0.11173 -0.0123,-0.20146 -0.0516,-0.2733 -5.93609,-0.0187 -41.3251,1.42555 -42.27578,1.72591 -0.22085,0.0698 -0.40487,0.46669 -0.40845,0.88198 -0.002,0.24687 0.016,0.46205 0.0996,0.67074 0.91745,0.84285 3.09893,1.84851 7.13089,3.39576 8.26736,3.17256 8.58908,3.33773 9.34234,4.78329 0.0595,0.11423 0.11623,0.23674 0.17119,0.3619 0.20309,0.31777 0.36674,0.65693 0.49104,1.02363 l 0.35089,1.03515 3.73263,0.0255 c 2.05301,0.0142 8.56327,-0.0678 14.46701,-0.1822 2.39567,-0.0464 5.06715,-0.0847 7.65797,-0.11613 7.42757,-0.14925 15.18135,-0.28753 19.3409,-0.32386 l 9.52404,-0.0836 -0.20873,-1.43158 c -0.1898,-1.30122 -0.12203,-1.5137 0.74482,-2.32908 0.90079,-0.8473 5.7994,-2.98913 13.293215,-5.81193 2.56,-0.96431 3.36621,-1.14109 4.26572,-0.93654 0.61008,0.13874 1.10972,0.39644 1.11023,0.57264 8e-5,0.0356 0.004,0.0677 0.007,0.10061 0.0887,0.0378 0.23314,0.0719 0.41446,0.10361 0.0328,-0.03 0.0813,-0.0485 0.14566,-0.049 0.0982,-7.7e-4 0.18563,0.0396 0.24828,0.10261 1.36255,0.15886 4.31058,0.22634 9.53805,0.22425 7.27994,-0.003 13.6773,0.24709 19.83295,0.77135 0.28539,0.0228 0.57741,0.0454 0.84443,0.0691 7.13434,0.63379 6.7877,0.68392 5.34442,-0.76885 -0.34541,-0.34767 -0.60889,-0.64802 -0.79989,-0.91601 -2.6e-4,-5.2e-4 -7.7e-4,-10e-4 -0.001,-0.002 -0.53754,-0.58226 -0.52712,-0.82302 -0.2773,-1.35901 0.34825,-0.74718 0.30702,-0.79704 -0.82041,-0.99009 -0.65296,-0.11181 -2.3388,-0.41851 -3.74615,-0.68126 -0.75892,-0.14169 -1.55618,-0.28122 -2.2575,-0.39894 -0.0126,-0.002 -0.0175,-0.002 -0.03,-0.005 -0.35941,-0.051 -0.69139,-0.0951 -0.98158,-0.13014 -0.48641,-0.0586 -1.24985,-0.1111 -2.17741,-0.15768 -1.58138,-0.032 -4.00783,-0.0493 -6.79753,-0.0526 z M 89.454865,6.39749 c -3.25323,-0.006 -8.65209,0.0777 -18.078,0.24677 -14.16657,0.25416 -15.90423,0.35621 -15.78347,0.92753 0.005,0.0234 0.015,0.0427 0.0215,0.0651 0.92388,0.27092 4.61571,0.24401 19.44151,0.11613 4.57808,-0.0395 7.88685,-0.0693 10.58121,-0.10061 2.75632,-0.0453 5.0826,-0.0892 6.61982,-0.12814 l 0.001,0 c 2.39695,-0.10087 2.256,-0.26018 1.96367,-0.57764 -0.3385,-0.36763 -0.72048,-0.5181 -4.76727,-0.54911 z m 10.597235,0.002 c -0.88094,-0.008 -1.60259,0.0529 -1.60329,0.13414 -7.7e-4,0.0812 0.31396,0.44613 0.69877,0.8109 0.60751,0.57585 0.63783,0.71969 0.23076,1.09171 -0.0972,0.0888 -0.51571,0.28635 -1.14826,0.55111 -0.554015,0.26311 -1.263025,0.54561 -2.117845,0.83593 -0.0353,0.012 -0.10748,0.0382 -0.14516,0.051 -0.67831,0.25423 -1.40375,0.51908 -2.1649,0.78687 -2.80899,0.98828 -7.07538,2.56828 -9.48099,3.51089 l -4.37384,1.71389 -0.2708,0.01 -0.75233,0.28332 -10.32993,0.21424 -5.95159,0.12363 c -1.43375,0.0479 -2.72627,0.0897 -2.96478,0.0911 l -1.04115,0.006 0,-0.014 -0.37241,0.008 -0.032,-3.71361 c -0.0225,-2.60582 -0.0687,-3.41151 -0.33136,-3.65454 l -0.64221,-0.006 c -1.28453,-0.0111 -1.44103,0.0659 -1.43709,0.70828 0.009,1.50339 1.17163,6.7548 1.54771,6.99174 0.2162,0.13621 0.91328,0.20516 1.54921,0.15267 0.63593,-0.0525 4.25638,-0.16114 8.0454,-0.24127 9.87179,-0.20878 12.11942,-0.32719 15.81801,-1.6278 l 2.5328,-0.97708 c 3.16111,-1.21962 7.81342,-2.92413 10.33844,-3.7882 1.41581,-0.48449 2.482785,-0.87223 3.295645,-1.21734 0.0818,-0.0349 0.15585,-0.0684 0.23325,-0.10262 1.62807,-0.71997 2.1367,-1.27012 2.39667,-2.1689 0.0184,-0.0637 0.0309,-0.11622 0.0435,-0.16918 -0.0866,-0.31066 -0.44885,-0.38527 -1.57023,-0.39494 z m 41.94191,1.4471 c -0.006,0.004 -0.0136,0.008 -0.019,0.013 -0.0739,0.0751 0.27804,0.40914 0.78237,0.74182 1.92129,1.26737 3.65938,5.14311 4.72673,10.54066 0.27827,1.40721 0.56617,2.91885 0.63971,3.35872 0.0252,0.1507 0.0501,0.20522 0.0726,0.1792 0.0259,-0.0847 0.0416,-0.29535 0.0535,-0.64722 0.13482,-3.96833 -3.1346,-12.27836 -5.37995,-13.67413 C 142.4589,8.10311 142.17464,7.93711 141.994,7.84657 Z m -1.54421,0.40745 c -0.39854,0.0145 -0.7329,0.18439 -0.95256,0.5451 -0.10698,0.17568 -0.085,0.38967 0.0951,0.69727 0.0683,0.0548 0.14474,0.11366 0.23176,0.1782 0.46525,0.3451 1.1389,1.11087 1.49715,1.70188 0.0217,0.0357 0.0441,0.0665 0.0661,0.10061 0.81159,0.72655 1.51585,1.13001 2.29804,1.32297 0.63097,0.15565 0.9664,0.23094 1.12875,0.20122 C 145.2067,12.40165 143.14135,9.6347 141.52049,8.62695 141.31174,8.49716 141.13494,8.39857 140.97088,8.3136 140.78877,8.2693 140.61379,8.2481 140.44981,8.254 Z M 10.937985,8.60092 c -0.26311,-0.004 -0.62424,0.0147 -1.08871,0.0621 -1.05814,0.10789 -2.3697297,0.32836 -2.9147197,0.49004 -1.25745,0.37306 -2.14022,1.15813 -2.85116,2.73303 -0.0317,0.0738 -0.0646,0.14193 -0.0956,0.21874 -0.008,0.0195 -0.0159,0.0409 -0.024,0.0606 -0.34734,0.8752 -0.65314,1.94543 -0.95656,3.2576 -0.0477,0.20637 -0.0909,0.40333 -0.13665,0.60517 -0.10046,0.48508 -0.20047,0.99249 -0.29933,1.54421 -1.18518,6.61439 -1.71046,12.83114 -1.72741,20.63183 0.0169,7.80092 0.54221,14.01729 1.72741,20.63183 0.0992,0.55379 0.19949,1.06305 0.30033,1.54971 0.0453,0.20022 0.0883,0.39549 0.13565,0.60017 0.30358,1.31286 0.60949,2.38314 0.95706,3.2586 0.008,0.0189 0.0152,0.0394 0.023,0.0581 0.0311,0.0772 0.0643,0.14563 0.0961,0.21974 0.71093,1.57489 1.59371,2.36047 2.85116,2.73352 0.54499,0.16169 1.8565797,0.38216 2.9147197,0.49005 0.69719,0.0711 1.154,0.0754 1.40306,0.0375 -0.19369,-0.14295 -0.78193,-0.31148 -1.78047,-0.43849 -4.3097497,-0.54816 -5.3237997,-2.29478 -6.5747797,-11.32553 -1.24351,-8.97689 -1.32115,-10.06926 -1.24037,-17.81521 -0.0808,-7.74545 -0.003,-8.83803 1.24037,-17.81471 1.25098,-9.03075 2.26503,-10.77738 6.5747797,-11.32553 0.9988,-0.12704 1.58693,-0.29602 1.78047,-0.43899 -0.0831,-0.0127 -0.18254,-0.022 -0.31435,-0.024 z m 78.0834,0.35189 c -2.58864,-0.011 -6.57685,0.0183 -12.69855,0.0711 l -13.9159,0.12013 c -0.1255,0.006 -0.30112,0.0115 -0.38442,0.017 l -2.60639,0.17369 -0.20472,1.40406 c -0.11263,0.77216 -0.12039,2.28605 -0.017,3.36472 l 0.17169,1.79198 4.98401,-0.0671 c 2.15523,-0.0842 5.29412,-0.18097 7.91076,-0.24027 3.4891,-0.0791 5.54112,-0.19111 7.29357,-0.52858 1.29208,-0.37584 3.15035,-0.99729 5.04908,-1.69588 1.2403,-0.51444 3.24474,-1.27036 4.94348,-1.86606 0.98263,-0.3717 2.67782,-1.0158 2.94075,-1.11323 0.61366,-0.22741 1.1609,-0.66065 1.21635,-0.96257 0.0588,-0.32037 -0.36828,-0.45062 -4.68269,-0.46902 z m -34.11925,0.23576 -0.84944,0.0145 -2.53831,0.11012 c -1.95161,0.0847 -6.28814,0.21986 -9.63667,0.30033 -8.7252,0.20968 -14.20546,0.48498 -14.45099,0.72631 -0.47275,0.46467 0.27771,1.28063 2.59738,2.82362 1.86699,1.24188 2.90735,1.88838 4.84035,2.23898 0.83856,0.13921 1.85835,0.22986 3.09193,0.30934 1.87404,0.0935 4.37167,0.12097 7.93027,0.15167 6.13016,0.0529 8.9629,0.0173 9.85991,-0.14566 l -0.1812,-1.14878 c -0.11775,-0.74784 -0.31485,-2.26456 -0.43848,-3.37022 l -0.22475,-2.01023 z m -45.16798,0.73031 -0.19722,0.0125 c -1.19299,0.0765 -2.2127297,0.34803 -2.7295197,0.7263 -0.45374,0.33211 -1.07709,1.02571 -1.38503,1.54121 -0.44904,0.75168 -1.13258,3.27081 -1.29394,4.44642 0.0907,-0.22586 0.19521,-0.56503 0.29033,-0.96207 0.98512,-4.11227 2.06367,-5.40395 4.7482497,-5.68529 0.20081,-0.021 0.38929,-0.0487 0.56713,-0.0791 z m 0.7223,0.68976 c -0.22319,-0.005 -0.47724,0.0115 -0.78437,0.0426 -0.7936,0.0802 -1.7758697,0.35279 -2.1829197,0.60567 -1.01947,0.63335 -1.92798,2.19002 -2.18742,3.74915 -0.11956,0.71854 -0.55029,1.95264 -0.95756,2.74203 -0.47738,0.9253 -0.88534,2.57204 -1.14827,4.63513 -0.2243,1.76008 -0.48798,3.81205 -0.58565,4.55955 -0.0977,0.7475 -0.0624,1.54047 0.0786,1.76245 0.17511,0.27577 0.23614,4.88801 0.21023,9.49901 0.0259,4.61117 -0.0351,9.22322 -0.21023,9.49901 -0.14095,0.22198 -0.17625,1.01545 -0.0786,1.76295 0.0977,0.7475 0.36135,2.79897 0.58565,4.55904 0.26293,2.0631 0.67089,3.71034 1.14827,4.63563 0.40727,0.7894 0.838,2.023 0.95756,2.74154 0.25944,1.55913 1.16795,3.1163 2.18742,3.74965 0.40705,0.25288 1.3893197,0.52546 2.1829197,0.60567 1.22852,0.12417 1.60825,0.0123 2.55633,-0.75334 0.61647,-0.49782 3.82173,-1.9456 7.18044,-3.24308 6.71289,-2.59322 7.7993,-3.02925 8.39229,-3.75416 0.32157,-0.53183 0.54043,-1.16712 0.62269,-1.83753 0.0117,-0.12976 0.023,-0.26666 0.033,-0.42197 0.002,-0.0607 0.005,-0.12121 0.005,-0.1822 -0.002,-0.64092 0.0326,-8.6248 0.0731,-17.36121 -0.0404,-8.73639 -0.0748,-16.71979 -0.0731,-17.36071 1.5e-4,-0.0609 -0.002,-0.12158 -0.005,-0.1822 -0.01,-0.15531 -0.0214,-0.29221 -0.033,-0.42197 -0.0823,-0.67097 -0.30119,-1.30694 -0.62319,-1.83904 -0.59314,-0.7244 -1.68147,-1.16093 -8.39179,-3.75315 -3.35871,-1.29748 -6.56397,-2.74476 -7.18044,-3.24259 -0.71106,-0.5742 -1.10241,-0.78089 -1.77196,-0.79588 z m 91.640905,0.67625 c -1.18516,-0.0542 -3.11508,0.55656 -6.981235,2.00222 -7.19752,2.69135 -9.49056,3.75886 -9.74478,4.53652 -0.006,0.0195 -0.0107,0.0487 -0.016,0.0726 l 0.017,0.82091 c 0.005,0.23118 0.0283,0.63288 0.0646,1.13475 0.0146,0.0936 0.025,0.18769 0.042,0.27981 0.91253,4.91947 1.33138,11.31873 1.23987,18.0725 0.0915,6.75376 -0.32734,13.15303 -1.23987,18.0725 -0.017,0.0919 -0.027,0.18593 -0.0415,0.2793 -0.0363,0.5023 -0.0603,0.90445 -0.0651,1.13576 l -0.017,0.82091 c 0.005,0.0238 0.01,0.0531 0.016,0.0726 0.25422,0.77766 2.54726,1.84517 9.74478,4.53652 6.185845,2.31306 7.415015,2.48862 8.567485,1.22335 0.64762,-0.71099 1.35319,-2.14439 2.02375,-3.99241 0.005,-0.0151 0.0106,-0.0299 0.016,-0.0451 0.0804,-0.22246 0.1596,-0.45644 0.23877,-0.69027 0.88106,-2.63341 1.61786,-5.85124 2.22996,-9.73777 0.37549,-2.38415 0.57608,-7.03905 0.58916,-11.67542 -0.0131,-4.63637 -0.21367,-9.29077 -0.58916,-11.67492 -0.61263,-3.88995 -1.34987,-7.11008 -2.23197,-9.74478 -0.0776,-0.22921 -0.15546,-0.45898 -0.23426,-0.67725 -0.007,-0.0204 -0.0147,-0.0402 -0.022,-0.0606 -0.66953,-1.84349 -1.37371,-3.27312 -2.02024,-3.98291 -0.43217,-0.47447 -0.87515,-0.74635 -1.58625,-0.77886 z m 11.86763,0.12013 c -1.19115,0.009 -2.25875,0.0334 -3.12045,0.0791 l -4.8794,0.25929 0.66474,0.72931 c 0.38423,0.33413 0.87295,0.88522 1.22535,1.39504 0.27911,0.3378 0.51811,0.64394 0.66173,0.85044 0.65795,0.54362 2.02074,0.65239 8.11098,1.28993 8.58339,0.89853 20.15971,3.17418 25.68692,5.04958 0.8459,0.28702 1.60434,0.45657 1.68537,0.37692 0.14262,-0.14018 -0.036,-1.19089 -0.37442,-2.51728 -0.68,-2.43061 -1.88295,-5.68741 -2.38263,-5.94909 -0.0914,-0.0478 -0.256,-0.0967 -0.47303,-0.14566 l -2.74153,-0.30934 c -1.11442,-0.12585 -2.68305,-0.27861 -4.23919,-0.41846 -3.95277,-0.27305 -8.8626,-0.5015 -13.33576,-0.61568 -2.20864,-0.0398 -4.43289,-0.0636 -6.48868,-0.0741 z m -8.55747,1.00612 0.67725,1.49615 c 0.548,1.21078 1.03113,2.4966 1.45912,3.86278 0.0212,0.0629 0.0418,0.1195 0.0631,0.1832 1.67986,5.03962 2.45648,11.57083 2.41066,20.25091 0.0458,8.68012 -0.7308,15.21127 -2.41066,20.25091 -0.0212,0.0635 -0.0419,0.11996 -0.0631,0.1827 -0.42803,1.36641 -0.91104,2.65282 -1.45912,3.86377 l -0.67725,1.49616 c 0.11119,-0.0454 0.22372,-0.10008 0.33888,-0.16368 l 0.71479,-0.67425 c 0.30358,-0.28652 0.59266,-0.61075 0.86896,-0.96957 1.85371,-2.67474 3.10702,-6.78718 3.77468,-12.40823 0.34213,-3.04343 0.53033,-6.56889 0.56813,-10.60473 0.003,-0.33193 1.1e-4,-0.64713 10e-4,-0.97308 -7.7e-4,-0.32579 0.002,-0.64082 -10e-4,-0.97258 -0.0378,-4.03455 -0.22571,-7.55946 -0.56763,-10.60223 -0.66742,-5.62098 -1.92043,-9.73403 -3.77368,-12.40923 -0.2767,-0.35951 -0.56639,-0.68409 -0.87046,-0.97108 l -0.71479,-0.67474 c -0.11513,-0.0636 -0.22772,-0.11779 -0.33888,-0.16318 z M 9.360735,12.98327 c 0.28078,0.009 0.58844,0.0496 0.92553,0.12214 3.31402,0.71272 13.46042,4.13734 14.08909,4.75526 0.0847,0.0833 0.15787,0.15981 0.22174,0.24427 0.64207,0.38655 0.59212,0.77723 0.2643,15.83802 -0.0289,1.32579 -0.051,2.77576 -0.0671,4.26122 0.0161,1.48563 0.0382,2.93528 0.0671,4.26121 0.32783,15.06125 0.37783,15.45197 -0.2643,15.83853 -0.0639,0.0844 -0.13701,0.16099 -0.22174,0.24427 -0.62867,0.61792 -10.77507,4.04204 -14.08909,4.75476 -1.79781,0.38665 -2.7598797,-0.11826 -3.2581097,-1.71039 -0.52444,-1.67588 -1.50846,-8.08683 -1.88508,-12.28159 -0.27768,-3.09271 -0.35152,-7.01293 -0.27681,-11.10679 -0.0747,-4.09376 -8.7e-4,-8.01366 0.27681,-11.10629 0.37662,-4.19476 1.36064,-10.60571 1.88508,-12.28159 0.40482,-1.2936 1.1159097,-1.86991 2.3325797,-1.83303 z m 133.674425,0.19922 c -0.25583,-0.004 -0.41608,-0.004 -0.46952,0.12514 0.0666,0.41264 0.27692,1.1545 0.56763,2.02274 0.0434,0.11981 0.0615,0.17639 0.11012,0.31034 0.27364,0.75328 0.56114,1.65787 0.80038,2.48625 0.27551,0.93073 0.49526,1.77529 0.56813,2.24348 0.008,0.0543 0.0175,0.0982 0.026,0.14917 0.23484,0.91143 0.50039,1.19115 1.27391,1.56824 0.59746,0.29126 1.16596,0.45116 1.2634,0.35539 0.2332,-0.22921 -0.67478,-4.7971 -1.3595,-6.83907 -0.55238,-1.6473 -1.41762,-2.40057 -2.78058,-2.42168 z M 10.307285,14.66163 c -0.77048,-0.003 -1.29675,0.38431 -1.69337,1.20083 -1.2892997,2.65425 -2.2322597,12.79571 -2.3551097,22.34172 0.12285,9.54601 1.06581,19.68747 2.3551097,22.34172 0.39644,0.81616 0.92244,1.20407 1.69237,1.20133 0.50085,-0.10416 1.16575,-0.27243 1.92863,-0.48153 0.86931,-0.2911 2.50086,-0.82765 4.43391,-1.45511 4.56223,-1.48089 6.33784,-2.13951 7.02577,-2.76106 0.32197,-0.63968 0.30372,-2.23662 0.10862,-9.68872 -0.0746,-2.84901 -0.10264,-6.01831 -0.0871,-9.1251 -1.1e-4,-0.021 10e-5,-0.0421 0,-0.0631 -0.0156,-3.10678 0.0125,-6.27609 0.0871,-9.12509 0.1951,-7.45211 0.21335,-9.04855 -0.10862,-9.68822 -0.68793,-0.62155 -2.46354,-1.28017 -7.02577,-2.76106 -1.93305,-0.62746 -3.5646,-1.16401 -4.43391,-1.45511 -0.7624,-0.20897 -1.42689,-0.37736 -1.92763,-0.48153 z m 98.993045,1.37152 c 0.0485,0.17123 0.16196,0.52559 0.29082,0.92452 l 0.25729,0.66023 c 1.66263,4.26456 2.47456,12.38449 2.43819,20.58628 0.0364,8.20189 -0.77554,16.32167 -2.43819,20.58628 l -0.25729,0.66023 c -0.12886,0.39893 -0.24228,0.75329 -0.29082,0.92452 l 2.55733,-0.1847 c 10.07231,-0.7275 21.81175,-2.75965 29.17879,-5.05109 3.5746,-1.11185 3.26989,-0.63683 3.80621,-5.85798 0.22898,-2.95965 0.36889,-6.91469 0.38843,-10.85251 -2e-4,-0.0752 7.7e-4,-0.14951 5.1e-4,-0.22475 2.6e-4,-0.0752 -7.7e-4,-0.14955 -5.1e-4,-0.22475 -0.0195,-3.93783 -0.15945,-7.89236 -0.38843,-10.85201 -0.53632,-5.22115 -0.23161,-4.74613 -3.80621,-5.85798 -7.36704,-2.29144 -19.10648,-4.32359 -29.17879,-5.05109 z M 4.3396853,16.99571 c -0.0381,0.0774 -0.0749,0.14902 -0.11062,0.21174 0.0325,-0.0427 0.0698,-0.11742 0.11062,-0.21174 z m 74.7692297,3.71661 c -1.08042,0.003 -2.27283,0.0123 -3.5284,0.0285 -3.25059,0.0419 -10.60826,0.13263 -17.10843,0.21323 -8.4458,0.18174 -16.87098,0.40052 -21.62994,0.59015 l -5.71632,0.22776 c 0.66947,0.003 1.51343,-0.0128 2.47824,-0.0511 3.94796,-0.15666 7.90712,-0.21581 30.61688,-0.453 8.77243,-0.19307 16.04689,-0.3919 18.78428,-0.52909 -0.95048,-0.0214 -2.29812,-0.031 -3.89631,-0.0265 z m 5.3324,0.88148 -14.42596,0.0571 c -5.28669,0.0209 -10.83805,0.0624 -14.92001,0.10612 -11.65356,0.17988 -19.81015,0.40581 -22.97142,0.64471 -1.53593,0.11607 -2.27876,0.18748 -2.63742,0.33938 -0.077,1.03153 -0.24036,3.91799 -0.41496,7.40569 -0.13274,2.65157 -0.20923,5.38492 -0.23175,8.05742 0.0225,2.67265 0.099,5.40568 0.23175,8.05741 0.17459,3.48751 0.338,6.37401 0.41496,7.4057 0.35866,0.1519 1.10149,0.2238 2.63742,0.33988 3.16127,0.23889 11.31786,0.46432 22.97142,0.64421 4.08196,0.0437 9.63332,0.0852 14.92001,0.10611 l 14.42596,0.0576 0.42547,-2.8006 c 0.16732,-1.1027 0.29935,-2.6053 0.39945,-4.3408 0.14931,-2.83639 0.22568,-6.16388 0.22875,-9.46948 -0.003,-3.30605 -0.0799,-6.63387 -0.22925,-9.47048 -0.1001,-1.73505 -0.23166,-3.23683 -0.39895,-4.3393 l -0.42547,-2.8006 z m 60.945445,1.30945 c -0.2354,0.0228 -0.24527,0.296 -0.24076,0.88548 0.0333,0.32811 0.0898,0.70367 0.15417,1.03815 0.091,0.0969 0.23048,0.10088 0.4515,0.041 0.0205,-0.006 0.0421,-0.006 0.0631,-0.009 0.19426,-0.22448 0.59154,0.0258 1.33648,0.76835 0.63818,0.63616 0.83186,0.72171 0.68176,0.30033 -0.11533,-0.32376 -0.20624,-1.01654 -0.20173,-1.5392 0.001,-0.12537 -0.006,-0.23377 -0.018,-0.33537 -0.13368,-0.31866 -0.4236,-0.51161 -1.02013,-0.75484 -0.64722,-0.26389 -1.00722,-0.41422 -1.20634,-0.39493 z m 3.13297,1.67034 c -0.0174,0.0112 -0.0358,0.0377 -0.0551,0.0866 -0.084,0.21359 -0.082,0.55492 0,0.77586 0.0317,-0.0644 0.0553,-0.24122 0.0611,-0.51757 0.003,-0.13364 1e-5,-0.24936 -0.006,-0.34489 z m -2.11935,1.90461 c -0.20969,0.275 -0.38893,1.1455 -0.4575,2.42268 -0.0523,0.97383 -0.0982,4.92543 -0.11513,9.3033 0.017,4.37787 0.0628,8.32997 0.11513,9.30379 0.0686,1.27719 0.24781,2.14768 0.4575,2.42268 0.222,-0.35828 0.42054,-1.52091 0.55111,-2.97529 0.0413,-2.08695 0.0486,-4.90109 0.0105,-6.94518 -0.0384,-0.7465 -0.0574,-1.41251 -0.0491,-1.806 -0.008,-0.39357 0.0106,-1.05979 0.0491,-1.806 0.0381,-2.04427 0.0308,-4.85818 -0.0105,-6.94518 -0.13057,-1.45439 -0.32911,-2.61651 -0.55111,-2.9748 z m 2.39015,1.63331 c -0.0203,0.10828 -0.0323,0.22851 -0.036,0.3569 0.0157,-0.069 0.0276,-0.19595 0.036,-0.3569 z m -1.05517,0.14716 c -0.0375,0.5771 -0.0201,2.07393 0.0516,3.7957 0.0767,1.8432 0.20456,3.3908 0.30583,3.79971 0.03,-0.0173 0.0621,-0.0406 0.0956,-0.0691 0.0555,-0.47443 0.0452,-1.89436 -0.035,-3.58146 -0.0324,-0.68135 -0.0512,-1.06785 -0.0746,-1.55372 -0.10255,-1.05538 -0.2229,-1.98272 -0.33888,-2.37913 -0.002,-0.005 -0.003,-0.007 -0.005,-0.012 z m 0.35739,12.29561 c -0.10127,0.40891 -0.22909,1.95701 -0.30583,3.8002 -0.0717,1.72178 -0.0891,3.21861 -0.0516,3.79571 0.002,-0.005 0.003,-0.006 0.005,-0.012 0.116,-0.39648 0.23632,-1.32454 0.33888,-2.38014 0.0234,-0.48571 0.0422,-0.87221 0.0746,-1.55322 0.0802,-1.68682 0.0905,-3.10628 0.035,-3.58096 -0.0335,-0.0285 -0.0656,-0.0523 -0.0956,-0.0696 z m 0.66224,7.38617 c 0.004,0.12821 0.0153,0.24827 0.0355,0.3564 -0.008,-0.16082 -0.0198,-0.28743 -0.0355,-0.3564 z m -0.9035,2.28303 c -0.0762,-0.022 -0.30141,0.16001 -0.70028,0.55762 -0.74494,0.74259 -1.14222,0.99333 -1.33648,0.76885 -0.0209,-0.003 -0.0426,-0.003 -0.0631,-0.009 -0.2211,-0.0599 -0.36052,-0.056 -0.4515,0.041 -0.0644,0.33447 -0.12083,0.70954 -0.15417,1.03765 -0.008,1.08807 0.0347,1.06643 1.4471,0.49054 0.59653,-0.24322 0.88644,-0.43617 1.02012,-0.75483 0.0119,-0.10161 0.0191,-0.21 0.018,-0.33538 -0.005,-0.52265 0.0864,-1.21494 0.20172,-1.5387 0.0563,-0.15802 0.0643,-0.24459 0.0185,-0.25778 z m 0.61318,0.74883 c -0.0822,0.22092 -0.0841,0.56263 0,0.77636 0.0192,0.0489 0.0377,0.0749 0.0551,0.0861 0.006,-0.0955 0.009,-0.21075 0.006,-0.34438 -0.006,-0.27648 -0.0294,-0.45377 -0.0611,-0.51808 z m -0.27431,2.74954 c -0.0209,-0.0104 -0.0436,0.0488 -0.0666,0.18621 -0.0735,0.43986 -0.36144,1.951 -0.63971,3.35821 -1.06734,5.39755 -2.80544,9.2738 -4.72673,10.54117 -0.50433,0.33267 -0.85623,0.66617 -0.78236,0.74131 0.005,0.006 0.0125,0.009 0.019,0.0135 0.18062,-0.0905 0.46473,-0.25643 0.87597,-0.51207 2.24535,-1.39577 5.51477,-9.7058 5.37995,-13.67413 -0.0119,-0.35187 -0.0276,-0.56251 -0.0536,-0.64721 -0.002,-0.002 -0.004,-0.006 -0.006,-0.007 z m -1.16979,0.21774 c -0.22902,0.0182 -0.66064,0.16298 -1.10873,0.38142 -0.77358,0.37712 -1.03906,0.65664 -1.27391,1.56824 -0.009,0.0509 -0.0176,0.0945 -0.026,0.14866 -0.0727,0.46729 -0.29188,1.30941 -0.56662,2.23798 -0.23958,0.83 -0.52757,1.7371 -0.80189,2.49226 -0.0484,0.13335 -0.0664,0.1895 -0.10962,0.30884 -0.29104,0.86907 -0.50148,1.6114 -0.56813,2.02424 0.0534,0.12938 0.21369,0.12908 0.46952,0.12514 1.36296,-0.0211 2.2282,-0.77488 2.78058,-2.42218 0.68472,-2.04198 1.5927,-6.60936 1.3595,-6.83857 -0.0244,-0.0239 -0.0783,-0.0321 -0.15467,-0.026 z M 31.184385,54.63586 c -0.0208,7e-5 -0.0365,10e-4 -0.0571,10e-4 l 5.71482,0.22725 c 4.76313,0.18979 13.19874,0.40882 21.65196,0.59065 6.49085,0.0805 13.84,0.17134 17.08641,0.21324 3.10852,0.0401 5.82323,0.0378 7.41721,0.002 -2.7402,-0.13703 -9.99767,-0.33589 -18.74925,-0.52859 -22.73698,-0.23746 -26.69472,-0.29727 -30.64441,-0.454 -0.93449,-0.0371 -1.76037,-0.0536 -2.41968,-0.0516 z m 112.754775,0.31985 c -0.21101,-0.017 -0.88414,0.1443 -1.6243,0.39544 -5.52721,1.87541 -17.10353,4.15106 -25.68692,5.04959 -6.09281,0.63781 -7.45435,0.74621 -8.11198,1.29043 -0.14371,0.20651 -0.38204,0.51215 -0.66073,0.84944 -0.3524,0.50981 -0.84112,1.06141 -1.22535,1.39554 l -0.66474,0.72931 4.8794,0.25879 c 0.8669,0.046 1.94096,0.0706 3.14097,0.0796 2.05045,-0.0106 4.26671,-0.0344 6.46816,-0.0741 4.47051,-0.11411 9.37716,-0.34284 13.32875,-0.61568 1.55843,-0.14002 3.1301,-0.29292 4.2462,-0.41896 l 2.74454,-0.30985 c 0.21528,-0.0487 0.37914,-0.0971 0.47002,-0.14466 0.49947,-0.26157 1.70149,-3.51578 2.38163,-5.94608 0.33897,-1.32797 0.51816,-2.38049 0.37542,-2.52078 -0.0101,-0.01 -0.0309,-0.0156 -0.0611,-0.018 z m -110.696995,0.57865 -3.73263,0.026 -0.35089,1.03515 c -0.1243,0.3667 -0.28795,0.70586 -0.49104,1.02363 -0.055,0.12516 -0.11167,0.24767 -0.17119,0.3619 -0.75326,1.44557 -1.07498,1.61023 -9.34234,4.78279 -4.03196,1.54725 -6.21344,2.55291 -7.13089,3.39576 -0.0836,0.20869 -0.10174,0.42387 -0.0996,0.67075 0.004,0.41528 0.1876,0.81219 0.40845,0.88197 0.95066,0.30035 36.33803,1.74509 42.27528,1.72641 0.0394,-0.0719 0.0511,-0.1614 0.0521,-0.2733 0.008,-0.87193 -1.53469,-1.01603 -12.12892,-1.13326 -12.00097,-0.13279 -16.30809,-0.44353 -16.86266,-1.21584 -0.62994,-0.87727 0.007,-1.88749 2.09381,-3.31867 2.94517,-2.02017 5.02587,-2.93605 7.34563,-3.23358 0.25397,-0.0326 0.71845,-0.0659 1.29243,-0.0996 1.47988,-0.12187 3.40015,-0.1825 6.00465,-0.22075 1.34305,-0.0332 2.74401,-0.0618 4.16611,-0.0806 8.10938,-0.107 9.39401,-0.19277 10.09717,-0.67475 0.5599,-0.38379 1.18928,-0.48794 5.7884,-0.37942 10e-4,0 0.002,-1e-5 0.003,0 2.32213,0.009 5.3764,0.0918 9.3063,0.25077 2.86013,0.1157 4.79531,0.2103 6.28396,0.3564 1.37456,0.0909 2.28176,0.1764 2.48174,0.24427 0.20291,0.0689 0.76174,0.28056 1.31546,0.49054 0.69196,0.2222 1.40461,0.49875 2.26951,0.85245 0.61825,0.25283 1.16862,0.4696 1.73742,0.69677 2.04604,0.78833 5.35101,2.01085 8.14301,3.00833 0.55959,0.19268 1.06641,0.37034 1.68987,0.58164 2.587365,0.87688 4.089095,1.44395 5.001545,1.97969 0.14893,0.0694 0.26458,0.12762 0.32085,0.16518 0.10426,0.0696 0.21083,0.16796 0.31485,0.28382 0.41247,0.35978 0.62715,0.73952 0.77786,1.22235 0.27496,0.88088 0.4652,0.99503 1.93214,1.16179 1.67819,0.19076 18.97527,0.27492 24.68331,0.15967 0.92939,-0.0466 1.69432,-0.0989 2.18141,-0.15767 0.2902,-0.035 0.62218,-0.0792 0.98159,-0.13015 0.01,-0.001 0.0216,-0.003 0.0315,-0.005 0.70094,-0.11766 1.49775,-0.25787 2.256,-0.39944 1.40735,-0.26275 3.09318,-0.56894 3.74615,-0.68075 1.12743,-0.19306 1.16866,-0.24291 0.8204,-0.9901 -0.24981,-0.53598 -0.26023,-0.77725 0.27731,-1.3595 2.6e-4,-2.6e-4 7.7e-4,-10e-4 0.001,-0.002 0.191,-0.26799 0.45448,-0.56784 0.79988,-0.91551 1.44329,-1.45277 1.78993,-1.40314 -5.34441,-0.76935 -0.26703,0.0237 -0.55904,0.0463 -0.84443,0.0691 -6.15565,0.52427 -12.55301,0.77426 -19.83295,0.77136 -5.22817,-0.002 -8.17626,0.0659 -9.53856,0.22475 -0.0626,0.0628 -0.14969,0.10345 -0.24777,0.10261 -0.064,-5.1e-4 -0.11236,-0.0193 -0.14516,-0.0491 -0.18153,0.0317 -0.32625,0.0653 -0.41496,0.10312 -0.003,0.033 -0.006,0.0655 -0.007,0.10111 -5.1e-4,0.1762 -0.50016,0.4339 -1.11023,0.57263 -0.89951,0.20456 -1.70573,0.0273 -4.26572,-0.93703 -7.493815,-2.8228 -12.392425,-4.96413 -13.293215,-5.81143 -0.86685,-0.81539 -0.93462,-1.02786 -0.74482,-2.32908 l 0.20873,-1.43209 -9.52404,-0.0831 c -4.15956,-0.0363 -11.91334,-0.1746 -19.3409,-0.32386 -2.59082,-0.0315 -5.2623,-0.0702 -7.65797,-0.11662 -5.90374,-0.11443 -12.41401,-0.1964 -14.46701,-0.1822 z M 4.2295653,59.20242 c 0.0353,0.0619 0.0716,0.13252 0.10912,0.20873 -0.0402,-0.0928 -0.077,-0.16616 -0.10912,-0.20873 z m 54.2094797,0.10211 c -0.47451,0.004 -0.90753,0.0675 -1.06968,0.16968 -0.37608,0.23694 -1.53851,5.48835 -1.54771,6.99174 -0.004,0.64234 0.15256,0.71986 1.43709,0.70879 l 0.6417,-0.006 c 0.26303,-0.24257 0.30938,-1.04736 0.33187,-3.65455 l 0.032,-3.71411 0.37241,0.008 0,-0.014 1.04115,0.007 c 0.23782,10e-4 1.52928,0.043 2.95627,0.0906 l 5.9601,0.12364 10.32993,0.21474 0.75233,0.28331 0.2708,0.01 4.37384,1.7139 c 2.40561,0.9426 6.672,2.5221 9.48099,3.51038 0.75567,0.26587 1.47709,0.52977 2.15138,0.78237 0.0414,0.0142 0.12008,0.0425 0.15868,0.0556 0.85502,0.29038 1.56428,0.57276 2.118345,0.83592 0.63235,0.26468 1.05058,0.4628 1.14777,0.55162 0.40707,0.37202 0.37675,0.51585 -0.23076,1.0917 -0.38482,0.36477 -0.69954,0.72967 -0.69877,0.8109 7.7e-4,0.0812 0.72234,0.14126 1.60328,0.13365 1.12138,-0.01 1.48365,-0.0838 1.57023,-0.39444 -0.0127,-0.0531 -0.0251,-0.10582 -0.0435,-0.16968 -0.25997,-0.89878 -0.7686,-1.44843 -2.39666,-2.1684 -0.0777,-0.0343 -0.15212,-0.068 -0.23425,-0.10312 -0.81274,-0.345 -1.879405,-0.73254 -3.294655,-1.21685 -2.52502,-0.86406 -7.17733,-2.56907 -10.33844,-3.78869 l -2.51979,-0.97207 c -3.70624,-1.30486 -5.94783,-1.42329 -15.83102,-1.63231 -3.78902,-0.0801 -7.40947,-0.18878 -8.0454,-0.24127 -0.15898,-0.0131 -0.32136,-0.0187 -0.47953,-0.0175 z M 4.1284453,59.76404 c 0.16158,1.17597 0.845,3.69441 1.29394,4.44592 0.30794,0.51549 0.93129,1.20909 1.38503,1.5412 0.51679,0.37827 1.5365297,0.64925 2.7295197,0.7258 l 0.19121,0.0125 c -0.17628,-0.03 -0.36241,-0.0583 -0.56112,-0.0791 -2.6845797,-0.28134 -3.7631297,-1.57252 -4.7482497,-5.68479 -0.095,-0.39676 -0.19971,-0.7357 -0.29033,-0.96156 z m 55.2376297,0.74932 -0.17169,1.79149 c -0.10337,1.07866 -0.0956,2.59305 0.017,3.36522 l 0.20473,1.40405 2.60638,0.1737 c 0.0823,0.005 0.25636,0.0114 0.37992,0.017 l 13.92041,0.12014 c 16.32453,0.14081 17.47537,0.11415 17.38123,-0.39845 -0.0554,-0.30192 -0.60269,-0.73465 -1.21634,-0.96206 -0.26463,-0.0981 -1.96737,-0.74484 -2.95978,-1.12024 -1.69045,-0.5932 -3.67663,-1.34198 -4.91344,-1.85455 -1.9028,-0.70033 -3.76597,-1.32432 -5.0606,-1.70088 -1.75233,-0.3374 -3.80431,-0.44903 -7.29307,-0.52809 -2.62153,-0.0594 -5.76584,-0.15643 -7.92126,-0.24076 l -4.97351,-0.0666 z m -8.64757,0.009 c -1.31562,-0.002 -2.91225,0.006 -4.83185,0.0225 -3.55348,0.0306 -6.04859,0.058 -7.92177,0.15117 -1.22523,0.0788 -2.24099,0.16814 -3.0759,0.30534 -1.94942,0.34951 -2.9897,0.99665 -4.86488,2.24398 -2.31967,1.543 -3.07013,2.35845 -2.59738,2.82312 0.24553,0.24133 5.72579,0.51713 14.45099,0.72681 3.34853,0.0805 7.68506,0.21561 9.63667,0.30033 l 2.51928,0.10962 0.86847,0.0145 0.22475,-2.01023 c 0.12363,-1.10566 0.32073,-2.62188 0.43848,-3.36973 l 0.1807,-1.14877 c -0.61641,-0.11185 -2.14251,-0.16434 -5.02756,-0.16868 z m 93.972985,2.87718 c -0.19161,0.0116 -0.50875,0.0865 -1.00611,0.20923 -0.78205,0.19293 -1.48613,0.59616 -2.29754,1.32246 -0.0221,0.0343 -0.0448,0.0652 -0.0666,0.10111 -0.35825,0.59102 -1.0319,1.35679 -1.49715,1.70189 -0.0871,0.0646 -0.16393,0.12284 -0.23226,0.1777 -0.17995,0.30748 -0.20156,0.52163 -0.0946,0.69727 0.31037,0.50966 0.85009,0.63835 1.47564,0.48553 0.16359,-0.0848 0.33962,-0.18403 0.5476,-0.31334 1.62086,-1.00775 3.68621,-3.77421 3.29365,-4.37384 -0.0344,-0.006 -0.0712,-0.0112 -0.12264,-0.008 z m -48.202345,5.59917 c -2.0109,1.70538 -2.75226,2.65726 -3.45932,4.44342 -0.49266,1.24453 -0.60241,1.91661 -0.29683,2.11234 1.864046,-0.212067 4.33433,-5.171786 3.75615,-6.55576 z m -36.26763,-0.43598 c -2.967,0.01 -4.13839,0.0713 -4.60609,0.20823 -0.007,0.0226 -0.0171,0.042 -0.022,0.0656 -0.12076,0.57131 1.61691,0.67336 15.78347,0.92753 9.40181,0.16868 14.79458,0.25204 18.05097,0.24677 4.07497,-0.0305 4.45498,-0.18108 4.7943,-0.54961 0.29238,-0.31751 0.43347,-0.47627 -1.96467,-0.57713 -0.002,-7e-5 -0.004,6e-5 -0.006,0 -1.53034,-0.0387 -3.84036,-0.0826 -6.57728,-0.12765 -2.69797,-0.0314 -6.02386,-0.0615 -10.61775,-0.10111 -7.32643,-0.0632 -11.93519,-0.10223 -14.83492,-0.0926 z"
     style="fill:#000000"
     sodipodi:nodetypes="csccscccccccscscsssccscscssscccccccssscscccccsccccsccccsccccccsccccccssscccccsccsccsccccssccccccccccccssscccccccsccsccccccccsccccsscccccccccccccscsccsccccccccsscccsccccccccscscccccccccccsccccccccccssccsccccscccccccsccccccccccsssccsccccccccccccccccsssscccccssssscscccccccccsccccscccccccccccsscccscsccccccccccccsscccccccccccccccccccccccccccccccccccccsssscssccccccccscscccscsccscsccscsccccccccccsscccccsccccccccscccccccscscscscsccccccccccccccccsccccccccccccccccccccccccccccccccccscccccccccccscccccccccccccccccscccscccccscccccccscccccccsccccccsscccccccccccccccccsccscccccsscccccsccscccsccscccssccccsssccscccccccccssccscscccccccccccccccccccccscccssscccccsccsccccsccccccccsscccscccccscccccccsssccccccccacccccscsccacscccccscccccscc" />
  <path
     style="fill:#c4d5fc;fill-opacity:1"
     d="m 140.4498,8.25404 c -0.39854,0.0145 -0.7329,0.18439 -0.95256,0.5451 -0.10698,0.17568 -0.085,0.38967 0.0951,0.69727 0.0683,0.0548 0.14474,0.11366 0.23176,0.1782 0.46525,0.3451 1.1389,1.11087 1.49715,1.70188 0.0217,0.0357 0.0441,0.0665 0.0661,0.10061 0.81159,0.72655 1.51585,1.13001 2.29804,1.32297 0.63097,0.15565 0.9664,0.23094 1.12875,0.20122 0.39256,-0.59964 -1.67279,-3.36659 -3.29365,-4.37434 -0.20875,-0.12979 -0.38555,-0.22838 -0.54961,-0.31335 -0.18211,-0.0443 -0.35709,-0.0655 -0.52107,-0.0596 z m 2.58536,4.92845 c -0.25583,-0.004 -0.41608,-0.004 -0.46952,0.12514 0.0666,0.41264 0.27692,1.1545 0.56763,2.02274 0.0434,0.11981 0.0615,0.17639 0.11012,0.31034 0.27364,0.75328 0.56114,1.65787 0.80038,2.48625 0.27551,0.93073 0.49526,1.77529 0.56813,2.24348 0.008,0.0543 0.0175,0.0982 0.026,0.14917 0.23484,0.91143 0.50039,1.19115 1.27391,1.56824 0.59746,0.29126 1.16596,0.45116 1.2634,0.35539 0.2332,-0.22921 -0.67478,-4.7971 -1.3595,-6.83907 -0.55238,-1.6473 -1.41762,-2.40057 -2.78058,-2.42168 z m 3.98541,40.7571 c -0.22902,0.0182 -0.66064,0.16298 -1.10873,0.38142 -0.77358,0.37712 -1.03906,0.65664 -1.27391,1.56824 -0.009,0.0509 -0.0176,0.0945 -0.026,0.14866 -0.0727,0.46729 -0.29188,1.30941 -0.56662,2.23798 -0.23958,0.83 -0.52757,1.7371 -0.80189,2.49226 -0.0484,0.13335 -0.0664,0.1895 -0.10962,0.30884 -0.29104,0.86907 -0.50148,1.6114 -0.56813,2.02424 0.0534,0.12938 0.21369,0.12908 0.46952,0.12514 1.36296,-0.0211 2.2282,-0.77488 2.78058,-2.42218 0.68472,-2.04198 1.5927,-6.60936 1.3595,-6.83857 -0.0244,-0.0239 -0.0783,-0.0321 -0.15467,-0.026 z m -2.32908,9.45995 c -0.19161,0.0116 -0.50875,0.0865 -1.00611,0.20923 -0.78205,0.19293 -1.48613,0.59616 -2.29754,1.32246 -0.0221,0.0343 -0.0448,0.0652 -0.0666,0.10111 -0.35825,0.59102 -1.0319,1.35679 -1.49715,1.70189 -0.0871,0.0646 -0.16393,0.12284 -0.23226,0.1777 -0.17995,0.30748 -0.20156,0.52163 -0.0946,0.69727 0.31037,0.50966 0.85009,0.63835 1.47564,0.48553 0.16359,-0.0848 0.33962,-0.18403 0.5476,-0.31334 1.62086,-1.00775 3.68621,-3.77421 3.29365,-4.37384 -0.0344,-0.006 -0.0712,-0.0112 -0.12264,-0.008 z"
     id="path4818"
     inkscape:connector-curvature="0"
     sodipodi:nodetypes="ccccccscsccccccccccscscccscccccccscccccccccscsccc" />
  <path
     sodipodi:nodetypes="cccsccccccsccccccc"
     style="fill:#aa0004;fill-opacity:1;stroke:none;stroke-opacity:1"
     d="m 9.734155,9.91888 -0.19722,0.0125 c -1.19299,0.0765 -2.2735611,0.185813 -2.7903511,0.564083 -0.45374,0.33211 -1.0834748,0.929184 -1.4458613,1.642596 -0.3965411,0.78065 -1.0109173,3.331641 -1.1722773,4.507251 0.0907,-0.22586 0.19521,-0.56503 0.29033,-0.96207 1.2487226,-4.091993 2.06367,-5.40395 4.7482497,-5.68529 0.20081,-0.021 0.38929,-0.0487 0.56713,-0.0791 z M 4.1284453,59.76404 c 0.16158,1.17597 0.7638915,3.816073 1.2128315,4.567583 0.30794,0.51549 0.9921214,1.249644 1.4458614,1.581754 0.51679,0.37827 1.759578,0.811467 2.7497968,0.563583 l 0.19121,0.0125 c -0.17628,-0.03 -0.36241,-0.0583 -0.56112,-0.0791 -2.6845797,-0.28134 -3.7631297,-1.57252 -4.7482497,-5.68479 -0.095,-0.39676 -0.19971,-0.7357 -0.29033,-0.96156 z"
     id="path4845"
     inkscape:connector-curvature="0" />
</svg>
