<?xml version="1.0" encoding="UTF-8" standalone="no"?>
<!-- Created with Inkscape (http://www.inkscape.org/) -->

<svg
   xmlns:dc="http://purl.org/dc/elements/1.1/"
   xmlns:cc="http://creativecommons.org/ns#"
   xmlns:rdf="http://www.w3.org/1999/02/22-rdf-syntax-ns#"
   xmlns:svg="http://www.w3.org/2000/svg"
   xmlns="http://www.w3.org/2000/svg"
   xmlns:sodipodi="http://sodipodi.sourceforge.net/DTD/sodipodi-0.dtd"
   xmlns:inkscape="http://www.inkscape.org/namespaces/inkscape"
   width="23.283489mm"
   height="23.432711mm"
   viewBox="0 0 82.500552 83.029288"
   id="svg9642"
   version="1.1"
   inkscape:version="0.91 r13725"
   sodipodi:docname="stop.svg">
  <defs
     id="defs9644" />
  <sodipodi:namedview
     id="base"
     pagecolor="#ffffff"
     bordercolor="#666666"
     borderopacity="1.0"
     inkscape:pageopacity="0.0"
     inkscape:pageshadow="2"
     inkscape:zoom="2.8"
     inkscape:cx="132.66739"
     inkscape:cy="25.739191"
     inkscape:document-units="px"
     inkscape:current-layer="g10279"
     showgrid="false"
     inkscape:window-width="1600"
     inkscape:window-height="848"
     inkscape:window-x="0"
     inkscape:window-y="0"
     inkscape:window-maximized="1"
     fit-margin-top="0"
     fit-margin-left="0"
     fit-margin-right="0"
     fit-margin-bottom="0" />
  <metadata
     id="metadata9647">
    <rdf:RDF>
      <cc:Work
         rdf:about="">
        <dc:format>image/svg+xml</dc:format>
        <dc:type
           rdf:resource="http://purl.org/dc/dcmitype/StillImage" />
        <dc:title></dc:title>
      </cc:Work>
    </rdf:RDF>
  </metadata>
  <g
     inkscape:label="Vrstva 1"
     inkscape:groupmode="layer"
     id="layer1"
     transform="translate(-204.8698,-468.43242)">
    <g
       id="g10279">
      <path
         inkscape:connector-curvature="0"
         id="path10205"
         d="m 253.95853,468.43244 c -3.00167,0 -5.63606,3.30345 -7.35157,7.87038 -1.7155,4.56694 -2.66601,10.47857 -2.66601,16.87315 l 0,32.89402 c 0,6.39458 0.95051,12.30621 2.66601,16.87315 1.71551,4.56694 4.3499,7.8744 7.35157,7.8744 3.20068,0 5.75074,-3.92564 7.40039,-8.56262 1.64965,-4.63695 2.61718,-10.30177 2.61718,-16.18493 l 0,-32.89402 c 0,-5.88316 -0.96753,-11.54396 -2.61718,-16.18094 -1.64965,-4.63696 -4.19971,-8.56259 -7.40039,-8.56259 z m 0,12.8519 c 0.5993,0 1.48948,0.91819 2.33007,3.28102 0.8406,2.3628 1.41407,5.8591 1.41407,8.61061 l 0,32.89402 c 0,2.75151 -0.57347,6.24782 -1.41407,8.61064 -0.84059,2.3628 -1.73077,3.28099 -2.33007,3.28099 -0.79833,0 -1.60417,-0.79439 -2.37891,-2.85687 -0.77474,-2.06249 -1.36328,-5.31321 -1.36328,-9.03476 l 0,-32.89402 c 0,-3.72155 0.58854,-6.96827 1.36328,-9.03075 0.77474,-2.06249 1.58058,-2.86088 2.37891,-2.86088 z"
         style="color:#000000;font-style:normal;font-variant:normal;font-weight:normal;font-stretch:normal;font-size:medium;line-height:normal;font-family:sans-serif;text-indent:0;text-align:start;text-decoration:none;text-decoration-line:none;text-decoration-style:solid;text-decoration-color:#000000;letter-spacing:normal;word-spacing:normal;text-transform:none;direction:ltr;block-progression:tb;writing-mode:lr-tb;baseline-shift:baseline;text-anchor:start;white-space:normal;clip-rule:nonzero;display:inline;overflow:visible;visibility:visible;opacity:1;isolation:auto;mix-blend-mode:normal;color-interpolation:sRGB;color-interpolation-filters:linearRGB;solid-color:#000000;solid-opacity:1;fill:#dcdcdc;fill-opacity:1;fill-rule:nonzero;stroke:none;stroke-width:6.27472258;stroke-linecap:butt;stroke-linejoin:miter;stroke-miterlimit:4;stroke-dasharray:none;stroke-dashoffset:0;stroke-opacity:1;color-rendering:auto;image-rendering:auto;shape-rendering:auto;text-rendering:auto;enable-background:accumulate" />
      <path
         inkscape:connector-curvature="0"
         id="path10208"
         d="m 267.33324,468.43244 0,82.92526 6.27539,0 0,-28.30062 3.74415,0 c 3.20074,0 5.75072,-3.92559 7.40039,-8.56261 1.64966,-4.63702 2.61718,-10.2977 2.61718,-16.18094 l 0,-5.13756 c 0,-5.88322 -0.96751,-11.54394 -2.61718,-16.18094 -1.64968,-4.63698 -4.19967,-8.56259 -7.40039,-8.56259 l -10.01954,0 z m 6.27539,12.85592 3.74415,0 c 0.59926,0 1.48755,0.91426 2.32812,3.277 0.84057,2.36271 1.41406,5.85918 1.41406,8.61061 l 0,5.13756 c 0,2.75145 -0.57348,6.24787 -1.41406,8.61063 -0.84058,2.36276 -1.72888,3.277 -2.32812,3.277 l -3.74415,0 0,-28.9128 z"
         style="color:#000000;font-style:normal;font-variant:normal;font-weight:normal;font-stretch:normal;font-size:medium;line-height:normal;font-family:sans-serif;text-indent:0;text-align:start;text-decoration:none;text-decoration-line:none;text-decoration-style:solid;text-decoration-color:#000000;letter-spacing:normal;word-spacing:normal;text-transform:none;direction:ltr;block-progression:tb;writing-mode:lr-tb;baseline-shift:baseline;text-anchor:start;white-space:normal;clip-rule:nonzero;display:inline;overflow:visible;visibility:visible;opacity:1;isolation:auto;mix-blend-mode:normal;color-interpolation:sRGB;color-interpolation-filters:linearRGB;solid-color:#000000;solid-opacity:1;fill:#dcdcdc;fill-opacity:1;fill-rule:nonzero;stroke:none;stroke-width:6.2750001;stroke-linecap:butt;stroke-linejoin:miter;stroke-miterlimit:4;stroke-dasharray:none;stroke-dashoffset:0;stroke-opacity:1;color-rendering:auto;image-rendering:auto;shape-rendering:auto;text-rendering:auto;enable-background:accumulate" />
      <g
         style="fill:#dcdcdc;fill-opacity:1"
         transform="matrix(1,0,0,2.0486243,-73.630199,-455.8148)"
         id="g10214">
        <path
           id="path10210"
           d="m 296.33929,451.15506 0,7.05859 6.23828,0 0,33.4707 6.27344,0 0,-33.4707 6.23828,0 0,-7.05859 -18.75,0 z"
           style="color:#000000;font-style:normal;font-variant:normal;font-weight:normal;font-stretch:normal;font-size:medium;line-height:normal;font-family:sans-serif;text-indent:0;text-align:start;text-decoration:none;text-decoration-line:none;text-decoration-style:solid;text-decoration-color:#000000;letter-spacing:normal;word-spacing:normal;text-transform:none;direction:ltr;block-progression:tb;writing-mode:lr-tb;baseline-shift:baseline;text-anchor:start;white-space:normal;clip-rule:nonzero;display:inline;overflow:visible;visibility:visible;opacity:1;isolation:auto;mix-blend-mode:normal;color-interpolation:sRGB;color-interpolation-filters:linearRGB;solid-color:#000000;solid-opacity:1;fill:#dcdcdc;fill-opacity:1;fill-rule:evenodd;stroke:none;stroke-width:7.05779982;stroke-linecap:butt;stroke-linejoin:miter;stroke-miterlimit:4;stroke-dasharray:none;stroke-dashoffset:0;stroke-opacity:1;color-rendering:auto;image-rendering:auto;shape-rendering:auto;text-rendering:auto;enable-background:accumulate"
           inkscape:connector-curvature="0" />
      </g>
      <path
         inkscape:connector-curvature="0"
         id="path10218"
         d="m 212.88738,468.43244 c -3.00167,0 -5.63085,4.27919 -6.71485,9.09876 -1.08399,4.81957 -1.30273,10.10842 -1.30273,15.62877 0,6.07735 0.88703,11.04174 2.29102,14.27233 1.40399,3.23062 2.82327,4.62051 3.8457,6.1899 0.81916,1.25739 1.85323,3.66149 2.5664,6.12586 0.71318,2.46439 1.0586,5.07952 1.0586,5.89781 0,4.58119 -0.32227,8.44492 -0.72852,10.25113 -0.40625,1.80619 -0.21729,1.6245 -1.01562,1.62448 -0.59931,0 -0.53298,0.078 -0.98828,-2.06061 -0.45531,-2.13858 -0.75391,-6.05889 -0.75391,-9.82701 l -6.27539,0 c 0,4.86655 0.2424,10.10337 1.27734,14.96457 1.03495,4.8612 3.53955,9.77898 6.74024,9.77898 3.00167,0 5.63084,-4.28326 6.71484,-9.10277 1.084,-4.81951 1.30274,-10.10863 1.30274,-15.62877 0,-4.62686 -0.83602,-8.65909 -1.9336,-12.45181 -1.09758,-3.7927 -2.5043,-7.25137 -4.20312,-9.859 -1.49556,-2.29561 -2.51512,-3.51339 -2.92188,-4.44935 -0.40676,-0.93595 -0.70117,-1.70132 -0.70117,-5.72574 0,-4.58144 0.32031,-8.44087 0.72656,-10.24712 0.40626,-1.80627 0.2173,-1.62851 1.01563,-1.62851 0.5993,0 0.53493,-0.074 0.99023,2.06464 0.4553,2.13858 0.75391,6.05887 0.75391,9.82699 l 6.27344,0 c 0,-4.86655 -0.24045,-10.10337 -1.27539,-14.96457 -1.03495,-4.8612 -3.54151,-9.77896 -6.74219,-9.77896 z"
         style="color:#000000;font-style:normal;font-variant:normal;font-weight:normal;font-stretch:normal;font-size:medium;line-height:normal;font-family:sans-serif;text-indent:0;text-align:start;text-decoration:none;text-decoration-line:none;text-decoration-style:solid;text-decoration-color:#000000;letter-spacing:normal;word-spacing:normal;text-transform:none;direction:ltr;block-progression:tb;writing-mode:lr-tb;baseline-shift:baseline;text-anchor:start;white-space:normal;clip-rule:nonzero;display:inline;overflow:visible;visibility:visible;opacity:1;isolation:auto;mix-blend-mode:normal;color-interpolation:sRGB;color-interpolation-filters:linearRGB;solid-color:#000000;solid-opacity:1;fill:#dcdcdc;fill-opacity:1;fill-rule:nonzero;stroke:none;stroke-width:6.27472258;stroke-linecap:butt;stroke-linejoin:miter;stroke-miterlimit:4;stroke-dasharray:none;stroke-dashoffset:0;stroke-opacity:1;color-rendering:auto;image-rendering:auto;shape-rendering:auto;text-rendering:auto;enable-background:accumulate" />
    </g>
  </g>
</svg>
