<?xml version="1.0" encoding="UTF-8" standalone="no"?>
<!-- Created with Inkscape (http://www.inkscape.org/) -->

<svg
   xmlns:dc="http://purl.org/dc/elements/1.1/"
   xmlns:cc="http://creativecommons.org/ns#"
   xmlns:rdf="http://www.w3.org/1999/02/22-rdf-syntax-ns#"
   xmlns:svg="http://www.w3.org/2000/svg"
   xmlns="http://www.w3.org/2000/svg"
   xmlns:sodipodi="http://sodipodi.sourceforge.net/DTD/sodipodi-0.dtd"
   xmlns:inkscape="http://www.inkscape.org/namespaces/inkscape"
   id="svg4318"
   version="1.1"
   inkscape:version="0.91 r13725"
   width="150"
   height="58.282013"
   viewBox="0 0 150 58.282013"
   sodipodi:docname="t603.svg"
   inkscape:export-filename="/media/Data/git/need-not-to-speed/lib/images/t603.png"
   inkscape:export-xdpi="134"
   inkscape:export-ydpi="134">
  <metadata
     id="metadata4324">
    <rdf:RDF>
      <cc:Work
         rdf:about="">
        <dc:format>image/svg+xml</dc:format>
        <dc:type
           rdf:resource="http://purl.org/dc/dcmitype/StillImage" />
        <dc:title></dc:title>
      </cc:Work>
    </rdf:RDF>
  </metadata>
  <defs
     id="defs4322" />
  <sodipodi:namedview
     pagecolor="#ffffff"
     bordercolor="#666666"
     borderopacity="1"
     objecttolerance="10"
     gridtolerance="10"
     guidetolerance="10"
     inkscape:pageopacity="0"
     inkscape:pageshadow="2"
     inkscape:window-width="1600"
     inkscape:window-height="848"
     id="namedview4320"
     showgrid="false"
     fit-margin-top="0"
     fit-margin-left="0"
     fit-margin-right="0"
     fit-margin-bottom="0"
     inkscape:zoom="3.7258883"
     inkscape:cx="73.218567"
     inkscape:cy="-9.0130391"
     inkscape:window-x="0"
     inkscape:window-y="0"
     inkscape:window-maximized="1"
     inkscape:current-layer="svg4318" />
  <path
     sodipodi:nodetypes="ssssssscsscscssssscsssccssssccscssccscsscss"
     inkscape:connector-curvature="0"
     id="path4358"
     d="m 115.67334,58.141633 c 5.96969,-0.08947 11.16247,-0.225072 11.5395,-0.301351 2.02859,-0.410415 4.8444,-0.642319 5.36987,-0.442253 1.0967,0.417559 4.94265,-0.990224 7.50281,-2.746348 1.4149,-0.970553 3.27869,-2.894549 4.39182,-4.533711 1.09298,-1.60948 2.50118,-4.53403 2.50118,-5.194437 0,-0.556347 0.37108,-0.861445 1.2852,-1.056695 0.966,-0.206326 1.70957,-1.047718 1.73562,-1.963936 0.0216,-0.760413 -0.48816,-1.363919 -1.15211,-1.363919 -0.25428,0 -0.29516,-0.194545 -0.18007,-0.856894 0.77577,-4.46436 0.88221,-5.730206 0.8887,-10.568355 0.008,-5.188721 -0.28501,-8.084465 -1.08861,-10.796861 l -0.32157,-1.085398 0.62749,0 c 0.82629,0 1.17592,-0.383464 1.17592,-1.289737 0,-1.02285 -0.83062,-1.930534 -1.9304,-2.109505 -0.97093,-0.158005 -0.97773,-0.167097 -1.81511,-2.427636 -1.18498,-3.1989053 -4.1925,-6.8424183 -7.11192,-8.6158713 -1.91651,-1.164215 -4.70576,-2.06780695 -6.3947,-2.07158995 -0.75407,-0.0015 -2.91344,-0.142998 -4.79861,-0.314036 -7.04742,-0.63938 -42.532176,-0.494352 -65.238169,0.26663 -6.095374,0.204284 -12.774634,0.41935995 -14.842814,0.47794895 -2.06819,0.05859 -3.80769,0.153871 -3.86554,0.211739 -0.0579,0.05787 -0.83358,0.106894 -1.7238,0.108966 -1.61931,0.0038 -10.04739,0.460214 -16.92841,0.916828 -2.01084,0.133431 -5.50697,0.288469 -7.76917,0.344517 -4.50682,0.111662 -7.03632,0.357578 -10.4151106,1.012551 -3.2421,0.628483 -4.39101,1.304517 -5.099741,3.000772 -0.35743,0.855435 -1.05102004,6.1815643 -1.05149004,8.0743923 -2e-4,0.835159 -0.12629,1.261914 -0.48585,1.644666 -0.7076,0.753217 -0.62550496,1.645418 0.21638,2.351472 l 0.70194004,0.588688 -0.24126,2.856313 c -0.26250046,3.107782 -0.0967,12.989431 0.253,15.081328 0.57958,3.466823 0.58912,3.285488 -0.18827,3.577216 -0.38677004,0.145146 -0.82379004,0.528548 -0.97117004,0.852017 -0.23285,0.511051 -0.1886,0.702665 0.33774,1.462176 0.48877004,0.705303 0.60598004,1.136378 0.60708004,2.2328 0.002,1.734884 0.58034,5.604062 1.05048,7.024336 0.728691,2.201361 2.377381,3.143857 6.483771,3.706529 3.1621006,0.43328 8.2216906,0.829229 8.4885606,0.66429 0.11608,-0.07174 2.5478,-0.02267 5.40386,0.109058 22.78373,1.050769 65.385567,1.587934 93.052973,1.1733 z"
     style="fill:#98000e;fill-opacity:1" />
  <path
     sodipodi:nodetypes="sssssssscsscsssssssscscsccccssccscccsccccccsccssssscccccsccsccscscscccccscssccsssssscsssccsccscss"
     inkscape:connector-curvature="0"
     id="path4396"
     d="m 138.31702,54.677104 c 6.55767,-4.226081 10.35885,-14.025761 10.27025,-26.477392 -0.0452,-6.36491 -1.32162,-12.243438 -3.67983,-16.948431 -1.42366,-2.840422 -4.36234,-6.256731 -6.72228,-7.814847 -0.50047,-0.330426 -0.79937,-0.600775 -0.66422,-0.600775 0.43311,0 3.36664,2.20105 4.46092,3.347063 1.28886,1.349779 2.72192,3.455342 3.39854,4.993369 1.10778,2.5181 1.25849,2.743582 2.11268,3.160964 1.228,0.600034 1.53917,2.24139 0.45426,2.396175 -0.54441,0.07768 -0.63968,0.270844 -0.30771,0.623921 0.27419,0.291622 0.66279,2.201252 1.0642,5.229661 0.71049,5.360283 0.20516,15.142856 -0.93029,18.009296 -0.12065,0.304434 -0.0434,0.399883 0.32306,0.399883 0.45009,0 0.53858,0.168948 0.53858,1.028273 0,0.851825 -0.11242,1.02564 -0.98658,1.525289 -0.78631,0.449439 -1.04816,0.807652 -1.70032,2.325967 -1.11827,2.603549 -2.09134,4.137701 -3.75144,5.914611 -1.31096,1.403217 -4.55902,3.830178 -5.12601,3.830178 -0.11958,0 0.44123,-0.424441 1.24619,-0.943205 z M 3.2488875,52.992426 c 0,-0.173682 0.10282,-0.379336 0.2285,-0.45701 0.1301,-0.08042 0.22851,0.11637 0.22851,0.45701 0,0.340636 -0.0984,0.537424 -0.22851,0.45701 -0.12568,-0.07768 -0.2285,-0.283328 -0.2285,-0.45701 z M 2.2431771,50.700358 c -0.18514,-0.88005 -0.39832,-2.421006 -0.47377,-3.424344 -0.0754,-1.003337 -0.18696,-2.216192 -0.24782,-2.695231 l -0.1106,-0.870983 0.85738,0.07122 c 0.8380707,0.06962 0.8726204,0.109804 1.5346404,1.785003 0.54025,1.367047 0.67985,2.07705 0.68999,3.50924 0.0122,1.752424 -0.005,1.810323 -0.72992,2.415943 -0.40846,0.341271 -0.74264,0.762101 -0.74264,0.935183 0,0.781991 -0.46849,-0.258435 -0.7772204,-1.726026 z M 149.05339,42.661497 c 0.12949,-0.340707 0.17683,-0.88055 0.10511,-1.199651 -0.12491,-0.555799 -0.11592,-0.561539 0.21583,-0.136616 0.43643,0.559064 0.43477,0.813675 -0.009,1.44789 -0.47821,0.682749 -0.59728,0.640087 -0.31148,-0.111617 z M 0.69418704,42.710627 c -0.21547,-0.472885 -0.1875,-0.650298 0.16365,-1.038332 0.79959006,-0.883528 1.91995046,-0.190781 1.62057006,1.002036 -0.21295,0.848491 -1.40314,0.872702 -1.78422006,0.0363 z m 1.45384006,-3.38601 c -0.50527,-2.74216 -0.7878,-8.626153 -0.6439,-13.410034 0.19152,-6.367429 0.28129,-7.012706 0.99454,-7.149053 0.6301904,-0.120468 0.6405204,-0.498895 -0.0891,3.264468 -0.18275,0.942583 -0.3903,3.746121 -0.46123,6.230085 -0.14107,4.939111 0.13801,8.534842 0.8662404,11.162793 0.5296,1.911127 0.52909,1.868339 0.0195,1.595607 -0.27984,-0.149762 -0.5030704,-0.700957 -0.6860304,-1.693866 z m 0.7517804,-3.527195 c -0.25471,-0.601021 -0.4032204,-10.545267 -0.17321,-11.596628 0.12172,-0.556016 0.33024,-0.91402 0.53251,-0.91402 0.36861,0 0.36742,-0.150127 0.0309,3.884585 -0.2121,2.542707 -0.15005,4.075114 0.3165,7.808628 0.12491,0.999907 0.0905,1.217319 -0.19256,1.217319 -0.18955,0 -0.42089,-0.179948 -0.5141,-0.399884 z m 0.80609,-3.968682 c 0,-0.703495 0.0877,-1.08826 0.2285,-1.001301 0.12568,0.07768 0.22851,0.655358 0.22851,1.283747 0,0.703497 -0.0877,1.088259 -0.22851,1.001303 -0.12568,-0.07768 -0.2285,-0.65536 -0.2285,-1.283749 z m 0.45701,-1.928808 c 0,-0.337902 0.0981,-0.524158 0.23223,-0.44122 0.12781,0.07894 0.17307,0.239249 0.1007,0.356244 -0.0724,0.116995 0.003,0.214289 0.16764,0.216213 0.21736,0.0026 0.20543,0.06406 -0.0436,0.225007 -0.46428,0.300038 -1.118959,-0.356244 -0.45701,-0.356244 z m -0.45701,-2.423901 c 1.7056091,0.04264 0.1141,-1.671456 0.31302,0.09521 0.0934,0.828989 0.0629,1.313904 -0.0826,1.313904 -0.13009,0 -0.2305,-0.613906 -0.2305,-1.409116 z M 1.0904271,18.461287 C 0.41860704,18.203487 0.19520704,17.473478 0.63827704,16.983879 1.3315871,16.217775 2.3348671,16.56683 2.3348671,17.57415 c 0,0.469864 -0.38694,1.028272 -0.71253,1.028272 -0.0902,0 -0.32962,-0.06351 -0.53191,-0.141135 z M 149.11268,16.4448 c 0.0696,-0.181315 0.0338,-0.652742 -0.0794,-1.047617 -0.17645,-0.615259 -0.15836,-0.6785 0.12644,-0.442125 0.47904,0.397569 0.42205,1.819407 -0.073,1.819407 -0.0553,0 -0.0437,-0.148346 0.0259,-0.329665 z M 1.4232971,15.320373 c 0.003,-0.982449 0.6318,-6.831053 0.81054,-7.543205 0.14396,-0.573456 0.15035,-0.570751 1.0167204,0.430287 1.01755,1.175701 1.24174,1.968122 1.02023,3.606229 -0.13543,1.001744 -0.97404,3.643225 -1.34941,4.250599 -0.0602,0.09734 -0.4223904,0.13104 -0.8049504,0.07489 -0.60624,-0.08898 -0.69526,-0.194146 -0.69313,-0.8188 z"
     style="fill:#b5bbc1;fill-opacity:1" />
  <path
     sodipodi:nodetypes="sccscccccsssccscccccccssccsscsssccscssccscssssssssssscccccsccccsccsscccscsscsssssssscssscsscscssssssssccsssssssssssccsccssccccsscccssscccccccscscccccccssscccccsssssssssssssss"
     inkscape:connector-curvature="0"
     id="path4360"
     d="m 75.47558,52.769257 c 0,-0.816905 0.0771,-1.484948 0.17138,-1.484542 0.18908,9.14e-4 0.33182,2.229514 0.17193,2.684193 -0.22242,0.632393 -0.34331,0.209913 -0.34331,-1.199651 z m -1.41082,-0.04945 c -0.041,-0.790239 0.003,-1.436581 0.0969,-1.436318 0.0943,2.28e-4 0.1904,0.540322 0.21365,1.200131 l 0.0422,1.199651 0.0839,-1.199651 c 0.0599,-0.856128 0.17865,-1.199652 0.41474,-1.199652 0.25094,0 0.33081,0.321827 0.33081,1.332946 0,1.487446 -0.0222,1.53969 -0.6573,1.53969 -0.39275,0 -0.46012,-0.184366 -0.52501,-1.436797 z m -18.18348,1.152849 -2.34218,-0.142435 0,-1.233461 0,-1.233458 10.05422,0.0351 10.05422,0.0351 0,1.495702 0,1.495703 -7.71204,-0.154899 c -4.24163,-0.0852 -8.76602,-0.219 -10.05422,-0.297352 z m 20.27982,-1.217658 0,-1.37103 3.96296,0 c 2.17963,0 5.21303,-0.06721 6.74089,-0.149366 l 2.77794,-0.149366 0,1.387103 c 0,0.895877 -0.10115,1.42792 -0.28563,1.502358 -0.15709,0.06339 -3.1905,0.123377 -6.7409,0.133295 l -6.45526,0.01804 z m 14.39581,-0.253934 0,-1.396461 0.84391,0.15832 c 1.06389,0.199586 3.40555,1.132655 4.2704,1.701601 l 0.65846,0.433175 -1.45823,0.13887 c -0.80202,0.07637 -2.02378,0.169813 -2.71501,0.207643 -0.69122,0.03782 -1.33389,0.08781 -1.42815,0.111053 -0.0943,0.02325 -0.17138,-0.586138 -0.17138,-1.354201 z m -37.70332,0.139677 c 0,-0.691227 0.10283,-1.256777 0.2285,-1.256777 0.12568,0 0.22851,0.56555 0.22851,1.256777 0,0.691228 -0.10283,1.256778 -0.22851,1.256778 -0.12567,0 -0.2285,-0.56555 -0.2285,-1.256778 z m -0.68552,0.01341 c 0,-0.68381 0.10283,-1.306843 0.22851,-1.384516 0.14274,-0.08822 0.2285,0.378468 0.2285,1.243291 0,0.770674 -0.1013,1.384516 -0.2285,1.384516 -0.12568,0 -0.22851,-0.559481 -0.22851,-1.243291 z m -6.62664,0.253604 c -2.28203,-1.099869 -1.15656,-1.600003 3.65608,-1.624658 l 2.62781,-0.01341 0.0699,1.222991 0.0699,1.222987 -2.69768,-0.156133 c -2.06765,-0.11966 -2.93783,-0.271875 -3.72596,-0.651725 z m 51.07248,0.306805 c -0.08,-0.129532 0.0122,-0.167837 0.21502,-0.0898 0.39586,0.15191 0.4683,0.315694 0.13954,0.315694 -0.11821,0 -0.27783,-0.101655 -0.35462,-0.225888 z M 27.957956,50.215011 c -1.852865,-0.655614 -3.792609,-1.82464 -4.41574,-2.517486 -2.496505,-2.775805 -2.979828,-6.006344 -3.395556,-8.774254 -0.42775,-2.798828 -0.810947,-6.137829 -0.820936,-10.147107 0,-3.952779 0.552955,-7.677576 0.752515,-8.911695 0.48664,-3.008539 1.571326,-6.065666 2.599444,-7.602659 1.455284,-2.175588 4.064694,-2.9197975 6.493293,-3.6119633 4.864651,-1.3950653 7.896104,-1.9818252 13.285634,-2.5035112 1.57119,-0.152093 1.59245,-0.14699 1.19965,0.287253 -0.4884,0.539941 -0.51124,1.05748 -0.0631,1.429405 0.58244,0.483383 5.44658,0.742061 10.74572,0.571469 13.95188,-0.44915 17.64358,-0.51097 26.39189,-0.441952 10.97374,0.08657 11.51804,0.01956 15.84751,-1.951049 0.96502,-0.439238 1.84152,-0.685763 2.28505,-0.642688 0.6122,0.05946 0.41276,0.18088 -1.33701,0.813976 -2.65066,0.959056 -3.99884,1.762386 -3.99884,2.382758 0,0.260231 0.30505,1.102727 0.67791,1.8722185 0.85207,1.758475 1.24158,4.928995 1.6396,13.345846 0.22146,4.683205 0.22196,7.452987 0.003,13.105332 -0.28936,7.44836 -0.58069,9.807443 -1.41827,11.484534 -0.7191,1.439855 -0.55202,1.939111 0.92642,2.768232 0.69123,0.387645 1.92516,0.977778 2.74206,1.311407 1.2816,0.523406 1.38735,0.608122 0.77118,0.617731 -0.39277,0.0061 -1.52387,-0.358762 -2.51356,-0.810859 -3.64435,-1.664759 -2.3957,-1.594136 -27.62051,-1.562255 -16.70135,0.02111 -22.87514,0.09967 -23.58925,0.30016 -1.23623,0.347088 -1.579,0.921623 -0.99373,1.665676 l 0.42827,0.54445 -2.20421,-0.175938 C 41.16408,52.965282 40.338436,53.164788 38.03942,52.826 34.247562,52.267222 29.979595,50.930343 27.957956,50.215011 Z M 98.13654,51.823438 C 96.40406,51.138071 94.67,50.1851 94.67,49.918366 c 0,-0.09878 0.2434,-0.8345 0.54089,-1.634948 0.71014,-1.910814 0.99719,-3.684005 1.28133,-7.915293 C 96.96913,33.266434 96.73194,22.537932 95.92888,14.88666 95.63831,12.118251 95.48256,11.423842 94.87471,10.186918 94.2761,8.9687695 94.21153,8.6881025 94.47288,8.4403205 c 0.48146,-0.456484 4.01484,-1.933878 5.26775,-2.202577 1.01717,-0.218145 1.23528,-0.184783 2.34653,0.358906 2.15139,1.052576 3.63879,3.18187 4.45677,6.3800835 1.04033,4.067682 1.63332,16.609788 1.16293,24.596872 -0.49096,8.336548 -1.33347,11.185807 -3.93889,13.320752 -2.03599,1.668347 -3.25452,1.869379 -5.63143,0.929081 z M 52.62508,6.7120195 c 0,-0.864823 0.0858,-1.331505 0.22851,-1.243291 0.40526,0.250464 0.26744,2.627807 -0.15234,2.627807 -0.0419,0 -0.0762,-0.623032 -0.0762,-1.384516 z m -0.68551,0.127734 c 0,-0.691227 0.10283,-1.256777 0.2285,-1.256777 0.25174,0 0.32003,2.11735 0.0762,2.361218 -0.27478,0.274788 -0.30467,0.166452 -0.30467,-1.104441 z m -7.67497,0.792143 c -0.65766,-0.250044 -0.53966,-0.679702 0.32735,-1.191853 0.5731,-0.338545 6.53458,-1.066919 6.76543,-0.8266 0.11669,0.12155 0.18173,0.88215 0.15143,1.773523 l -0.0264,0.77572 -3.33774,-0.162271 c -1.83575,-0.08925 -3.58186,-0.255083 -3.88021,-0.368519 z m 9.046,-0.985988 0,-1.222118 3.2562,-0.14635 c 1.79091,-0.08049 6.26389,-0.215108 9.93996,-0.299136 l 6.68377,-0.152778 0,1.292749 0,1.292745 -1.99942,0.02949 c -1.09967,0.01622 -4.31303,0.100222 -7.14078,0.186664 -2.82775,0.08645 -6.40099,0.176005 -7.94054,0.199019 l -2.79919,0.04185 0,-1.222117 z m 28.20167,0.765108 -5.80818,0 0,-1.256778 0,-1.256777 6.74089,0 6.7409,0 0,1.2416 c 0,1.179345 -0.0315,1.246315 -0.62839,1.335615 -0.34562,0.0517 -0.76534,0.05854 -0.93271,0.01523 -0.16737,-0.04336 -2.91801,-0.07883 -6.11251,-0.07883 z m 8.78498,-0.45701 c -0.0172,-0.251356 -0.0428,-0.779202 -0.0571,-1.172994 l -0.026,-0.715984 2.35834,0.04381 c 1.2971,0.0241 2.57019,0.122174 2.82912,0.217962 0.40176,0.14862 0.29054,0.252551 -0.75882,0.70906 -1.35835,0.59094 -3.58363,1.343714 -4.02875,1.362863 -0.15711,0.0067 -0.29965,-0.193365 -0.31679,-0.444717 z M 75.30997,5.5299435 c 0.0509,-0.410704 0.0935,-0.129776 0.0948,0.624295 0.001,0.754067 -0.0404,1.090097 -0.0925,0.746735 -0.0521,-0.343364 -0.0532,-0.960327 -0.003,-1.37103 z m -0.97691,0.510043 c 0,-0.761682 0.1016,-1.37103 0.2285,-1.37103 0.1269,0 0.22851,0.609348 0.22851,1.37103 0,0.761683 -0.10161,1.37103 -0.22851,1.37103 -0.1269,0 -0.2285,-0.609347 -0.2285,-1.37103 z m -0.62232,-0.742641 c 0.0507,-0.408453 0.0922,-0.07427 0.0922,0.742641 0,0.816905 -0.0414,1.151094 -0.0922,0.742641 -0.0507,-0.408453 -0.0507,-1.07683 0,-1.485282 z"
     style="fill:#ffffff;fill-opacity:1" />
  <path
     style="fill:#97afc7;fill-opacity:1"
     d="m 55.862157,53.867395 -2.34218,-0.142435 0,-1.233461 0,-1.233458 10.054224,0.0351 10.054219,0.0351 0,1.495702 0,1.495703 -7.712043,-0.154899 c -4.241632,-0.0852 -7.463563,-0.139806 -10.05422,-0.297352 z m 20.279818,-1.217658 0,-1.37103 3.962961,0 c 2.179633,0 5.277965,-0.327485 6.807996,-0.317111 l 2.828254,-0.03195 -0.117422,1.437427 c -0.07294,0.892903 0.02202,1.367551 -0.28563,1.502358 -0.48207,0.211235 -3.354622,0.353998 -6.74089,0.284266 l -6.455269,-0.132931 z m 14.395809,-0.253934 0,-1.396461 0.84392,0.15832 c 1.06389,0.199587 3.405542,1.132652 4.27039,1.701601 l 0.65846,0.433175 -1.45823,0.13887 c -0.80202,0.07637 -2.02378,0.169813 -2.715,0.207643 -0.69123,0.03782 -1.33389,0.08781 -1.42816,0.111053 -0.0943,0.02325 -0.17138,-0.586138 -0.17138,-1.354201 z m -45.015477,0.406691 c -2.28203,-1.099869 -1.15656,-1.600003 3.65608,-1.624658 l 2.62781,-0.01341 0.0699,1.222991 0.0699,1.222987 -2.69768,-0.156133 c -2.067649,-0.119669 -2.93783,-0.271875 -3.72596,-0.651725 z M 31.366617,50.02361 c -3.47362,-0.521728 -5.09078,-1.144435 -6.66456,-2.56624 -1.69288,-1.529427 -2.62389,-3.671312 -3.39503,-7.810755 -0.35932,-1.928833 -0.92027,-7.332334 -0.92027,-8.864844 0,-0.236905 1.56155,-0.297081 6.59117,-0.297081 l 6.59116,0 0.15514,3.598953 c 0.269483,6.251491 1.14551,12.006105 2.18568,14.357556 0.88557,2.001972 0.0916,2.278546 -4.54329,1.582411 z M 20.386757,27.890066 c 0,-1.847914 0.46257,-6.875945 0.80339,-8.732612 0.35198,-1.917458 1.16724,-4.539803 1.77943,-5.723646 0.567,-1.096458 1.76693,-2.151189 3.24739,-2.854448 2.78201,-1.321513 8.99824,-2.163247 9.55858,-1.29432 0.19001,0.294646 0.17711,0.58291 -0.0512,1.142524 -1.11758,2.740072 -2.065119,8.389804 -2.22988,14.630133 l -0.15386,3.827458 -6.47696,0 -6.47695,0 0,-0.995089 z m 77.730657,23.928111 c -1.73248,-0.685367 -3.46654,-1.638338 -3.46654,-1.905072 0,-0.09878 0.2434,-0.8345 0.54089,-1.634948 0.71014,-1.910814 0.99719,-3.684005 1.28133,-7.915293 0.47691,-7.101691 0.23972,-17.830193 -0.56334,-25.481465 -0.29057,-2.768409 -0.44632,-3.462818 -1.05417,-4.699742 -0.59861,-1.218148 -0.66318,-1.498815 -0.40183,-1.746597 0.48146,-0.456484 4.01484,-1.933878 5.26775,-2.202577 1.017176,-0.218145 1.235286,-0.184783 2.346536,0.358906 2.15139,1.052576 3.63879,3.18187 4.45677,6.380083 1.04033,4.067682 1.63332,16.609788 1.16293,24.596872 -0.49096,8.336548 -1.33347,11.185807 -3.93889,13.320752 -2.03599,1.668347 -3.25452,1.869379 -5.631436,0.929081 z M 44.245477,7.626636 c -0.789343,0 -0.53966,-0.679702 0.32735,-1.191853 0.5731,-0.338545 6.53458,-1.066919 6.76543,-0.8266 0.11669,0.12155 0.18173,0.88215 0.15143,1.773523 l -0.0264,0.77572 -3.33774,-0.162271 C 46.289797,7.905905 43.92615,7.626636 44.245337,7.626636 Z m 9.046,-0.985988 0,-1.222118 3.2562,-0.14635 c 1.790911,-0.08049 6.395802,-1.278651 9.939962,-0.299136 l 6.683771,-0.152778 0,1.292749 0,1.292745 -1.999419,0.02949 C 70.072319,7.45147 66.85896,7.535472 64.03121,7.621914 61.203461,7.708364 57.630222,7.797919 56.090667,7.820933 l -2.79919,0.04185 0,-1.222117 z m 28.201673,0.765108 -5.808185,0 0,-1.256778 0,-1.256777 6.740899,0 6.74089,0 0,1.2416 c 0,1.179345 -0.0315,1.246315 -0.62838,1.335615 -0.34563,0.0517 -0.76534,0.05854 -0.93272,0.01523 -0.16737,-0.04336 -2.918,-0.07883 -6.112504,-0.07883 z m 8.784984,-0.45701 c -0.0172,-0.251356 -0.04912,-1.566965 -0.0571,-1.172994 l -0.026,-0.715984 2.35833,0.04381 c 1.2971,0.0241 2.57019,0.122174 2.82912,0.217962 0.40176,0.14862 0.29054,0.252551 -0.75882,0.70906 -1.35835,0.59094 -3.58362,1.343714 -4.02875,1.362863 -0.1571,0.0067 -0.29965,-0.193365 -0.31678,-0.444717 z"
     id="path4332-3"
     inkscape:connector-curvature="0"
     sodipodi:nodetypes="scccccccssccsscsssccscssccscscccccsccssssscssscsssscscccccsssssccssssssssccccsscccssscccccccscscccccccssscccccs" />
  <path
     style="fill:#000000;fill-opacity:1"
     d="m 115.67334,58.141633 c 5.96969,-0.08947 11.16247,-0.225072 11.5395,-0.301351 2.02859,-0.410415 4.8444,-0.642319 5.36987,-0.442253 1.0967,0.417559 4.94265,-0.990224 7.50281,-2.746348 1.4149,-0.970553 3.27869,-2.894549 4.39182,-4.533711 1.09298,-1.60948 2.50118,-4.53403 2.50118,-5.194437 0,-0.556347 0.37108,-0.861445 1.2852,-1.056695 0.966,-0.206326 1.70957,-1.047718 1.73562,-1.963936 0.0216,-0.760413 -0.48816,-1.363919 -1.15211,-1.363919 -0.25428,0 -0.29516,-0.194545 -0.18007,-0.856894 0.77577,-4.46436 0.88221,-5.730206 0.8887,-10.568355 0.008,-5.188721 -0.28502,-8.084462 -1.08861,-10.796861 l -0.32157,-1.085398 0.62749,0 c 0.82629,0 1.17592,-0.383464 1.17592,-1.289737 0,-1.02285 -0.83062,-1.930534 -1.9304,-2.109505 -0.97093,-0.158005 -0.97773,-0.167097 -1.81511,-2.427636 -1.18498,-3.1989053 -4.1925,-6.8424183 -7.11192,-8.6158713 -1.91651,-1.164215 -4.70576,-2.06780695 -6.3947,-2.07158995 -0.75407,-0.0015 -2.91344,-0.142998 -4.79861,-0.314036 -7.04742,-0.63938 -42.532177,-0.494352 -65.238168,0.26663 -6.095374,0.204284 -12.774634,0.41935995 -14.842814,0.47794895 -2.06819,0.05859 -3.80769,0.153871 -3.86554,0.211739 -0.0579,0.05787 -0.83358,0.106894 -1.7238,0.108966 -1.61931,0.0038 -10.04739,0.460214 -16.92841,0.916828 -2.01084,0.133431 -5.50697,0.288469 -7.76917,0.344517 -4.50682,0.111662 -7.03632,0.357578 -10.4151105,1.012551 -3.2421,0.628483 -4.39101,1.304517 -5.0997404,3.000772 -0.35743,0.855435 -1.05102006,6.1815643 -1.05149006,8.0743923 -2e-4,0.835159 -0.12629,1.261914 -0.48585,1.644666 -0.7076,0.753217 -0.62551,1.645424 0.21638,2.351472 l 0.70194006,0.588688 -0.24126,2.856313 c -0.26250006,3.107782 -0.0967,12.989431 0.253,15.081328 0.57958,3.466823 0.58912,3.285488 -0.18827,3.577216 -0.38677006,0.145146 -0.82379006,0.528548 -0.97117006,0.852017 -0.23285,0.511051 -0.1886,0.702665 0.33774,1.462176 0.48877006,0.705303 0.60598006,1.136378 0.60708006,2.2328 0.002,1.734884 0.58034,5.604062 1.05048,7.024336 0.7286904,2.201361 2.3773804,3.143857 6.4837704,3.706529 3.1621005,0.43328 8.2216905,0.829229 8.4885605,0.66429 0.11608,-0.07174 2.5478,-0.02267 5.40386,0.109058 22.78373,1.050769 65.385571,1.587934 93.052972,1.1733 z m -11.52276,-0.956895 c -0.19773,-0.396342 -0.3595,-0.756238 -0.3595,-0.799768 0,-0.04354 1.10538,-0.07972 2.45643,-0.08042 8.6196,-0.0044 24.74185,-1.372206 26.79221,-2.272941 0.48296,-0.21217 0.39467,-0.233057 -0.57127,-0.135138 -0.62838,0.06371 -1.8329,0.219615 -2.67669,0.346469 -5.38508,0.809574 -21.23753,1.757651 -26.28639,1.572089 -2.00565,-0.07372 -2.2728,-0.138931 -3.17872,-0.776016 -1.438221,-1.011444 -1.401051,-1.357512 0.19531,-1.818318 1.82565,-0.526985 3.83744,-1.633933 4.64862,-2.557811 0.8517,-0.970031 1.67221,-2.577297 2.14373,-4.199226 1.10221,-3.791508 1.59478,-17.058434 0.95381,-25.690365 -0.50436,-6.792244 -0.98603,-9.174777 -2.30981,-11.4252503 -1.25594,-2.135152 -3.74139,-3.893409 -6.108941,-4.321583 -0.4713,-0.08523 -0.85347,-0.227434 -0.84929,-0.315995 0.0152,-0.319028 0.85197,-1.162931 1.614031,-1.627512 0.71873,-0.438167 1.12402,-0.474024 5.34777,-0.473135 4.88229,0.0011 16.41918,0.522221 20.56544,0.92907 2.6159,0.256681 7.21971,0.98148 8.00286,1.259923 0.33834,0.1203 0.39003,0.09328 0.20578,-0.107611 -0.3672,-0.400345 -5.03205,-1.324401 -8.66565,-1.716575 -4.63674,-0.500443 -5.75704,-0.564611 -12.33926,-0.70676 -3.26763,-0.07056 -6.87328,-0.185511 -8.01256,-0.255429 l -2.07143,-0.127125 0.0979,-0.667358 0.0979,-0.66735595 8.48588,0.0084 c 12.75399,0.01249 18.07918,0.419483 21.85341,1.67025995 l 1.48528,0.492219 0.11426,1.256778 c 0.1141,1.254884 0.11623,1.25781 1.3788,1.942292 3.59147,1.946936 5.79266,4.2352743 7.64842,7.9512383 1.14311,2.288928 1.32591,2.837536 1.39818,4.196128 l 0.0832,1.562933 -0.33982,-1.028272 c -0.61681,-1.866412 -2.04308,-4.191793 -3.03624,-4.950245 -2.44316,-1.865777 -10.66425,-4.0753523 -19.35749,-5.2026863 -4.47338,-0.580105 -9.47968,-1.042759 -11.28943,-1.043303 -1.45684,-4.57e-4 -1.79719,0.07955 -2.44689,0.575107 -1.00955,0.770016 -1.13713,1.624189 -0.69129,4.6281313 0.8,5.390152 0.94374,8.150364 0.93686,17.989507 -0.005,6.397643 -0.10953,10.782384 -0.30126,12.567774 -0.61861,5.762326 -0.61744,5.868325 0.0737,6.689801 0.86567,1.028781 1.58316,1.141551 5.1319,0.806587 12.01782,-1.134346 21.71713,-3.122513 26.67721,-5.468304 2.19528,-1.038214 3.22087,-2.424196 4.37523,-5.912668 0.24953,-0.754067 0.50021,-1.576685 0.55708,-1.82804 0.0568,-0.251356 0.0532,0.365608 -0.008,1.37103 -0.26825,4.388572 -3.68333,9.843668 -7.81926,12.49009 -2.34236,1.498787 -2.51355,1.693019 -2.51355,2.851682 0,0.70092 -0.11395,1.040333 -0.39989,1.191092 -1.22663,0.646742 -4.05247,1.336873 -7.71204,1.883448 -1.05275,0.157232 -6.1406,0.337532 -11.99651,0.425119 -5.59266,0.08365 -10.49513,0.171589 -10.89437,0.195416 -0.60603,0.03616 -0.78528,-0.0757 -1.0854,-0.677305 z m -29.503149,0.444847 c -0.08881,-0.08884 -0.08622,-0.345906 0.0061,-0.571263 0.155931,-0.382581 0.179452,-0.379449 0.354914,0.04727 0.159938,0.388968 0.190314,0.397473 0.203978,0.05713 0.01523,-0.370114 0.471101,-0.400917 6.12858,-0.413756 3.361872,-0.0076 9.557221,-0.09925 13.767426,-0.20361 8.186721,-0.202917 8.683191,-0.151453 8.683191,0.900045 0,0.434877 -0.28245,0.442568 -14.491103,0.394614 C 81.3304,57.813115 74.736767,57.71842 74.64797,57.629588 Z m -14.386552,-0.06381 c -15.132071,-0.24876 -33.511291,-0.778387 -33.704481,-0.97125 -0.0628,-0.06273 3.22763,-0.0418 7.31216,0.04649 4.08452,0.08831 14.85568,0.166334 23.935893,0.173392 l 16.509485,0.0128 0,0.533855 0,0.533853 -3.484701,-0.106362 c -1.916593,-0.0585 -6.672346,-0.15877 -10.568356,-0.222818 z m -7.031711,-1.157376 c -0.29248,-0.112242 -0.3947,-0.416012 -0.3947,-1.17304 l 0,-1.021578 3.59895,0.134102 c 2.877261,0.107199 15.085064,0.350115 17.937644,0.35692 0.440009,0.0011 0.63273,0.121382 0.642876,0.401383 0.01066,0.314166 0.05758,0.292815 0.215724,-0.09961 0.19918,-0.494382 0.260374,-0.499706 5.983768,-0.520568 5.874833,-0.0214 13.290139,-0.328868 15.908759,-0.659607 1.41097,-0.178211 1.45448,-0.167657 1.95739,0.474947 0.28289,0.361465 0.91886,0.905722 1.413271,1.209463 l 0.89893,0.552253 -2.056551,0.0081 c -1.1311,0.0044 -6.975859,0.07579 -12.988358,0.158509 -9.284386,0.127734 -10.962587,0.101761 -11.136114,-0.172357 -0.144263,-0.227897 -0.205335,-0.238807 -0.207803,-0.03712 -0.0061,0.442737 -0.457116,0.33677 -0.48702,-0.114253 -0.02422,-0.366331 -0.03504,-0.367291 -0.128724,-0.01143 -0.07647,0.290229 -0.401956,0.405784 -1.287397,0.45701 -2.596396,0.150219 -19.501245,0.198601 -19.870565,0.05688 z m -15.36178,-0.176525 c -7.41498,-0.05303 -13.22472,-0.01694 -12.91053,0.08024 2.43628,0.753431 -15.5150305,-0.743223 -18.7374105,-1.562193 -0.86439,-0.219684 -1.28153,-0.408407 -0.99788,-0.451449 0.4695,-0.07125 1.88792,-1.420217 1.49334,-1.420217 -0.10648,0 -0.31072,-0.257068 -0.45389,-0.571262 -0.20589,-0.451921 -0.42838,-0.571263 -1.06494,-0.571263 -0.92675,0 -0.91117,0.02794 -0.46331,-0.830772 0.69296,-1.328705 0.35811,-3.499031 -1.00549,-6.516886 -0.43952,-0.972755 -0.45399,-1.792539 -0.0317,-1.792539 0.0931,0 0.35986,0.422469 0.59271,0.938817 0.39568,0.877464 1.34538,1.779624 1.60261,1.522391 0.0628,-0.06284 -0.13725,-0.279041 -0.44464,-0.48045 -0.79303,-0.519618 -2.0854,-3.963691 -2.75827,-7.350626 -0.13207,-0.664678 -0.10998,-0.685514 0.72647,-0.685514 l 0.86265,0 0.18739,-2.74206 c 0.10313,-1.508133 0.28804,-2.844887 0.41105,-2.970565 0.22879,-0.233747 2.44185,-0.415605 8.5988905,-0.706614 1.91657,-0.09059 3.4847,-0.235951 3.4847,-0.323029 0,-0.08708 -2.49357,-0.221015 -5.54125,-0.297636 -3.0476905,-0.07662 -5.7661405,-0.205231 -6.0410205,-0.285802 -0.71031,-0.208209 -0.98551,-1.222143 -0.98551,-3.63093 0,-2.271739 -0.1617,-2.639411 -1.16077,-2.639411 l -0.61237,0 0.32686,-1.770914 c 0.47782,-2.588879 1.37415,-5.405136 1.86033,-5.845125 0.23297,-0.210843 0.90907,-0.548773 1.50244,-0.750951 0.59336,-0.20218 1.03555,-0.41088 0.98266,-0.463778 -0.13467,-0.134697 -2.25903,0.598693 -2.65066,0.915086 -0.17752,0.143425 -0.52839,0.723488 -0.7797,1.289038 -0.56499,1.271427 -0.80192,0.806055 -0.26575,-0.522002 1.34965,-3.343102 1.61213,-5.628659 0.79946,-6.9615373 l -0.45279,-0.742641 0.79113,0 c 0.59174,0 0.88549,-0.143988 1.16545,-0.571262 0.34338,-0.524067 0.34419,-0.617233 0.009,-1.127715 -0.23399,-0.35712 -0.63223,-0.58601 -1.11168,-0.638962 l -0.74707,-0.08251 0.68551,-0.298373 c 2.17571,-0.946979 9.1111905,-1.769367 15.4240905,-1.828938 2.19936,-0.02075 4.35874,-0.08514 4.79861,-0.14309 0.79583,-0.104838 16.45063,-0.510253 23.42176,-0.606557 l 3.65608,-0.05052 0.0727,0.876028 c 0.0401,0.481817 -0.0107,0.958445 -0.11425,1.059174 -0.10283,0.100725 -1.83221,0.294004 -3.84306,0.4295 -6.55215,0.441502 -15.64934,1.688906 -21.13671,2.89826 -3.28707,0.724435 -8.62688,2.2942093 -9.31802,2.7392723 -0.28633,0.18438 -0.60782,0.281323 -0.71444,0.215429 -0.24211,-0.149625 -2.62643,0.54288 -2.45598,0.713321 0.0684,0.06843 0.61014,-0.0411 1.20381,-0.243385 1.47644,-0.503069 1.49414,-0.323325 0.0384,0.389239 -1.30825,0.640344 -4.14698,2.661927 -3.97684,2.832077 0.0576,0.05755 0.87055,-0.412172 1.80664,-1.043838 2.56069,-1.72794 7.7595,-3.9534193 8.2019,-3.511024 0.11059,0.110627 -0.24453,1.143247 -0.80885,2.351735 -1.74817,3.743831 -2.41245,7.67158 -2.4899,14.72229 -0.0955,8.703286 0.68779,14.750606 2.48045,19.148102 1.20531,2.956635 1.24039,3.238044 0.3774,3.027007 -1.30761,-0.319774 -5.28609,-2.159433 -7.09118,-3.278979 -2.1869,-1.356355 -2.55605,-1.269793 -0.44948,0.105386 3.57903,2.336403 7.22271,3.818189 11.93938,4.855437 5.2636,1.15752 14.00483,2.358706 20.10844,2.763224 2.01085,0.133264 4.29876,0.298944 5.08424,0.368169 l 1.42816,0.12586 0,1.092649 c 0,1.00192 -0.0427,1.086727 -0.51414,1.02132 -0.28277,-0.03924 -6.58094,-0.114725 -13.99593,-0.167758 z m -21.70797,-8.039093 c -0.50271,-0.16929 -2.30219,-0.740868 -3.99884,-1.270177 -1.69665,-0.529306 -3.2390605,-1.014775 -3.4275705,-1.078821 -0.23584,-0.08011 -0.27148,-0.04016 -0.11426,0.128131 0.23855,0.255319 7.6991505,2.5782 8.1795105,2.546711 0.15142,-0.0099 -0.13619,-0.156549 -0.63884,-0.325844 z M 8.8456375,13.578014 c 0.08,-0.129531 -0.0122,-0.167837 -0.21502,-0.0898 -0.39586,0.15191 -0.4683,0.315693 -0.13954,0.315693 0.11821,0 0.27785,-0.101654 0.35462,-0.225888 z m 3.4291905,-1.045382 c 1.1311,-0.415554 1.8959,-0.762238 1.69953,-0.770413 -0.37333,-0.01554 -4.3124505,1.265112 -4.5153205,1.46798 -0.29781,0.297819 0.9434105,-0.0096 2.8157905,-0.697567 z M 138.31702,54.677104 c 6.55767,-4.226081 10.35885,-14.025761 10.27025,-26.477392 -0.0452,-6.36491 -1.32162,-12.243438 -3.67983,-16.948431 -1.42366,-2.8404223 -4.36234,-6.2567313 -6.72228,-7.8148473 -0.50047,-0.330426 -0.79937,-0.600775 -0.66422,-0.600775 0.43311,0 3.36664,2.20105 4.46092,3.347063 1.28886,1.349779 2.72192,3.455342 3.39854,4.9933693 1.10778,2.5181 1.25849,2.743582 2.11268,3.160964 1.228,0.600034 1.53917,2.24139 0.45426,2.396175 -0.54441,0.07768 -0.63968,0.270844 -0.30771,0.623921 0.27419,0.291622 0.66279,2.201252 1.0642,5.229661 0.71049,5.360283 0.20516,15.142856 -0.93029,18.009296 -0.12065,0.304434 -0.0434,0.399883 0.32306,0.399883 0.45009,0 0.53858,0.168948 0.53858,1.028273 0,0.851825 -0.11242,1.02564 -0.98658,1.525289 -0.78631,0.449439 -1.04816,0.807652 -1.70032,2.325967 -1.11827,2.603549 -2.09134,4.137701 -3.75144,5.914611 -1.31096,1.403217 -4.55902,3.830178 -5.12601,3.830178 -0.11958,0 0.44123,-0.424441 1.24619,-0.943205 z m -1.15274,-1.69842 c 0.1502,-0.180916 0.38893,-0.320821 0.53065,-0.310899 0.16189,0.01127 0.15142,0.06087 -0.028,0.133295 -0.15711,0.06339 -0.28563,0.398031 -0.28563,0.743645 0,0.844738 -0.32389,1.132463 -0.4164,0.369904 -0.0405,-0.333854 0.0492,-0.755027 0.19936,-0.935943 z m 0.91266,0.301295 c 0.0975,-0.533113 0.35415,-1.072956 0.5704,-1.199651 2.1376,-1.25246 4.60161,-3.68303 5.50531,-5.430581 0.19031,-0.368014 0.39922,-0.615911 0.46426,-0.550882 0.17474,0.174744 -1.42386,2.946181 -2.60814,4.521608 -0.89844,1.195191 -3.55757,3.628806 -3.96508,3.628806 -0.0792,0 -0.0643,-0.436184 0.0332,-0.9693 z M 75.456461,52.763996 c 0,-0.816905 0.07708,-1.484948 0.171378,-1.484542 0.189081,9.14e-4 0.33182,2.229514 0.171928,2.684193 -0.222412,0.632393 -0.343306,0.209913 -0.343306,-1.199651 z m -1.410821,-0.04945 c -0.04098,-0.790239 0.003,-1.436581 0.09689,-1.436318 0.0943,2.28e-4 0.190405,0.540322 0.213652,1.200131 l 0.0422,1.199651 0.08394,-1.199651 c 0.05987,-0.856128 0.178646,-1.199652 0.414737,-1.199652 0.250944,0 0.330814,0.321827 0.330814,1.332946 0,1.487446 -0.02224,1.53969 -0.657302,1.53969 -0.392754,0 -0.460118,-0.184366 -0.525013,-1.436797 z m -18.183482,1.152849 -2.34218,-0.142435 0,-1.233461 0,-1.233458 10.054224,0.0351 10.054219,0.0351 0,1.495702 0,1.495703 -7.712043,-0.154899 c -4.241632,-0.0852 -8.76602,-0.219 -10.05422,-0.297349 z m 20.279818,-1.217658 0,-1.37103 3.962961,0 c 2.179633,0 5.213037,-0.06721 6.740897,-0.149366 l 2.777936,-0.149366 0,1.387103 c 0,0.895877 -0.101152,1.42792 -0.285632,1.502358 -0.157089,0.06339 -3.190493,0.123377 -6.740897,0.133295 l -6.455265,0.01804 z m 14.395814,-0.253934 0,-1.396461 0.843914,0.15832 c 1.063889,0.199586 3.405545,1.132655 4.270395,1.701601 l 0.65846,0.433175 -1.45823,0.13887 c -0.80202,0.07637 -2.02378,0.169813 -2.715005,0.207643 -0.691227,0.03782 -1.33389,0.08781 -1.428156,0.111053 -0.0943,0.02325 -0.171378,-0.586138 -0.171378,-1.354201 z M 52.834468,52.53548 c 0,-0.691227 0.10283,-1.256777 0.2285,-1.256777 0.12568,0 0.22851,0.56555 0.22851,1.256777 0,0.691228 -0.10283,1.256778 -0.22851,1.256778 -0.12567,0 -0.2285,-0.56555 -0.2285,-1.256778 z m -0.68552,0.01341 c 0,-0.68381 0.10283,-1.306843 0.22851,-1.384516 0.14274,-0.08822 0.2285,0.378468 0.2285,1.243291 0,0.770674 -0.1013,1.384516 -0.2285,1.384516 -0.12568,0 -0.22851,-0.559481 -0.22851,-1.243291 z m -6.62664,0.253604 c -2.28203,-1.099869 -1.15656,-1.600003 3.65608,-1.624658 l 2.62781,-0.01341 0.0699,1.222991 0.0699,1.222987 -2.69768,-0.156133 c -2.06765,-0.11966 -2.93783,-0.271875 -3.72596,-0.651725 z m -40.5596405,0.05976 c 0,-0.354527 0.15127,-0.578224 0.42696,-0.631313 0.26522,-0.05108 0.3683,0.01264 0.27213,0.168251 -0.0851,0.137758 -0.0423,0.250471 0.0952,0.250471 0.1804,0 0.17985,0.131146 -0.002,0.470897 -0.32369,0.604816 -0.79233,0.452037 -0.79233,-0.258306 z m -1.71378,0.130172 c 0,-0.173682 0.10282,-0.379336 0.2285,-0.45701 0.1301,-0.08042 0.22851,0.11637 0.22851,0.45701 0,0.340636 -0.0984,0.537424 -0.22851,0.45701 -0.12568,-0.07768 -0.2285,-0.283328 -0.2285,-0.45701 z m 93.3459015,0.116873 c -0.08,-0.129532 0.0122,-0.167837 0.21502,-0.0898 0.39586,0.15191 0.4683,0.315694 0.13954,0.315694 -0.11821,0 -0.27783,-0.101655 -0.35462,-0.225888 z M 36.610618,52.41815 c -4.97748,-0.650238 -9.83577,-1.501681 -12.08844,-2.118567 -1.89564,-0.519122 -1.92337,-0.537223 -2.19028,-1.43002 -0.14868,-0.497332 -0.48105,-1.315552 -0.7386,-1.818263 -0.8365,-1.632675 -1.64009,-4.597828 -2.14965,-7.931996 -0.42775,-2.798828 -0.50148,-4.27567 -0.51661,-10.348401 -0.0122,-4.782211 0.0785,-7.677576 0.27806,-8.911695 0.48664,-3.008539 1.3514,-5.97014 2.21988,-7.602659 0.48324,-0.908343 0.77844,-1.74783 0.72138,-2.051416 -0.10969,-0.5838353 -0.10877,-0.5841873 4.11132,-1.5368243 4.6037,-1.039224 10.79028,-2.005548 16.17981,-2.527234 1.57119,-0.152093 1.59245,-0.14699 1.19965,0.287253 -0.4884,0.539941 -0.51124,1.05748 -0.0631,1.429405 0.58244,0.483383 5.44658,0.742061 10.74572,0.571469 13.951887,-0.44915 17.643583,-0.51097 26.391896,-0.441952 10.973739,0.08657 11.518038,0.01956 15.847505,-1.951049 0.96502,-0.439238 1.84152,-0.685763 2.28505,-0.642688 0.6122,0.05946 0.41276,0.18088 -1.33701,0.813976 -2.65066,0.959056 -3.99884,1.762386 -3.99884,2.382758 0,0.260231 0.30505,1.102727 0.67791,1.8722183 0.85207,1.758475 1.24158,4.928995 1.6396,13.345846 0.22146,4.683205 0.22196,7.452987 0.003,13.105332 -0.28936,7.44836 -0.58069,9.807443 -1.41827,11.484534 -0.7191,1.439855 -0.55202,1.939111 0.92642,2.768232 0.69123,0.387645 1.92516,0.977778 2.74206,1.311407 1.2816,0.523406 1.38735,0.608122 0.77118,0.617731 -0.39277,0.0061 -1.52387,-0.358762 -2.51356,-0.810859 -3.64435,-1.664759 -2.3957,-1.594136 -27.620505,-1.562255 -16.701352,0.02111 -22.875142,0.09967 -23.589252,0.30016 -1.23623,0.347088 -1.579,0.921623 -0.99373,1.665676 l 0.42827,0.54445 -2.20421,-0.175938 c -1.21231,-0.09676 -3.79802,-0.384149 -5.74603,-0.638631 z m -0.28564,-1.709132 c 0.63933,-0.460478 0.6581,-1.221816 0.0684,-2.773404 -1.02705,-2.702187 -1.73697,-7.477087 -1.96451,-13.213386 -0.0701,-1.765096 -0.17798,-3.543454 -0.2399,-3.951907 l -0.11258,-0.742641 -7.21473,0 -7.21472,0 0.15639,2.227924 c 0.49061,6.989336 1.33194,10.936435 2.96561,13.913187 1.49682,2.72738 5.11914,4.252039 11.32817,4.768094 1.3793,0.114634 1.81413,0.07017 2.22792,-0.227867 z m -4.95836,-0.685408 c -3.47362,-0.521728 -5.09078,-1.144435 -6.66456,-2.56624 -1.69288,-1.529427 -2.62389,-3.671312 -3.39503,-7.810755 -0.35932,-1.928833 -0.92027,-7.332334 -0.92027,-8.864844 0,-0.236905 1.3351,-0.297081 6.59117,-0.297081 l 6.59116,0 0.15514,3.598953 c 0.26949,6.251491 1.14551,12.006105 2.18568,14.357556 0.88557,2.001972 0.0916,2.278546 -4.54329,1.582411 z m 2.83185,-24.623156 c 0.27715,-6.835466 0.89425,-11.492532 1.86576,-14.080262 0.69016,-1.8383293 0.68451,-2.1731513 -0.0463,-2.7480763 -0.47197,-0.371252 -0.80958,-0.441618 -1.65666,-0.345285 -7.28482,0.828464 -10.55812,2.2226523 -12.02078,5.1199853 -0.67976,1.346519 -1.39099,3.581645 -1.8178,5.712625 -0.32399,1.617678 -0.81415,7.189854 -0.81909,9.311578 l -0.002,0.971146 7.1687,0 7.16871,0 0.15981,-3.941711 z m -13.81171,2.489612 c 0,-1.847914 0.46257,-6.875945 0.80339,-8.732612 0.35198,-1.917458 1.16724,-4.539803 1.77943,-5.723646 0.567,-1.096458 1.76693,-2.151189 3.24739,-2.854448 2.78201,-1.3215133 8.99824,-2.1632473 9.55858,-1.2943203 0.19001,0.294646 0.17711,0.58291 -0.0512,1.1425243 -1.11758,2.740072 -1.97913,8.392667 -2.22988,14.630133 l -0.15386,3.827458 -6.47696,0 -6.47695,0 0,-0.995089 z M 2.2431771,50.700358 c -0.18514,-0.88005 -0.39832,-2.421006 -0.47377,-3.424344 -0.0754,-1.003337 -0.18696,-2.216192 -0.24782,-2.695231 l -0.1106,-0.870983 0.85738,0.07122 c 0.8380704,0.06962 0.8726204,0.109804 1.5346404,1.785003 0.54025,1.367047 0.67985,2.07705 0.68999,3.50924 0.0122,1.752424 -0.005,1.810323 -0.72992,2.415943 -0.40846,0.341271 -0.74264,0.762101 -0.74264,0.935183 0,0.781991 -0.46849,-0.258435 -0.7772204,-1.726026 z m 95.8742419,1.117819 c -1.73248,-0.685367 -3.46654,-1.638338 -3.46654,-1.905072 0,-0.09878 0.2434,-0.8345 0.54089,-1.634948 0.71014,-1.910814 0.99719,-3.684005 1.28133,-7.915293 0.47691,-7.101691 0.23972,-17.830193 -0.56334,-25.481465 -0.29057,-2.768409 -0.44632,-3.462818 -1.05417,-4.699742 -0.59861,-1.2181483 -0.66318,-1.4988153 -0.40183,-1.7465973 0.48146,-0.456484 4.01484,-1.933878 5.26775,-2.202577 1.017171,-0.218145 1.235281,-0.184783 2.346531,0.358906 2.15139,1.052576 3.63879,3.18187 4.45677,6.3800833 1.04033,4.067682 1.63332,16.609788 1.16293,24.596872 -0.49096,8.336548 -1.33347,11.185807 -3.93889,13.320752 -2.03599,1.668347 -3.25452,1.869379 -5.631431,0.929081 z M 110.48099,50.14235 c -0.96256,-0.586893 -1.11012,-1.279491 -0.77838,-3.653422 1.16026,-8.302596 1.1717,-23.105327 0.0248,-32.065795 -0.62428,-4.8773793 -0.60731,-5.2979903 0.24838,-6.1536823 l 0.70063,-0.700617 2.44132,0.156763 c 4.13996,0.265837 10.40511,1.004709 14.89485,1.756608 6.38717,1.0696653 13.70194,3.3454733 15.12307,4.7051693 1.8331,1.753844 3.83898,8.770969 3.84219,13.441003 l 6.1e-4,0.91402 -9.19731,0.07899 c -5.05851,0.04345 -9.45436,0.111998 -9.76856,0.152337 -0.31419,0.04034 -2.2422,0.08191 -4.28447,0.09239 -2.31044,0.01188 -3.7132,0.105371 -3.7132,0.247547 0,0.149762 4.64627,0.228505 13.48179,0.228505 l 13.4818,0 -0.002,1.770914 c -0.005,4.391424 -1.1804,9.040146 -2.96283,11.71088 -0.98437,1.474945 -2.35059,2.260417 -5.89173,3.387292 -5.43584,1.729823 -10.76276,2.733375 -20.73512,3.906342 -4.91153,0.577706 -5.99289,0.581583 -6.90613,0.02475 z m 38.5724,-7.480853 c 0.12949,-0.340707 0.17683,-0.88055 0.10511,-1.199651 -0.12491,-0.555799 -0.11592,-0.561539 0.21583,-0.136616 0.43643,0.559064 0.43477,0.813675 -0.009,1.44789 -0.47821,0.682749 -0.59728,0.640087 -0.31148,-0.111617 z M 0.69418704,42.710627 c -0.21547,-0.472885 -0.1875,-0.650298 0.16365,-1.038332 0.79959006,-0.883528 1.91995046,-0.190781 1.62057006,1.002036 -0.21295,0.848491 -1.40314,0.872702 -1.78422006,0.0363 z M 3.0975575,42.08131 c 0.0634,-0.157097 0.11531,-0.02856 0.11531,0.285631 0,0.314195 -0.0519,0.442729 -0.11531,0.285632 -0.0634,-0.157098 -0.0634,-0.414166 0,-0.571263 z M 2.1480271,39.324617 c -0.50527,-2.74216 -0.7878,-8.626153 -0.6439,-13.410034 0.19152,-6.367429 0.28129,-7.012706 0.99454,-7.149053 0.6301904,-0.120468 0.6405204,-0.498895 -0.0891,3.264468 -0.18275,0.942583 -0.3903,3.746121 -0.46123,6.230085 -0.14107,4.939111 0.13801,8.534842 0.8662404,11.162793 0.5296,1.911127 0.52909,1.868339 0.0195,1.595607 -0.27984,-0.149762 -0.5030704,-0.700957 -0.6860304,-1.693866 z m 0.7517804,-3.527195 c -0.25471,-0.601021 -0.4032204,-10.545267 -0.17321,-11.596628 0.12172,-0.556016 0.33024,-0.91402 0.53251,-0.91402 0.36861,0 0.36742,-0.150127 0.0309,3.884585 -0.2121,2.542707 -0.15005,4.075114 0.3165,7.808628 0.12491,0.999907 0.0905,1.217319 -0.19256,1.217319 -0.18955,0 -0.42089,-0.179948 -0.5141,-0.399884 z m 0.80609,-3.968682 c 0,-0.703495 0.0877,-1.08826 0.2285,-1.001301 0.12568,0.07768 0.22851,0.655358 0.22851,1.283747 0,0.703497 -0.0877,1.088259 -0.22851,1.001303 -0.12568,-0.07768 -0.2285,-0.65536 -0.2285,-1.283749 z m 0.45701,-1.928808 c 0,-0.337902 0.0981,-0.524158 0.23223,-0.44122 0.12781,0.07894 0.17307,0.239249 0.1007,0.356244 -0.0724,0.116995 0.003,0.214289 0.16764,0.216213 0.21736,0.0026 0.20543,0.06406 -0.0436,0.225007 -0.46428,0.300038 -0.45701,0.305705 -0.45701,-0.356244 z m -0.45701,-2.423901 c 0,-1.706142 0.1141,-1.671456 0.31302,0.09521 0.0934,0.828989 0.0629,1.313904 -0.0826,1.313904 -0.13009,0 -0.2305,-0.613906 -0.2305,-1.409116 z M 1.0904271,18.461287 C 0.41860704,18.203487 0.19520704,17.473478 0.63827704,16.983879 1.3315871,16.217775 2.3348671,16.56683 2.3348671,17.57415 c 0,0.469864 -0.38694,1.028272 -0.71253,1.028272 -0.0902,0 -0.32962,-0.06351 -0.53191,-0.14114 z M 149.11268,16.4448 c 0.0696,-0.181315 0.0338,-0.652742 -0.0794,-1.047617 -0.17645,-0.615259 -0.15836,-0.6785 0.12644,-0.442125 0.47904,0.397569 0.42205,1.819407 -0.073,1.819407 -0.0553,0 -0.0437,-0.148346 0.0259,-0.329665 z M 1.4232971,15.320373 c 0.003,-0.982449 0.6318,-6.8310533 0.81054,-7.5432053 0.14396,-0.573456 0.15035,-0.570751 1.0167204,0.430287 1.01755,1.175701 1.24174,1.9681223 1.02023,3.6062293 -0.13543,1.001744 -0.97404,3.643225 -1.34941,4.250599 -0.0602,0.09734 -0.4223904,0.13104 -0.8049504,0.07489 -0.60624,-0.08898 -0.69526,-0.194146 -0.69313,-0.818799 z M 141.76478,8.5931987 c -0.6885,-0.666527 -1.72507,-1.529165 -2.30351,-1.916973 -1.33761,-0.896797 -1.62295,-1.259727 -1.62295,-2.064238 0,-0.572668 0.0527,-0.621657 0.44388,-0.412322 0.85018,0.454999 3.83346,3.557585 4.62791,4.812985 1.1559,1.8265523 1.49302,2.5568543 0.73496,1.5921793 -0.34565,-0.439872 -1.19177,-1.3451053 -1.88029,-2.0116313 z m -89.158822,-1.88644 c 0,-0.864823 0.0858,-1.331505 0.22851,-1.243291 0.40526,0.250464 0.26744,2.627807 -0.15234,2.627807 -0.0419,0 -0.0762,-0.623032 -0.0762,-1.384516 z m -0.68551,0.127734 c 0,-0.691227 0.10283,-1.256777 0.2285,-1.256777 0.25174,0 0.32003,2.11735 0.0762,2.361218 -0.27478,0.274788 -0.30467,0.166452 -0.30467,-1.104441 z m -7.67497,0.792143 c -0.65766,-0.250044 -0.53966,-0.679702 0.32735,-1.191853 0.5731,-0.338545 6.53458,-1.066919 6.76543,-0.8266 0.11669,0.12155 0.18173,0.88215 0.15143,1.773523 l -0.0264,0.77572 -3.33774,-0.162271 c -1.83575,-0.08925 -3.58186,-0.255083 -3.88021,-0.368519 z m 9.046,-0.985988 0,-1.222118 3.2562,-0.14635 c 1.790911,-0.08049 6.263896,-0.215108 9.939962,-0.299136 l 6.683771,-0.152778 0,1.292749 0,1.292745 -1.999419,0.02949 c -1.099672,0.01622 -4.313031,0.100222 -7.140781,0.186664 -2.827749,0.08645 -6.400988,0.176005 -7.940543,0.199019 l -2.79919,0.04185 0,-1.222117 z m 28.201673,0.765108 -5.808185,0 0,-1.256778 0,-1.256777 6.740897,0 6.740897,0 0,1.2416 c 0,1.179345 -0.03153,1.246315 -0.628389,1.335615 -0.345621,0.0517 -0.765339,0.05854 -0.932712,0.01523 -0.167372,-0.04336 -2.918008,-0.07883 -6.112508,-0.07883 z m 8.784981,-0.45701 c -0.01721,-0.251356 -0.04281,-0.779202 -0.05713,-1.172994 l -0.02605,-0.715984 2.358337,0.04381 c 1.2971,0.0241 2.57019,0.122174 2.82912,0.217962 0.40176,0.14862 0.29054,0.252551 -0.75882,0.70906 -1.35835,0.59094 -3.583626,1.343714 -4.028753,1.362863 -0.157105,0.0067 -0.299647,-0.193365 -0.316784,-0.444721 z M 75.290855,5.5246827 c 0.05088,-0.410704 0.09354,-0.129776 0.09475,0.624295 0.0014,0.754067 -0.04037,1.090097 -0.09247,0.746735 -0.0521,-0.343364 -0.05317,-0.960327 -0.003,-1.37103 z m -0.976919,0.510043 c 0,-0.761682 0.101608,-1.37103 0.228505,-1.37103 0.126896,0 0.228505,0.609348 0.228505,1.37103 0,0.761683 -0.101609,1.37103 -0.228505,1.37103 -0.126897,0 -0.228505,-0.609347 -0.228505,-1.37103 z m -0.622311,-0.742641 c 0.05073,-0.408453 0.09216,-0.07427 0.09216,0.742641 0,0.816905 -0.04144,1.151094 -0.09216,0.742641 -0.05073,-0.408453 -0.05073,-1.07683 0,-1.485282 z M 4.3914075,6.8344927 c 0,-0.410646 0.12309,-0.571262 0.43797,-0.571262 0.24087,0 0.4828,0.128541 0.5376,0.285631 0.16368,0.469256 -0.082,0.856894 -0.54301,0.856894 -0.30906,0 -0.43256,-0.163098 -0.43256,-0.571263 z m 47.9860505,-3.084817 0,-1.142525 3.50457,0 c 1.927496,0 6.760376,-0.06802 10.739729,-0.151164 l 7.235169,-0.151148 0,0.912079 0,0.912081 -10.339851,0.292255 c -5.68691,0.160739 -10.382687,0.332461 -10.435057,0.381601 -0.0524,0.04914 -0.23232,0.08935 -0.39989,0.08935 -0.21327,0 -0.30467,-0.342758 -0.30467,-1.142525 z m -47.4147905,0.91402 c 0.25136,-0.108007 0.61125,-0.196383 0.79977,-0.196383 0.21605,0 0.17382,0.0726 -0.11425,0.196383 -0.25136,0.108007 -0.61125,0.196385 -0.79977,0.196385 -0.21604,0 -0.17381,-0.0726 0.11425,-0.196385 z m 80.1481285,-0.375585 -10.33985,-0.151986 0,-0.878737 0,-0.878739 11.25387,0.0015 c 6.189636,9.14e-4 11.937493,0.06621 12.773013,0.145116 l 1.519171,0.143501 -0.776521,0.776512 c -0.42708,0.427084 -0.77651,0.88973 -0.77651,1.028107 0,0.173088 -0.51692,0.207127 -1.65666,0.109088 -0.91117,-0.07838 -6.309587,-0.210897 -11.996513,-0.29449 z m -78.8294485,0.009 c 0.0759,-0.07592 0.273,-0.08404 0.43796,-0.01802 0.18227,0.07294 0.12812,0.127094 -0.13801,0.138047 -0.24089,0.0099 -0.37585,-0.04409 -0.29992,-0.120011 z M 74.245567,3.2303827 c -0.07937,-0.513982 -0.04631,-0.808373 0.08196,-0.729155 0.118213,0.07308 0.214978,0.503825 0.214978,0.957224 0,1.011391 -0.119737,0.91939 -0.296874,-0.228069 z M 7.3048475,4.0553137 c 0.1571,-0.06339 0.41417,-0.06339 0.57126,0 0.15711,0.06339 0.0286,0.115257 -0.28563,0.115257 -0.31419,0 -0.44272,-0.05187 -0.28563,-0.115257 z m 1.14252,-0.228505 c 0.15711,-0.06339 0.41418,-0.06339 0.57127,0 0.1571,0.06339 0.0286,0.115257 -0.28563,0.115257 -0.3142,0 -0.44272,-0.05187 -0.28564,-0.115257 z M 22.786058,2.9266067 c 1.09593,-0.180523 21.26201,-1.168209 26.04957,-1.275844 2.72325,-0.06122 3.19907,-0.02093 3.19907,0.270835 0,0.292613 -0.95276,0.368044 -6.51239,0.515602 -3.58182,0.09506 -9.13449,0.258667 -12.33927,0.363565 -5.98933,0.19604 -11.20649,0.259188 -10.39698,0.125845 z m 29.5914,-1.084396 c 0,-0.400857 2.4303,-0.554483 11.425248,-0.722219 3.581816,-0.0668 7.309311,-0.17789095 8.283306,-0.24688495 l 1.770914,-0.125449 0,0.58192495 0,0.581924 -4.284469,0.06217 C 54.937368,2.1860357 52.377458,2.1664617 52.377458,1.8422097 Z m 22.393488,-0.455607 0,-0.53499095 4.627226,-0.149915 c 2.544981,-0.08246 8.971684,-0.150188 14.281557,-0.150524 9.144651,-4.57e-4 9.654341,0.02111 9.654341,0.410708 0,0.96347095 0.0568,0.95972095 -14.555769,0.95972095 l -14.007355,0 z m -0.685515,0.09148 c 0,-0.243938 0.102827,-0.50707495 0.228505,-0.58474895 0.129638,-0.0801 0.228505,0.11187595 0.228505,0.44352395 0,0.321611 -0.102828,0.584749 -0.228505,0.584749 -0.125678,0 -0.228505,-0.199586 -0.228505,-0.443524 z"
     id="path4332"
     inkscape:connector-curvature="0"
     sodipodi:nodetypes="ssssssscsscscssssscsssccssssccscssccscsscsscssssssssssssscscscsssscccsscccsccssscsscccsssccssssssccccscssssccccsscccscccscscccssssccsccccsccccssscssssccscsccssssssscscsccssscsscscsssscccsscscsccscssssssssscsccccscsccccscccsscsssssssscsscssssssscccscccccccssccsccscccccsssccscccccccssccsscsssccscssccscssssssssssscccccscccccscccscscsccscccssssccscssscsssssssscssscsscscscccccccccsssccssssscssscscssccccccccsssscscccccccccssccsccsssssccsssssscssscsssccsscssccssscccsccccccscsssscssssscccccsccsccscscssccccsccsccsssssscsssccsccscssscsssscsssssscscccsccccsscccssscccccccccscccccccscscccccsccssssssssssssssscsscccscsssssssccccccccsscccccccccsccccscccscssssssssscccssccscssccscsss" />
</svg>
