<?xml version="1.0" encoding="UTF-8" standalone="no"?>
<!-- Created with Inkscape (http://www.inkscape.org/) -->

<svg
   xmlns:dc="http://purl.org/dc/elements/1.1/"
   xmlns:cc="http://creativecommons.org/ns#"
   xmlns:rdf="http://www.w3.org/1999/02/22-rdf-syntax-ns#"
   xmlns:svg="http://www.w3.org/2000/svg"
   xmlns="http://www.w3.org/2000/svg"
   xmlns:sodipodi="http://sodipodi.sourceforge.net/DTD/sodipodi-0.dtd"
   xmlns:inkscape="http://www.inkscape.org/namespaces/inkscape"
   id="svg4318"
   version="1.1"
   inkscape:version="0.91 r13725"
   width="150"
   height="68.725998"
   viewBox="0 0 150 68.725998"
   sodipodi:docname="t603_wheels.svg"
   inkscape:export-filename="/media/Data/git/need-not-to-speed/lib/images/t603_wheels.png"
   inkscape:export-xdpi="90"
   inkscape:export-ydpi="90">
  <metadata
     id="metadata4324">
    <rdf:RDF>
      <cc:Work
         rdf:about="">
        <dc:format>image/svg+xml</dc:format>
        <dc:type
           rdf:resource="http://purl.org/dc/dcmitype/StillImage" />
        <dc:title></dc:title>
      </cc:Work>
    </rdf:RDF>
  </metadata>
  <defs
     id="defs4322" />
  <sodipodi:namedview
     pagecolor="#ffffff"
     bordercolor="#666666"
     borderopacity="1"
     objecttolerance="10"
     gridtolerance="10"
     guidetolerance="10"
     inkscape:pageopacity="0"
     inkscape:pageshadow="2"
     inkscape:window-width="1600"
     inkscape:window-height="848"
     id="namedview4320"
     showgrid="false"
     fit-margin-top="0"
     fit-margin-left="0"
     fit-margin-right="0"
     fit-margin-bottom="0"
     inkscape:zoom="5.2692018"
     inkscape:cx="79.2588"
     inkscape:cy="37.657162"
     inkscape:window-x="0"
     inkscape:window-y="0"
     inkscape:window-maximized="1"
     inkscape:current-layer="svg4318" />
  <rect
     style="opacity:1;fill:#000000;fill-opacity:1;stroke:none;stroke-width:1.5;stroke-linecap:butt;stroke-linejoin:miter;stroke-miterlimit:4;stroke-dasharray:none;stroke-dashoffset:0;stroke-opacity:1"
     id="rect4145"
     width="20.666178"
     height="6.9781694"
     x="89.277519"
     y="65.35965"
     ry="0.99635124"
     rx="5.0292163"
     transform="matrix(0.85670868,-0.51580058,0.51580536,0.8567058,0,0)" />
  <rect
     transform="matrix(0.85670868,-0.51580058,0.51580536,0.8567058,0,0)"
     rx="5.0292163"
     ry="0.99635124"
     y="111.20916"
     x="61.67255"
     height="6.9781694"
     width="20.666178"
     id="rect4149"
     style="opacity:1;fill:#000000;fill-opacity:1;stroke:none;stroke-width:1.5;stroke-linecap:butt;stroke-linejoin:miter;stroke-miterlimit:4;stroke-dasharray:none;stroke-dashoffset:0;stroke-opacity:1" />
  <path
     sodipodi:nodetypes="sccscccccsssccscccccccssccsscsssccscssccscssssssssssscccccsccccsccsscccscsscsssssssscssscsscscssssssssccsssssssssssccsccssccccsscccssscccccccscscccccccssscccccsssssssssssssss"
     inkscape:connector-curvature="0"
     id="path4360"
     d="m 75.475578,60.362848 c 0,-0.816905 0.0771,-1.484948 0.17138,-1.484542 0.18908,9.14e-4 0.33182,2.229514 0.17193,2.684193 -0.22242,0.632393 -0.34331,0.209913 -0.34331,-1.199651 z m -1.41082,-0.04945 c -0.041,-0.790239 0.003,-1.436581 0.0969,-1.436318 0.0943,2.28e-4 0.1904,0.540322 0.21365,1.200131 l 0.0422,1.199651 0.0839,-1.199651 c 0.0599,-0.856128 0.17865,-1.199652 0.41474,-1.199652 0.25094,0 0.33081,0.321827 0.33081,1.332946 0,1.487446 -0.0222,1.53969 -0.6573,1.53969 -0.39275,0 -0.46012,-0.184366 -0.52501,-1.436797 z m -18.18348,1.152849 -2.34218,-0.142435 0,-1.233461 0,-1.233458 10.05422,0.0351 10.05422,0.0351 0,1.495702 0,1.495703 -7.71204,-0.154899 c -4.24163,-0.0852 -8.76602,-0.219 -10.05422,-0.297352 z m 20.27982,-1.217658 0,-1.37103 3.96296,0 c 2.17963,0 5.21303,-0.06721 6.74089,-0.149366 l 2.77794,-0.149366 0,1.387103 c 0,0.895877 -0.10115,1.42792 -0.28563,1.502358 -0.15709,0.06339 -3.1905,0.123377 -6.7409,0.133295 l -6.45526,0.01804 z m 14.39581,-0.253934 0,-1.396461 0.84391,0.15832 c 1.06389,0.199586 3.40555,1.132655 4.2704,1.701601 l 0.65846,0.433175 -1.45823,0.13887 c -0.80202,0.07637 -2.02378,0.169813 -2.71501,0.207643 -0.69122,0.03782 -1.33389,0.08781 -1.42815,0.111053 -0.0943,0.02325 -0.17138,-0.586138 -0.17138,-1.354201 z m -37.70332,0.139677 c 0,-0.691227 0.10283,-1.256777 0.2285,-1.256777 0.12568,0 0.22851,0.56555 0.22851,1.256777 0,0.691228 -0.10283,1.256778 -0.22851,1.256778 -0.12567,0 -0.2285,-0.56555 -0.2285,-1.256778 z m -0.68552,0.01341 c 0,-0.68381 0.10283,-1.306843 0.22851,-1.384516 0.14274,-0.08822 0.2285,0.378468 0.2285,1.243291 0,0.770674 -0.1013,1.384516 -0.2285,1.384516 -0.12568,0 -0.22851,-0.559481 -0.22851,-1.243291 z m -6.62664,0.253604 c -2.28203,-1.099869 -1.15656,-1.600003 3.65608,-1.624658 l 2.62781,-0.01341 0.0699,1.222991 0.0699,1.222987 -2.69768,-0.156133 c -2.06765,-0.11966 -2.93783,-0.271875 -3.72596,-0.651725 z m 51.07248,0.306805 c -0.08,-0.129532 0.0122,-0.167837 0.21502,-0.0898 0.39586,0.15191 0.4683,0.315694 0.13954,0.315694 -0.11821,0 -0.27783,-0.101655 -0.35462,-0.225888 z M 27.957954,57.808602 c -1.852865,-0.655614 -3.792609,-1.82464 -4.41574,-2.517486 -2.496505,-2.775805 -2.979828,-6.006344 -3.395556,-8.774254 -0.42775,-2.798828 -0.810947,-6.137829 -0.820936,-10.147107 0,-3.952779 0.552955,-7.677576 0.752515,-8.911695 0.48664,-3.008539 1.571326,-6.065666 2.599444,-7.602659 1.455284,-2.175588 4.064694,-2.919797 6.493293,-3.611963 4.864651,-1.395065 7.896104,-1.981825 13.285634,-2.503512 1.57119,-0.152093 1.59245,-0.14699 1.19965,0.287253 -0.4884,0.539942 -0.51124,1.057481 -0.0631,1.429406 0.58244,0.483383 5.44658,0.742061 10.74572,0.571469 13.95188,-0.44915 17.64358,-0.51097 26.39189,-0.441952 10.97374,0.08657 11.51804,0.01956 15.84751,-1.95105 0.96502,-0.439238 1.84152,-0.685763 2.28505,-0.642688 0.6122,0.05946 0.41276,0.18088 -1.33701,0.813976 -2.65066,0.959057 -3.99884,1.762387 -3.99884,2.382759 0,0.260231 0.30505,1.102727 0.67791,1.872218 0.85207,1.758475 1.24158,4.928995 1.6396,13.345846 0.22146,4.683205 0.22196,7.452987 0.003,13.105332 -0.28936,7.44836 -0.58069,9.807443 -1.41827,11.484534 -0.7191,1.439855 -0.55202,1.939111 0.92642,2.768232 0.69123,0.387645 1.92516,0.977778 2.74206,1.311407 1.2816,0.523406 1.38735,0.608122 0.77118,0.617731 -0.39277,0.0061 -1.52387,-0.358762 -2.51356,-0.810859 -3.64435,-1.664759 -2.3957,-1.594136 -27.62051,-1.562255 -16.70135,0.02111 -22.87514,0.09967 -23.58925,0.30016 -1.23623,0.347088 -1.579,0.921623 -0.99373,1.665676 l 0.42827,0.54445 -2.20421,-0.175938 c -1.21231,-0.09676 -2.037954,0.102746 -4.33697,-0.236042 -3.791858,-0.558778 -8.059825,-1.895657 -10.081464,-2.610989 z m 70.178584,1.608427 c -1.73248,-0.685367 -3.46654,-1.638338 -3.46654,-1.905072 0,-0.09878 0.2434,-0.8345 0.54089,-1.634948 0.71014,-1.910814 0.99719,-3.684005 1.28133,-7.915293 0.47691,-7.101691 0.23972,-17.830193 -0.56334,-25.481465 -0.29057,-2.768409 -0.44632,-3.462818 -1.05417,-4.699742 -0.59861,-1.218148 -0.66318,-1.498815 -0.40183,-1.746597 0.48146,-0.456484 4.01484,-1.933879 5.26775,-2.202578 1.017172,-0.218145 1.235282,-0.184783 2.346532,0.358907 2.15139,1.052576 3.63879,3.18187 4.45677,6.380083 1.04033,4.067682 1.63332,16.609788 1.16293,24.596872 -0.49096,8.336548 -1.33347,11.185807 -3.93889,13.320752 -2.03599,1.668347 -3.25452,1.869379 -5.631432,0.929081 z M 52.625078,14.305611 c 0,-0.864824 0.0858,-1.331506 0.22851,-1.243292 0.40526,0.250464 0.26744,2.627808 -0.15234,2.627808 -0.0419,0 -0.0762,-0.623032 -0.0762,-1.384516 z m -0.68551,0.127734 c 0,-0.691228 0.10283,-1.256778 0.2285,-1.256778 0.25174,0 0.32003,2.117351 0.0762,2.361219 -0.27478,0.274788 -0.30467,0.166452 -0.30467,-1.104441 z m -7.67497,0.792143 c -0.65766,-0.250044 -0.53966,-0.679702 0.32735,-1.191854 0.5731,-0.338545 6.53458,-1.066919 6.76543,-0.8266 0.11669,0.12155 0.18173,0.88215 0.15143,1.773524 l -0.0264,0.77572 -3.33774,-0.162271 c -1.83575,-0.08925 -3.58186,-0.255083 -3.88021,-0.368519 z m 9.046,-0.985988 0,-1.222119 3.2562,-0.14635 c 1.79091,-0.08049 6.26389,-0.215108 9.93996,-0.299136 l 6.68377,-0.152778 0,1.292749 0,1.292746 -1.99942,0.02949 c -1.09967,0.01622 -4.31303,0.100222 -7.14078,0.186664 -2.82775,0.08645 -6.40099,0.176005 -7.94054,0.199019 l -2.79919,0.04185 0,-1.222117 z m 28.20167,0.765108 -5.80818,0 0,-1.256779 0,-1.256777 6.74089,0 6.7409,0 0,1.2416 c 0,1.179346 -0.0315,1.246316 -0.62839,1.335616 -0.34562,0.0517 -0.76534,0.05854 -0.93271,0.01523 -0.16737,-0.04336 -2.91801,-0.07883 -6.11251,-0.07883 z m 8.78498,-0.45701 c -0.0172,-0.251356 -0.0428,-0.779203 -0.0571,-1.172995 l -0.026,-0.715984 2.35834,0.04381 c 1.2971,0.0241 2.57019,0.122174 2.82912,0.217962 0.40176,0.14862 0.29054,0.252551 -0.75882,0.70906 -1.35835,0.590941 -3.58363,1.343715 -4.02875,1.362864 -0.15711,0.0067 -0.29965,-0.193365 -0.31679,-0.444717 z m -14.98728,-1.424064 c 0.0509,-0.410704 0.0935,-0.129776 0.0948,0.624295 10e-4,0.754068 -0.0404,1.090098 -0.0925,0.746736 -0.0521,-0.343364 -0.0532,-0.960328 -0.003,-1.371031 z m -0.97691,0.510043 c 0,-0.761682 0.1016,-1.37103 0.2285,-1.37103 0.1269,0 0.22851,0.609348 0.22851,1.37103 0,0.761684 -0.10161,1.371031 -0.22851,1.371031 -0.1269,0 -0.2285,-0.609347 -0.2285,-1.371031 z m -0.62232,-0.742641 c 0.0507,-0.408453 0.0922,-0.07427 0.0922,0.742641 0,0.816906 -0.0414,1.151095 -0.0922,0.742642 -0.0507,-0.408454 -0.0507,-1.076831 0,-1.485283 z"
     style="fill:#ffffff;fill-opacity:1" />
</svg>
